SplineFontDB: 3.2
FontName: Inconsolata-UltraCondensedBold
FullName: Inconsolata Ultra Condensed Bold
FamilyName: Inconsolata Ultra Condensed Bold
Weight: Bold
Copyright: Copyright 2006 The Inconsolata Project Authors (https://github.com/cyrealtype/Inconsolata)
Version: 3.000; ttfautohint (v1.8.3)
ItalicAngle: -9
UnderlinePosition: -297
UnderlineWidth: 102
Ascent: 1802
Descent: 246
InvalidEm: 0
sfntRevision: 0x00030000
LayerCount: 2
Layer: 0 1 "Back" 1
Layer: 1 1 "Fore" 0
XUID: [1021 29 -327391364 25656]
StyleMap: 0x0040
FSType: 0
OS2Version: 4
OS2_WeightWidthSlopeOnly: 0
OS2_UseTypoMetrics: 1
CreationTime: 1576097233
ModificationTime: 1732402468
PfmFamily: 81
TTFWeight: 700
TTFWidth: 1
LineGap: 0
VLineGap: 0
Panose: 0 0 0 0 0 0 0 0 0 0
OS2TypoAscent: 1759
OS2TypoAOffset: 0
OS2TypoDescent: -389
OS2TypoDOffset: 0
OS2TypoLinegap: 0
OS2WinAscent: 2056
OS2WinAOffset: 0
OS2WinDescent: 930
OS2WinDOffset: 0
HheadAscent: 1759
HheadAOffset: 0
HheadDescent: -389
HheadDOffset: 0
OS2SubXSize: 1331
OS2SubYSize: 1229
OS2SubXOff: 0
OS2SubYOff: 154
OS2SupXSize: 1331
OS2SupYSize: 1229
OS2SupXOff: 0
OS2SupYOff: 717
OS2StrikeYSize: 102
OS2StrikeYPos: 571
OS2CapHeight: 1276
OS2XHeight: 952
OS2Vendor: 'CYRE'
OS2CodePages: 60000193.cdd40000
OS2UnicodeRanges: a00000ff.0000f9eb.00000020.00000000
Lookup: 1 0 0 "'aalt' Access All Alternates in Latin lookup 0" { "'aalt' Access All Alternates in Latin lookup 0 subtable"  } ['aalt' ('DFLT' <'dflt' > 'latn' <'AZE ' 'CAT ' 'CRT ' 'KAZ ' 'MOL ' 'ROM ' 'TAT ' 'TRK ' 'dflt' > ) ]
Lookup: 3 0 0 "'aalt' Access All Alternates in Latin lookup 1" { "'aalt' Access All Alternates in Latin lookup 1 subtable"  } ['aalt' ('DFLT' <'dflt' > 'latn' <'AZE ' 'CAT ' 'CRT ' 'KAZ ' 'MOL ' 'ROM ' 'TAT ' 'TRK ' 'dflt' > ) ]

StartChar: A
Encoding: 65 65 1
Width: 512
VWidth: 2441
GlyphClass: 2
Flags: HW
AnchorPoint: "Anchor-3" 264 0 basechar 0
AnchorPoint: "Anchor-2" 153 0 basechar 0
AnchorPoint: "Anchor-0" 393.902 1521 basechar 0
LayerCount: 2
Fore
SplineSet
309.483398438 988 m 1,0,-1
 195.260742188 532 l 1,1,-1
 279.260742188 532 l 1,2,-1
 309.483398438 988 l 1,0,-1
243 0 m 1,3,-1
 267.760742188 371 l 1,4,-1
 155.760742188 371 l 1,5,-1
 61 0 l 1,6,-1
 -87 0 l 1,7,-1
 350.020507812 1547 l 1,8,-1
 446.020507812 1547 l 1,9,-1
 393 0 l 1,10,-1
 243 0 l 1,3,-1
EndSplineSet
Substitution2: "Single Substitution lookup 29 subtable" ordfeminine
Substitution2: "'aalt' Access All Alternates in Latin lookup 0 subtable" ordfeminine
EndChar

StartChar: AE
Encoding: 198 198 26
Width: 512
VWidth: 2441
GlyphClass: 1
Flags: HW
LayerCount: 2
Fore
SplineSet
187.75390625 573 m 1,0,-1
 241.75390625 573 l 1,1,-1
 363.020507812 1225 l 1,2,-1
 187.75390625 573 l 1,0,-1
-91 0 m 1,3,-1
 346.219726562 1523 l 1,4,-1
 630.219726562 1523 l 1,5,-1
 599.651367188 1330 l 1,6,-1
 485.651367188 1330 l 1,7,-1
 416.279296875 892 l 1,8,-1
 504.279296875 892 l 1,9,-1
 473.235351562 696 l 1,10,-1
 385.235351562 696 l 1,11,-1
 305.568359375 193 l 1,12,-1
 417.568359375 193 l 1,13,-1
 387 0 l 1,14,-1
 151 0 l 1,15,-1
 213.245117188 393 l 1,16,-1
 141.245117188 393 l 1,17,-1
 29 0 l 1,18,-1
 -91 0 l 1,3,-1
EndSplineSet
EndChar

StartChar: B
Encoding: 66 66 28
Width: 512
VWidth: 2441
GlyphClass: 2
Flags: HW
AnchorPoint: "Anchor-2" 188 0 basechar 0
AnchorPoint: "Anchor-0" 428.902 1521 basechar 0
LayerCount: 2
Fore
SplineSet
139.568359375 193 m 1,0,-1
 209.568359375 193 l 2,1,2
 252.568359375 193 252.568359375 193 287.041992188 246.5 c 128,-1,3
 321.515625 300 321.515625 300 343.213867188 437 c 128,-1,4
 364.913085938 574 364.913085938 574 347.1328125 648 c 128,-1,5
 329.353515625 722 329.353515625 722 274.353515625 722 c 2,6,-1
 223.353515625 722 l 1,7,-1
 139.568359375 193 l 1,0,-1
254.080078125 916 m 1,8,-1
 301.080078125 916 l 2,9,10
 357.080078125 916 357.080078125 916 386.44921875 972 c 128,-1,11
 415.819335938 1028 415.819335938 1028 432.291015625 1132 c 0,12,13
 446.704101562 1223 446.704101562 1223 435.01953125 1275.5 c 128,-1,14
 423.334960938 1328 423.334960938 1328 378.334960938 1328 c 2,15,-1
 319.334960938 1328 l 1,16,-1
 254.080078125 916 l 1,8,-1
-49 0 m 1,17,-1
 191.90234375 1521 l 1,18,-1
 400.90234375 1521 l 2,19,20
 461.90234375 1521 461.90234375 1521 513.254882812 1488.5 c 128,-1,21
 564.607421875 1456 564.607421875 1456 588.436523438 1376 c 128,-1,22
 612.266601562 1296 612.266601562 1296 589.6171875 1153 c 0,23,24
 563.80078125 990 563.80078125 990 526.159179688 916.5 c 128,-1,25
 488.518554688 843 488.518554688 843 431.083007812 815 c 1,26,27
 477.540039062 780 477.540039062 780 501.072265625 685.5 c 128,-1,28
 524.60546875 591 524.60546875 591 498.629882812 427 c 0,29,30
 464.260742188 210 464.260742188 210 380.129882812 105 c 128,-1,31
 296 0 296 0 158 0 c 2,32,-1
 -49 0 l 1,17,-1
EndSplineSet
EndChar

StartChar: C
Encoding: 67 67 29
Width: 512
VWidth: 2441
GlyphClass: 2
Flags: HW
AnchorPoint: "Anchor-2" 210 0 basechar 0
AnchorPoint: "Anchor-0" 440.902 1521 basechar 0
LayerCount: 2
Fore
SplineSet
210.19921875 -24 m 0,0,1
 138.19921875 -24 138.19921875 -24 86.810546875 43 c 128,-1,2
 35.421875 110 35.421875 110 24.6103515625 278.5 c 128,-1,3
 13.7978515625 447 13.7978515625 447 60.10546875 752 c 0,4,5
 99.54296875 1001 99.54296875 1001 150.43359375 1155 c 128,-1,6
 201.325195312 1309 201.325195312 1309 258.733398438 1390.5 c 128,-1,7
 316.141601562 1472 316.141601562 1472 371.314453125 1501.5 c 128,-1,8
 426.486328125 1531 426.486328125 1531 471.486328125 1531 c 0,9,10
 545.486328125 1531 545.486328125 1531 585.067382812 1481 c 128,-1,11
 624.6484375 1431 624.6484375 1431 634.977539062 1351 c 1,12,-1
 551.04296875 1162 l 1,13,-1
 539.55859375 1140 l 1,14,-1
 527.825195312 1148 l 1,15,16
 524.834960938 1167 524.834960938 1167 531.26953125 1195 c 0,17,18
 531.984375 1198.11132812 531.984375 1198.11132812 532.495117188 1201.33300781 c 0,19,20
 536.577148438 1227.11132812 536.577148438 1227.11132812 527.564453125 1260 c 0,21,22
 512.741210938 1299 512.741210938 1299 491.696289062 1314.5 c 128,-1,23
 470.651367188 1330 470.651367188 1330 445.651367188 1330 c 0,24,25
 408.651367188 1330 408.651367188 1330 368.732421875 1280 c 128,-1,26
 328.8125 1230 328.8125 1230 289.59375 1105.5 c 128,-1,27
 250.375 981 250.375 981 215.213867188 759 c 0,28,29
 180.844726562 542 180.844726562 542 181.413085938 413 c 128,-1,30
 181.981445312 284 181.981445312 284 206.453125 227 c 128,-1,31
 230.92578125 170 230.92578125 170 266.92578125 170 c 0,32,33
 305.92578125 170 305.92578125 170 344.236328125 213 c 128,-1,34
 382.546875 256 382.546875 256 415.524414062 319 c 1,35,-1
 425.381835938 135 l 1,36,37
 377.552734375 54 377.552734375 54 326.875976562 15 c 128,-1,38
 276.19921875 -24 276.19921875 -24 210.19921875 -24 c 0,0,1
EndSplineSet
EndChar

StartChar: D
Encoding: 68 68 36
Width: 512
VWidth: 2441
GlyphClass: 2
Flags: HW
AnchorPoint: "Anchor-4" 300.688 762 basechar 0
AnchorPoint: "Anchor-2" 180 0 basechar 0
AnchorPoint: "Anchor-0" 387.902 1521 basechar 0
LayerCount: 2
Fore
SplineSet
137.250976562 191 m 1,0,-1
 164.250976562 191 l 2,1,2
 229.250976562 191 229.250976562 191 286.37109375 327.5 c 128,-1,3
 343.490234375 464 343.490234375 464 387.6796875 743 c 0,4,5
 432.185546875 1024 432.185546875 1024 429.259765625 1176 c 128,-1,6
 426.334960938 1328 426.334960938 1328 357.334960938 1328 c 2,7,-1
 317.334960938 1328 l 1,8,-1
 137.250976562 191 l 1,0,-1
-52.31640625 -2 m 1,9,-1
 188.90234375 1521 l 1,10,-1
 366.90234375 1521 l 2,11,12
 454.90234375 1521 454.90234375 1521 505.830078125 1479.5 c 128,-1,13
 556.756835938 1438 556.756835938 1438 573.91796875 1338 c 128,-1,14
 591.080078125 1238 591.080078125 1238 586.672851562 1106 c 128,-1,15
 582.266601562 974 582.266601562 974 547.10546875 752 c 0,16,17
 427.682617188 -2.0009765625 427.682617188 -2.0009765625 113.515625 -2.0009765625 c 0,18,19
 113.099609375 -2.0009765625 113.099609375 -2.0009765625 112.68359375 -2 c 2,20,-1
 -52.31640625 -2 l 1,9,-1
EndSplineSet
EndChar

StartChar: Eth
Encoding: 208 208 37
Width: 512
VWidth: 2441
GlyphClass: 1
Flags: HW
LayerCount: 2
Fore
SplineSet
128.568359375 193 m 1,0,-1
 148.568359375 193 l 2,1,2
 225.568359375 193 225.568359375 193 275.133789062 326 c 128,-1,3
 324.698242188 459 324.698242188 459 370.313476562 747 c 0,4,5
 416.719726562 1040 416.719726562 1040 409.130859375 1181.5 c 128,-1,6
 401.54296875 1323 401.54296875 1323 325.54296875 1323 c 2,7,-1
 307.54296875 1323 l 1,8,-1
 239.912109375 896 l 1,9,-1
 304.912109375 896 l 1,10,-1
 276.245117188 715 l 1,11,-1
 211.245117188 715 l 1,12,-1
 128.568359375 193 l 1,0,-1
-48.31640625 -2 m 1,13,-1
 65.2451171875 715 l 1,14,-1
 30.2451171875 715 l 1,15,-1
 58.912109375 896 l 1,16,-1
 93.912109375 896 l 1,17,-1
 192.90234375 1521 l 1,18,-1
 360.90234375 1521 l 2,19,20
 422.90234375 1521 422.90234375 1521 464.830078125 1479.5 c 128,-1,21
 506.756835938 1438 506.756835938 1438 527.541015625 1373.5 c 128,-1,22
 548.325195312 1309 548.325195312 1309 553.921875 1237 c 0,23,24
 556.735351562 1179 556.735351562 1179 552.100585938 1064.5 c 128,-1,25
 547.46484375 950 547.46484375 950 516.580078125 755 c 0,26,27
 469.698242188 459 469.698242188 459 409.14453125 294.5 c 128,-1,28
 348.58984375 130 348.58984375 130 273.13671875 64 c 128,-1,29
 197.68359375 -2 197.68359375 -2 107.68359375 -2 c 2,30,-1
 -48.31640625 -2 l 1,13,-1
EndSplineSet
EndChar

StartChar: E
Encoding: 69 69 42
Width: 512
VWidth: 2441
GlyphClass: 2
Flags: HW
AnchorPoint: "Anchor-3" 451.801 24 basechar 0
AnchorPoint: "Anchor-2" 207 0 basechar 0
AnchorPoint: "Anchor-0" 459.902 1521 basechar 0
LayerCount: 2
Fore
SplineSet
-34 0 m 1,0,-1
 207.219726562 1523 l 1,1,-1
 687.219726562 1523 l 1,2,-1
 656.651367188 1330 l 1,3,-1
 350.651367188 1330 l 1,4,-1
 280.645507812 888 l 1,5,-1
 526.645507812 888 l 1,6,-1
 496.7109375 699 l 1,7,-1
 250.7109375 699 l 1,8,-1
 170.568359375 193 l 1,9,-1
 474.568359375 193 l 1,10,-1
 444 0 l 1,11,-1
 -34 0 l 1,0,-1
EndSplineSet
EndChar

StartChar: uni01B8
Encoding: 440 440 65
Width: 512
VWidth: 2441
GlyphClass: 1
Flags: HW
LayerCount: 2
Fore
SplineSet
228.723632812 -27 m 0,0,1
 109.723632812 -27 109.723632812 -27 57.0966796875 89 c 128,-1,2
 4.46875 205 4.46875 205 38.521484375 420 c 0,3,4
 69.08984375 613 69.08984375 613 144.258789062 743.5 c 128,-1,5
 219.427734375 874 219.427734375 874 310.396484375 918 c 1,6,-1
 215.443359375 1335 l 1,7,-1
 244.90234375 1521 l 1,8,-1
 637.90234375 1521 l 1,9,-1
 607.334960938 1328 l 1,10,-1
 387.334960938 1328 l 1,11,-1
 466.40625 937 l 1,12,-1
 437.10546875 752 l 1,13,14
 424.958984375 753.197265625 424.958984375 753.197265625 413.53515625 753.197265625 c 0,15,16
 329.564453125 753.197265625 329.564453125 753.197265625 284.547851562 688.5 c 0,17,18
 233.40625 615 233.40625 615 204.421875 432 c 0,19,20
 180.505859375 281 180.505859375 281 205.3984375 223.5 c 128,-1,21
 230.291992188 166 230.291992188 166 281.291992188 166 c 0,22,23
 339.291992188 166 339.291992188 166 386.260742188 210 c 1,24,25
 404.537109375 237 404.537109375 237 410.4921875 252.5 c 128,-1,26
 416.447265625 268 416.447265625 268 415.297851562 286 c 1,27,-1
 424.515625 300 l 1,28,-1
 442.297851562 286 l 1,29,-1
 448.838867188 100 l 1,30,31
 395.276367188 27 395.276367188 27 341 0 c 128,-1,32
 286.723632812 -27 286.723632812 -27 228.723632812 -27 c 0,0,1
EndSplineSet
EndChar

StartChar: F
Encoding: 70 70 66
Width: 512
VWidth: 2441
GlyphClass: 2
Flags: HW
AnchorPoint: "Anchor-2" 211 0 basechar 0
AnchorPoint: "Anchor-0" 451.902 1521 basechar 0
LayerCount: 2
Fore
SplineSet
-13 0 m 1,0,-1
 228.219726562 1523 l 1,1,-1
 697.219726562 1523 l 1,2,-1
 666.651367188 1330 l 1,3,-1
 370.651367188 1330 l 1,4,-1
 305.080078125 916 l 1,5,-1
 542.080078125 916 l 1,6,-1
 511.829101562 725 l 1,7,-1
 274.829101562 725 l 1,8,-1
 160 0 l 1,9,-1
 -13 0 l 1,0,-1
EndSplineSet
EndChar

StartChar: G
Encoding: 71 71 67
Width: 512
VWidth: 2441
GlyphClass: 2
Flags: HW
AnchorPoint: "Anchor-2" 201 0 basechar 0
AnchorPoint: "Anchor-0" 451.902 1521 basechar 0
LayerCount: 2
Fore
SplineSet
209.19921875 -24 m 0,0,1
 76.19921875 -24 76.19921875 -24 36.974609375 164 c 128,-1,2
 -2.2490234375 352 -2.2490234375 352 59.6796875 743 c 1,3,4
 65.009765625 780.538085938 65.009765625 780.538085938 70.625 815.994140625 c 0,5,6
 101.51171875 1011 101.51171875 1011 141.033203125 1143 c 0,7,8
 187.741210938 1299 187.741210938 1299 241.783203125 1384.5 c 128,-1,9
 295.825195312 1470 295.825195312 1470 351.709960938 1504 c 128,-1,10
 407.595703125 1538 407.595703125 1538 458.595703125 1538 c 0,11,12
 538.595703125 1538 538.595703125 1538 581.438476562 1486.5 c 128,-1,13
 624.28125 1435 624.28125 1435 632.977539062 1351 c 1,14,-1
 545.377929688 1202 l 1,15,-1
 529.735351562 1179 l 1,16,-1
 518.319335938 1189 l 1,17,18
 517.328125 1208 517.328125 1208 519.788085938 1233 c 128,-1,19
 522.248046875 1258 522.248046875 1258 510.474609375 1291 c 0,20,21
 485.02734375 1345 485.02734375 1345 439.02734375 1345 c 0,22,23
 399.02734375 1345 399.02734375 1345 363.107421875 1295 c 128,-1,24
 327.188476562 1245 327.188476562 1245 292.20703125 1122 c 128,-1,25
 257.225585938 999 257.225585938 999 222.22265625 778 c 0,26,27
 172.015625 461 172.015625 461 178.653320312 313.5 c 128,-1,28
 185.291992188 166 185.291992188 166 235.291992188 166 c 0,29,30
 277.291992188 166 277.291992188 166 310.577148438 212 c 1,31,-1
 367.75390625 573 l 1,32,-1
 287.75390625 573 l 1,33,-1
 318.005859375 764 l 1,34,-1
 542.005859375 764 l 1,35,-1
 440.323242188 122 l 1,36,37
 378.810546875 43 378.810546875 43 320.504882812 9.5 c 128,-1,38
 262.19921875 -24 262.19921875 -24 209.19921875 -24 c 0,0,1
EndSplineSet
EndChar

StartChar: H
Encoding: 72 72 74
Width: 512
VWidth: 2441
GlyphClass: 2
Flags: HW
AnchorPoint: "Anchor-4" 592.688 762 basechar 0
AnchorPoint: "Anchor-2" 472 0 basechar 0
AnchorPoint: "Anchor-0" 542.902 1521 basechar 0
LayerCount: 2
Fore
SplineSet
189.90234375 1521 m 1,0,-1
 364.90234375 1521 l 1,1,-1
 362.209960938 1504 l 1,2,3
 352.993164062 1490 352.993164062 1490 347.799804688 1473 c 128,-1,4
 342.607421875 1456 342.607421875 1456 335.956054688 1414 c 2,5,-1
 253.912109375 896 l 1,6,-1
 393.912109375 896 l 1,7,-1
 492.90234375 1521 l 1,8,-1
 669.90234375 1521 l 1,9,-1
 667.209960938 1504 l 1,10,11
 657.993164062 1490 657.993164062 1490 653.299804688 1473 c 128,-1,12
 648.607421875 1456 648.607421875 1456 641.956054688 1414 c 2,13,-1
 418 0 l 1,14,-1
 252 0 l 1,15,-1
 363.02734375 701 l 1,16,-1
 223.02734375 701 l 1,17,-1
 112 0 l 1,18,-1
 -51 0 l 1,19,-1
 189.90234375 1521 l 1,0,-1
EndSplineSet
EndChar

StartChar: Hbar
Encoding: 294 294 75
Width: 512
VWidth: 2441
GlyphClass: 2
Flags: HW
AnchorPoint: "Anchor-4" 521.688 762 basechar 0
AnchorPoint: "Anchor-2" 401 0 basechar 0
AnchorPoint: "Anchor-0" 491.902 1521 basechar 0
LayerCount: 2
Fore
SplineSet
225.912109375 896 m 1,0,-1
 348.912109375 896 l 1,1,-1
 395.953125 1193 l 1,2,-1
 272.953125 1193 l 1,3,-1
 225.912109375 896 l 1,0,-1
95.953125 1193 m 1,4,-1
 126.204101562 1384 l 1,5,-1
 160.204101562 1384 l 1,6,-1
 181.90234375 1521 l 1,7,-1
 335.90234375 1521 l 1,8,-1
 333.209960938 1504 l 1,9,10
 324.993164062 1490 324.993164062 1490 319.799804688 1473 c 128,-1,11
 314.607421875 1456 314.607421875 1456 307.956054688 1414 c 2,12,-1
 303.204101562 1384 l 1,13,-1
 426.204101562 1384 l 1,14,-1
 447.90234375 1521 l 1,15,-1
 603.90234375 1521 l 1,16,-1
 601.209960938 1504 l 1,17,18
 592.993164062 1490 592.993164062 1490 588.299804688 1473 c 128,-1,19
 583.607421875 1456 583.607421875 1456 576.956054688 1414 c 2,20,-1
 572.204101562 1384 l 1,21,-1
 606.204101562 1384 l 1,22,-1
 575.953125 1193 l 1,23,-1
 541.953125 1193 l 1,24,-1
 353 0 l 1,25,-1
 207 0 l 1,26,-1
 318.02734375 701 l 1,27,-1
 195.02734375 701 l 1,28,-1
 84 0 l 1,29,-1
 -59 0 l 1,30,-1
 129.953125 1193 l 1,31,-1
 95.953125 1193 l 1,4,-1
EndSplineSet
EndChar

StartChar: I
Encoding: 73 73 79
Width: 512
VWidth: 2441
GlyphClass: 2
Flags: HW
AnchorPoint: "Anchor-3" 338 0 basechar 0
AnchorPoint: "Anchor-2" 214 0 basechar 0
AnchorPoint: "Anchor-0" 439.902 1521 basechar 0
LayerCount: 2
Fore
SplineSet
-19 0 m 1,0,-1
 11.568359375 193 l 1,1,-1
 143.568359375 193 l 1,2,-1
 322.54296875 1323 l 1,3,-1
 194.54296875 1323 l 1,4,-1
 225.90234375 1521 l 1,5,-1
 656.90234375 1521 l 1,6,-1
 625.54296875 1323 l 1,7,-1
 495.54296875 1323 l 1,8,-1
 316.250976562 191 l 1,9,-1
 453.250976562 191 l 1,10,-1
 423 0 l 1,11,-1
 -19 0 l 1,0,-1
EndSplineSet
EndChar

StartChar: J
Encoding: 74 74 94
Width: 512
VWidth: 2441
GlyphClass: 2
Flags: HW
AnchorPoint: "Anchor-2" 172 0 basechar 0
AnchorPoint: "Anchor-0" 501.902 1521 basechar 0
LayerCount: 2
Fore
SplineSet
106.723632812 -27 m 0,0,1
 57.7236328125 -27 57.7236328125 -27 17.6337890625 4 c 128,-1,2
 -22.45703125 35 -22.45703125 35 -42.478515625 98 c 1,3,-1
 33.515625 300 l 1,4,-1
 43.31640625 324 l 1,5,-1
 55.5244140625 319 l 1,6,7
 63.83203125 302 63.83203125 302 59.2392578125 273 c 128,-1,8
 54.6455078125 244 54.6455078125 244 70.2607421875 210 c 1,9,10
 93.400390625 173 93.400390625 173 130.400390625 173 c 0,11,12
 161.400390625 173 161.400390625 173 193.645507812 244 c 128,-1,13
 225.890625 315 225.890625 315 256.458984375 508 c 2,14,-1
 386.334960938 1328 l 1,15,-1
 255.334960938 1328 l 1,16,-1
 285.90234375 1521 l 1,17,-1
 662.90234375 1521 l 1,18,-1
 632.334960938 1328 l 1,19,-1
 543.334960938 1328 l 1,20,-1
 413.776367188 510 l 2,21,22
 380.990234375 303 380.990234375 303 336.879882812 185.5 c 128,-1,23
 292.770507812 68 292.770507812 68 235.247070312 20.5 c 128,-1,24
 177.723632812 -27 177.723632812 -27 106.723632812 -27 c 0,0,1
EndSplineSet
EndChar

StartChar: K
Encoding: 75 75 96
Width: 512
VWidth: 2441
GlyphClass: 1
Flags: HW
LayerCount: 2
Fore
SplineSet
225.840820312 643 m 1,0,-1
 189.329101562 564 l 1,1,-1
 104 0 l 1,2,-1
 -51 0 l 1,3,-1
 189.90234375 1521 l 1,4,-1
 364.90234375 1521 l 1,5,-1
 362.209960938 1504 l 1,6,7
 346.993164062 1490 346.993164062 1490 340.799804688 1473 c 128,-1,8
 334.607421875 1456 334.607421875 1456 327.956054688 1414 c 2,9,-1
 252.72265625 939 l 1,10,-1
 502.803710938 1533 l 1,11,12
 528.01171875 1528 528.01171875 1528 564.95703125 1524.5 c 128,-1,13
 601.90234375 1521 601.90234375 1521 624.90234375 1521 c 2,14,-1
 651.90234375 1521 l 1,15,-1
 350.775390625 832 l 1,16,-1
 429 0 l 1,17,-1
 267.099609375 -12 l 1,18,-1
 225.840820312 643 l 1,0,-1
EndSplineSet
EndChar

StartChar: uni0198
Encoding: 408 408 98
Width: 512
VWidth: 2441
GlyphClass: 1
Flags: HW
LayerCount: 2
Fore
SplineSet
190.90234375 1521 m 1,0,-1
 366.90234375 1521 l 1,1,-1
 364.209960938 1504 l 1,2,3
 348.993164062 1490 348.993164062 1490 342.799804688 1473 c 128,-1,4
 336.607421875 1456 336.607421875 1456 329.956054688 1414 c 2,5,-1
 260.583007812 976 l 1,6,7
 347.328125 1208 347.328125 1208 407.754882812 1327.5 c 128,-1,8
 468.182617188 1447 468.182617188 1447 516.333984375 1489 c 128,-1,9
 564.486328125 1531 564.486328125 1531 614.486328125 1531 c 0,10,11
 625.486328125 1531 625.486328125 1531 640.590820312 1528.5 c 128,-1,12
 655.694335938 1526 655.694335938 1526 662.90234375 1521 c 1,13,-1
 625.365234375 1284 l 1,14,-1
 619.365234375 1284 l 1,15,16
 615.583007812 1298 615.583007812 1298 609.666992188 1308 c 128,-1,17
 603.750976562 1318 603.750976562 1318 585.225585938 1321 c 2,18,-1
 579.225585938 1321 l 2,19,20
 566.225585938 1321 566.225585938 1321 542.340820312 1287 c 128,-1,21
 518.456054688 1253 518.456054688 1253 471.1171875 1153 c 128,-1,22
 423.779296875 1053 423.779296875 1053 340.735351562 857 c 1,23,-1
 430 0 l 1,24,-1
 268.099609375 -12 l 1,25,-1
 225.971679688 587 l 1,26,27
 205.685546875 541 205.685546875 541 183.450195312 489 c 1,28,-1
 106 0 l 1,29,-1
 -50 0 l 1,30,-1
 190.90234375 1521 l 1,0,-1
EndSplineSet
EndChar

StartChar: L
Encoding: 76 76 99
Width: 512
VWidth: 2441
GlyphClass: 2
Flags: HW
AnchorPoint: "Anchor-4" 154.688 762 basechar 0
AnchorPoint: "Anchor-2" 201 0 basechar 0
AnchorPoint: "Anchor-1" 294.757 1116 basechar 0
AnchorPoint: "Anchor-0" 383.902 1521 basechar 0
LayerCount: 2
Fore
SplineSet
205.90234375 1521 m 1,0,-1
 396.90234375 1521 l 1,1,-1
 394.209960938 1504 l 1,2,3
 377.993164062 1490 377.993164062 1490 372.299804688 1473 c 128,-1,4
 366.607421875 1456 366.607421875 1456 359.956054688 1414 c 2,5,-1
 167.360351562 198 l 1,6,-1
 476.360351562 198 l 1,7,-1
 445 0 l 1,8,-1
 -35 0 l 1,9,-1
 205.90234375 1521 l 1,0,-1
EndSplineSet
EndChar

StartChar: uni01C7
Encoding: 455 455 100
Width: 512
VWidth: 2367
GlyphClass: 1
Flags: HW
LayerCount: 2
Fore
SplineSet
-23.8359375 121 m 1,0,-1
 197.90234375 1521 l 1,1,-1
 368.90234375 1521 l 1,2,3
 366.52734375 1506 366.52734375 1506 361.893554688 1502 c 128,-1,4
 357.259765625 1498 357.259765625 1498 351.833984375 1489 c 128,-1,5
 346.409179688 1480 346.409179688 1480 340.70703125 1444 c 2,6,-1
 159.198242188 298 l 1,7,-1
 263.198242188 298 l 1,8,-1
 235.1640625 121 l 1,9,-1
 -23.8359375 121 l 1,0,-1
199.037109375 -246 m 0,10,11
 85.037109375 -246 85.037109375 -246 22.6083984375 -154 c 1,12,-1
 122.158203125 1 l 1,13,14
 132.782226562 -14 132.782226562 -14 128.015625 -22 c 128,-1,15
 123.248046875 -30 123.248046875 -30 137.60546875 -53 c 0,16,17
 146.86328125 -64 146.86328125 -64 160.17578125 -71.5 c 128,-1,18
 173.487304688 -79 173.487304688 -79 199.487304688 -79 c 0,19,20
 224.487304688 -79 224.487304688 -79 244.422851562 -51 c 128,-1,21
 264.357421875 -23 264.357421875 -23 283.89453125 53 c 128,-1,22
 303.431640625 129 303.431640625 129 326.239257812 273 c 2,23,-1
 495.709960938 1343 l 1,24,-1
 418.709960938 1343 l 1,25,-1
 446.90234375 1521 l 1,26,-1
 677.90234375 1521 l 1,27,-1
 480.555664062 275 l 2,28,29
 478.228515625 259.313476562 478.228515625 259.313476562 475.828125 244.159179688 c 0,0,0
 447.625976562 66.09765625 447.625976562 66.09765625 409.40234375 -38.5 c 128,-1,30
 367.92578125 -152 367.92578125 -152 314.481445312 -199 c 128,-1,31
 261.037109375 -246 261.037109375 -246 199.037109375 -246 c 0,10,11
EndSplineSet
EndChar

StartChar: Lcaron
Encoding: 317 317 102
Width: 512
VWidth: 2441
GlyphClass: 2
Flags: HW
AnchorPoint: "Anchor-4" 154.688 762 basechar 0
AnchorPoint: "Anchor-2" 201 0 basechar 0
AnchorPoint: "Anchor-1" 294.757 1116 basechar 0
AnchorPoint: "Anchor-0" 383.902 1521 basechar 0
LayerCount: 2
Fore
SplineSet
205.90234375 1521 m 1,0,-1
 396.90234375 1521 l 1,1,-1
 394.209960938 1504 l 1,2,3
 377.993164062 1490 377.993164062 1490 372.299804688 1473 c 128,-1,4
 366.607421875 1456 366.607421875 1456 359.956054688 1414 c 2,5,-1
 167.360351562 198 l 1,6,-1
 476.360351562 198 l 1,7,-1
 445 0 l 1,8,-1
 -35 0 l 1,9,-1
 205.90234375 1521 l 1,0,-1
474.126953125 1011 m 1,10,-1
 400.104492188 1074 l 1,11,12
 444.182617188 1125 444.182617188 1125 473.338867188 1176.5 c 128,-1,13
 502.49609375 1228 502.49609375 1228 509.1484375 1270 c 0,14,15
 515.325195312 1309 515.325195312 1309 495.91796875 1338 c 128,-1,16
 476.51171875 1367 476.51171875 1367 485.064453125 1421 c 0,17,18
 493.141601562 1472 493.141601562 1472 526.47265625 1502.5 c 128,-1,19
 559.803710938 1533 559.803710938 1533 595.803710938 1533 c 128,-1,20
 631.803710938 1533 631.803710938 1533 654.814453125 1501.5 c 128,-1,21
 677.825195312 1470 677.825195312 1470 666.73828125 1400 c 0,22,23
 651.69140625 1305 651.69140625 1305 602.169921875 1207 c 128,-1,24
 552.6484375 1109 552.6484375 1109 474.126953125 1011 c 1,10,-1
EndSplineSet
EndChar

StartChar: uni01C8
Encoding: 456 456 106
Width: 512
VWidth: 2362
GlyphClass: 1
Flags: HW
LayerCount: 2
Fore
SplineSet
159.037109375 -246 m 0,0,1
 117.037109375 -246 117.037109375 -246 79.0517578125 -217.5 c 128,-1,2
 41.0654296875 -189 41.0654296875 -189 21.509765625 -142 c 1,3,-1
 116.018554688 38 l 1,4,5
 127.276367188 27 127.276367188 27 119.87109375 5.5 c 128,-1,6
 112.465820312 -16 112.465820312 -16 137.555664062 -47 c 0,7,8
 148.813476562 -58 148.813476562 -58 157.91796875 -60.5 c 128,-1,9
 167.021484375 -63 167.021484375 -63 184.021484375 -63 c 0,10,11
 224.021484375 -63 224.021484375 -63 257.391601562 -7 c 128,-1,12
 290.760742188 49 290.760742188 49 312.776367188 188 c 2,13,-1
 442.809570312 1009 l 1,14,-1
 327.809570312 1009 l 1,15,-1
 354.418945312 1177 l 1,16,-1
 602.418945312 1177 l 1,17,-1
 445.202148438 197 l 2,18,19
 407.665039062 -40 407.665039062 -40 334.350585938 -143 c 128,-1,20
 261.037109375 -246 261.037109375 -246 159.037109375 -246 c 0,0,1
-15.8759765625 146 m 1,21,-1
 203.01171875 1528 l 1,22,-1
 361.01171875 1528 l 1,23,24
 357.52734375 1506 357.52734375 1506 351.888671875 1492.5 c 128,-1,25
 346.250976562 1479 346.250976562 1479 341.657226562 1450 c 2,26,-1
 163.633789062 326 l 1,27,-1
 268.633789062 326 l 1,28,-1
 240.124023438 146 l 1,29,-1
 -15.8759765625 146 l 1,21,-1
553.461914062 1373 m 0,30,31
 509.461914062 1373 509.461914062 1373 483.688476562 1406 c 128,-1,32
 457.915039062 1439 457.915039062 1439 464.883789062 1483 c 0,33,34
 472.328125 1530 472.328125 1530 508.396484375 1562 c 128,-1,35
 544.46484375 1594 544.46484375 1594 588.46484375 1594 c 0,36,37
 630.46484375 1594 630.46484375 1594 656.896484375 1562 c 128,-1,38
 683.328125 1530 683.328125 1530 675.883789062 1483 c 0,39,40
 668.915039062 1439 668.915039062 1439 632.188476562 1406 c 128,-1,41
 595.461914062 1373 595.461914062 1373 553.461914062 1373 c 0,30,31
EndSplineSet
EndChar

StartChar: Lslash
Encoding: 321 321 108
Width: 512
VWidth: 2441
GlyphClass: 1
Flags: HW
LayerCount: 2
Fore
SplineSet
-32 0 m 1,0,-1
 54.63671875 547 l 1,1,-1
 3.7763671875 510 l 1,2,-1
 38.9375 732 l 1,3,-1
 90.1142578125 771 l 1,4,-1
 208.90234375 1521 l 1,5,-1
 378.90234375 1521 l 2,6,7
 387.90234375 1521 387.90234375 1521 387.110351562 1516 c 0,8,9
 385.52734375 1506 385.52734375 1506 373.833984375 1489 c 128,-1,10
 362.141601562 1472 362.141601562 1472 354.756835938 1438 c 2,11,-1
 265.745117188 876 l 1,12,-1
 425.692382812 983 l 2,13,14
 444.592773438 995 444.592773438 995 457.809570312 1009 c 1,15,-1
 419.48046875 767 l 1,16,-1
 233.474609375 647 l 1,17,-1
 160.360351562 198 l 1,18,-1
 434.360351562 198 l 1,19,-1
 403 0 l 1,20,-1
 -32 0 l 1,0,-1
EndSplineSet
EndChar

StartChar: M
Encoding: 77 77 109
Width: 512
VWidth: 2441
GlyphClass: 2
Flags: HW
AnchorPoint: "Anchor-2" 179 0 basechar 0
AnchorPoint: "Anchor-0" 419.902 1521 basechar 0
LayerCount: 2
Fore
SplineSet
-61 0 m 1,0,-1
 179.90234375 1521 l 1,1,-1
 299.90234375 1521 l 1,2,-1
 332.158203125 967 l 1,3,-1
 541.219726562 1523 l 1,4,-1
 660.219726562 1523 l 1,5,-1
 419 0 l 1,6,-1
 287 0 l 1,7,-1
 455.135742188 1030 l 1,8,-1
 276.329101562 564 l 1,9,-1
 249.329101562 564 l 1,10,-1
 229.02734375 1023 l 1,11,-1
 71 0 l 1,12,-1
 -61 0 l 1,0,-1
EndSplineSet
EndChar

StartChar: N
Encoding: 78 78 111
Width: 512
VWidth: 2441
GlyphClass: 2
Flags: HW
AnchorPoint: "Anchor-2" 179 0 basechar 0
AnchorPoint: "Anchor-0" 419.902 1521 basechar 0
LayerCount: 2
Fore
SplineSet
188.90234375 1521 m 1,0,-1
 325.90234375 1521 l 1,1,-1
 372.306640625 627 l 1,2,-1
 513.90234375 1521 l 1,3,-1
 668.90234375 1521 l 1,4,-1
 666.209960938 1504 l 1,5,6
 650.993164062 1490 650.993164062 1490 644.799804688 1473 c 128,-1,7
 638.607421875 1456 638.607421875 1456 631.956054688 1414 c 2,8,-1
 408 0 l 1,9,-1
 292 0 l 1,10,-1
 237.366210938 962 l 1,11,-1
 85 0 l 1,12,-1
 -52 0 l 1,13,-1
 188.90234375 1521 l 1,0,-1
EndSplineSet
EndChar

StartChar: Eng
Encoding: 330 330 117
Width: 512
VWidth: 2344
GlyphClass: 2
Flags: HW
AnchorPoint: "Anchor-2" 204.184 159 basechar 0
AnchorPoint: "Anchor-0" 419.902 1521 basechar 0
LayerCount: 2
Fore
SplineSet
520.90234375 1521 m 1,0,-1
 660.90234375 1521 l 1,1,2
 658.84375 1508 658.84375 1508 653.6015625 1497 c 128,-1,3
 648.359375 1486 648.359375 1486 644.557617188 1462 c 2,4,-1
 438.18359375 159 l 2,5,6
 412.524414062 -3 412.524414062 -3 373.5078125 -91.5 c 128,-1,7
 334.491210938 -180 334.491210938 -180 283.263671875 -213 c 128,-1,8
 232.037109375 -246 232.037109375 -246 178.037109375 -246 c 0,9,10
 151.037109375 -246 151.037109375 -246 126.62109375 -236 c 128,-1,11
 102.205078125 -226 102.205078125 -226 82.3232421875 -200 c 1,12,-1
 155.407226562 -29 l 1,13,14
 168.981445312 -38 168.981445312 -38 169.997070312 -60 c 128,-1,15
 171.012695312 -82 171.012695312 -82 206.012695312 -82 c 0,16,17
 243.012695312 -82 243.012695312 -82 264.0703125 -18.5 c 128,-1,18
 285.126953125 45 285.126953125 45 312.78515625 207 c 1,19,-1
 251.551757812 1020 l 1,20,-1
 115.18359375 159 l 1,21,-1
 -22.81640625 159 l 1,22,-1
 192.90234375 1521 l 1,23,-1
 303.90234375 1521 l 1,24,-1
 394.037109375 720 l 1,25,-1
 520.90234375 1521 l 1,0,-1
EndSplineSet
EndChar

StartChar: O
Encoding: 79 79 120
Width: 512
VWidth: 2441
GlyphClass: 2
Flags: HW
AnchorPoint: "Anchor-4" 291.688 762 basechar 0
AnchorPoint: "Anchor-3" 210.801 24 basechar 0
AnchorPoint: "Anchor-2" 171 0 basechar 0
AnchorPoint: "Anchor-1" 531.856 1426 basechar 0
AnchorPoint: "Anchor-0" 411.902 1521 basechar 0
LayerCount: 2
Fore
SplineSet
196.81640625 163 m 128,-1,1
 226.81640625 163 226.81640625 163 254.181640625 209.5 c 128,-1,2
 281.546875 256 281.546875 256 311.161132812 383 c 128,-1,3
 340.776367188 510 340.776367188 510 379.10546875 752 c 0,4,5
 415.850585938 984 415.850585938 984 426.385742188 1110.5 c 128,-1,6
 436.921875 1237 436.921875 1237 425.078125 1288.5 c 128,-1,7
 413.235351562 1340 413.235351562 1340 383.235351562 1340 c 128,-1,8
 353.235351562 1340 353.235351562 1340 323.578125 1288.5 c 128,-1,9
 293.921875 1237 293.921875 1237 264.806640625 1110 c 128,-1,10
 235.692382812 983 235.692382812 983 199.10546875 752 c 0,11,12
 160.776367188 510 160.776367188 510 149.661132812 383 c 128,-1,13
 138.546875 256 138.546875 256 152.681640625 209.5 c 128,-1,0
 166.81640625 163 166.81640625 163 196.81640625 163 c 128,-1,1
166.723632812 -27 m 128,-1,15
 83.7236328125 -27 83.7236328125 -27 40.3349609375 40 c 128,-1,16
 -3.052734375 107 -3.052734375 107 -1.1279296875 277 c 128,-1,17
 0.7978515625 447 0.7978515625 447 49.10546875 752 c 0,18,19
 96.3037109375 1050 96.3037109375 1050 148.149414062 1219.5 c 128,-1,20
 199.99609375 1389 199.99609375 1389 265.241210938 1460 c 128,-1,21
 330.486328125 1531 330.486328125 1531 413.486328125 1531 c 128,-1,22
 496.486328125 1531 496.486328125 1531 538.741210938 1460 c 128,-1,23
 580.99609375 1389 580.99609375 1389 578.649414062 1219.5 c 128,-1,24
 576.303710938 1050 576.303710938 1050 529.10546875 752 c 0,25,26
 480.797851562 447 480.797851562 447 429.372070312 277 c 128,-1,27
 377.947265625 107 377.947265625 107 313.834960938 40 c 128,-1,14
 249.723632812 -27 249.723632812 -27 166.723632812 -27 c 128,-1,15
EndSplineSet
Substitution2: "Single Substitution lookup 29 subtable" ordmasculine
Substitution2: "'aalt' Access All Alternates in Latin lookup 0 subtable" ordmasculine
EndChar

StartChar: Oslash
Encoding: 216 216 148
Width: 512
VWidth: 2441
GlyphClass: 2
Flags: HW
AnchorPoint: "Anchor-4" 291.688 762 basechar 0
AnchorPoint: "Anchor-3" 210.801 24 basechar 0
AnchorPoint: "Anchor-2" 171 0 basechar 0
AnchorPoint: "Anchor-1" 531.856 1426 basechar 0
AnchorPoint: "Anchor-0" 411.902 1521 basechar 0
LayerCount: 2
Fore
SplineSet
196.81640625 163 m 0,0,1
 226.81640625 163 226.81640625 163 254.181640625 209.5 c 128,-1,2
 281.546875 256 281.546875 256 311.161132812 383 c 128,-1,3
 340.776367188 510 340.776367188 510 379.10546875 752 c 0,4,5
 399.6953125 882 399.6953125 882 412.583007812 976 c 1,6,-1
 147.913085938 252 l 1,7,8
 149.834960938 201 149.834960938 201 162.826171875 182 c 128,-1,9
 175.81640625 163 175.81640625 163 196.81640625 163 c 0,0,1
199.10546875 752 m 0,10,11
 182.158203125 645 182.158203125 645 171.329101562 564 c 1,12,-1
 429.1484375 1270 l 1,13,14
 421.235351562 1340 421.235351562 1340 383.235351562 1340 c 0,15,16
 353.235351562 1340 353.235351562 1340 323.578125 1288.5 c 128,-1,17
 293.921875 1237 293.921875 1237 264.885742188 1110.5 c 128,-1,18
 235.850585938 984 235.850585938 984 199.10546875 752 c 0,10,11
16.6865234375 -103 m 1,19,-1
 -59.978515625 -63 l 1,20,-1
 10.9560546875 126 l 1,21,22
 -7.10546875 214 -7.10546875 214 2.3896484375 365.5 c 128,-1,23
 11.884765625 517 11.884765625 517 49.10546875 752 c 0,24,25
 96.3037109375 1050 96.3037109375 1050 148.149414062 1219.5 c 128,-1,26
 199.99609375 1389 199.99609375 1389 265.241210938 1460 c 128,-1,27
 330.486328125 1531 330.486328125 1531 413.486328125 1531 c 0,28,29
 474.486328125 1531 474.486328125 1531 510.943359375 1496 c 1,30,-1
 573.709960938 1665 l 1,31,-1
 647.741210938 1621 l 1,32,-1
 565.3125 1391 l 1,33,34
 585.375 1303 585.375 1303 576.404296875 1148.5 c 128,-1,35
 567.434570312 994 567.434570312 994 529.10546875 752 c 0,36,37
 480.797851562 447 480.797851562 447 429.372070312 277 c 128,-1,38
 377.947265625 107 377.947265625 107 313.834960938 40 c 128,-1,39
 249.723632812 -27 249.723632812 -27 166.723632812 -27 c 0,40,41
 98.7236328125 -27 98.7236328125 -27 60.2177734375 14 c 1,42,-1
 16.6865234375 -103 l 1,19,-1
EndSplineSet
EndChar

StartChar: OE
Encoding: 338 338 154
Width: 512
VWidth: 2441
GlyphClass: 1
Flags: HW
LayerCount: 2
Fore
SplineSet
130.92578125 170 m 0,0,1
 163.92578125 170 163.92578125 170 196.108398438 329 c 1,2,-1
 329.151367188 1169 l 2,3,4
 343.46484375 1272 343.46484375 1272 339.171875 1317.5 c 128,-1,5
 334.877929688 1363 334.877929688 1363 315.877929688 1363 c 0,6,7
 299.877929688 1363 299.877929688 1363 282.012695312 1316.5 c 128,-1,8
 264.1484375 1270 264.1484375 1270 237.137695312 1140.5 c 128,-1,9
 218.65625 1051.89453125 218.65625 1051.89453125 195.91015625 908.282226562 c 0,0,0
 185.412109375 842 185.412109375 842 174.005859375 764 c 0,10,11
 123.005859375 442 123.005859375 442 111.465820312 306 c 128,-1,12
 99.92578125 170 99.92578125 170 130.92578125 170 c 0,0,1
64.3076171875 -17 m 0,13,14
 31.3076171875 -17 31.3076171875 -17 9.6923828125 17 c 128,-1,15
 -11.9228515625 51 -11.9228515625 51 -19.380859375 136.5 c 128,-1,16
 -26.8388671875 222 -26.8388671875 222 -14.1845703125 374.5 c 128,-1,17
 -1.53125 527 -1.53125 527 35.6884765625 762 c 0,18,19
 82.8876953125 1060 82.8876953125 1060 128.3125 1230 c 128,-1,20
 173.73828125 1400 173.73828125 1400 219.5625 1471.5 c 128,-1,21
 265.38671875 1543 265.38671875 1543 311.38671875 1543 c 0,22,23
 361.38671875 1543 361.38671875 1543 377.716796875 1463 c 1,24,-1
 387.219726562 1523 l 1,25,-1
 636.219726562 1523 l 1,26,-1
 605.651367188 1330 l 1,27,-1
 491.651367188 1330 l 1,28,-1
 422.279296875 892 l 1,29,-1
 519.279296875 892 l 1,30,-1
 488.235351562 696 l 1,31,-1
 391.235351562 696 l 1,32,-1
 311.250976562 191 l 1,33,-1
 423.250976562 191 l 1,34,-1
 393 0 l 1,35,-1
 144 0 l 1,36,-1
 152.552734375 54 l 1,37,38
 136.375976562 15 136.375976562 15 112.841796875 -1 c 128,-1,39
 89.3076171875 -17 89.3076171875 -17 64.3076171875 -17 c 0,13,14
EndSplineSet
EndChar

StartChar: P
Encoding: 80 80 155
Width: 512
VWidth: 2441
GlyphClass: 2
Flags: HW
AnchorPoint: "Anchor-2" 33 0 basechar 0
AnchorPoint: "Anchor-0" 429.902 1521 basechar 0
LayerCount: 2
Fore
SplineSet
249.666992188 825 m 1,0,-1
 308.666992188 825 l 2,1,2
 349.666992188 825 349.666992188 825 388.120117188 891 c 128,-1,3
 426.57421875 957 426.57421875 957 445.104492188 1074 c 0,4,5
 466.486328125 1209 466.486328125 1209 447.911132812 1268.5 c 128,-1,6
 429.334960938 1328 429.334960938 1328 388.334960938 1328 c 2,7,-1
 329.334960938 1328 l 1,8,-1
 249.666992188 825 l 1,0,-1
-44 0 m 1,9,-1
 196.90234375 1521 l 1,10,-1
 425.90234375 1521 l 2,11,12
 548.90234375 1521 548.90234375 1521 596.114257812 1415 c 128,-1,13
 643.325195312 1309 643.325195312 1309 606.896484375 1079 c 0,14,15
 573.635742188 869 573.635742188 869 483.3671875 750.5 c 128,-1,16
 393.098632812 632 393.098632812 632 291.098632812 632 c 2,17,-1
 219.098632812 632 l 1,18,-1
 119 0 l 1,19,-1
 -44 0 l 1,9,-1
EndSplineSet
EndChar

StartChar: Thorn
Encoding: 222 222 156
Width: 512
VWidth: 2441
GlyphClass: 1
Flags: HW
LayerCount: 2
Fore
SplineSet
194.745117188 554 m 1,0,-1
 266.745117188 554 l 2,1,2
 320.745117188 554 320.745117188 554 353.435546875 621.5 c 128,-1,3
 386.126953125 689 386.126953125 689 403.866210938 801 c 128,-1,4
 421.60546875 913 421.60546875 913 408.850585938 984 c 128,-1,5
 396.095703125 1055 396.095703125 1055 338.095703125 1055 c 2,6,-1
 274.095703125 1055 l 1,7,-1
 194.745117188 554 l 1,0,-1
-48 0 m 1,8,-1
 192.90234375 1521 l 1,9,-1
 359.90234375 1521 l 2,10,11
 361.5859375 1519 361.5859375 1519 360.793945312 1514 c 0,12,13
 359.685546875 1507 359.685546875 1507 350.151367188 1491 c 128,-1,14
 340.6171875 1475 340.6171875 1475 337.1328125 1453 c 2,15,-1
 305.772460938 1255 l 1,16,-1
 392.772460938 1255 l 2,17,18
 504.772460938 1255 504.772460938 1255 548.291015625 1132 c 128,-1,19
 591.809570312 1009 591.809570312 1009 559.658203125 806 c 0,20,21
 526.080078125 594 526.080078125 594 442.524414062 480 c 128,-1,22
 358.96875 366 358.96875 366 236.96875 366 c 2,23,-1
 164.96875 366 l 1,24,-1
 107 0 l 1,25,-1
 -48 0 l 1,8,-1
EndSplineSet
EndChar

StartChar: Q
Encoding: 81 81 157
Width: 512
VWidth: 2391
GlyphClass: 2
Flags: HW
AnchorPoint: "Anchor-2" 184.146 83 basechar 0
AnchorPoint: "Anchor-0" 412.062 1522 basechar 0
LayerCount: 2
Fore
SplineSet
213.329101562 242 m 0,0,1
 257.329101562 242 257.329101562 242 296.518554688 360 c 128,-1,2
 335.708007812 478 335.708007812 478 380.688476562 762 c 0,3,4
 417.592773438 995 417.592773438 995 427.603515625 1124.5 c 128,-1,5
 437.614257812 1254 437.614257812 1254 425.612304688 1304.5 c 128,-1,6
 413.611328125 1355 413.611328125 1355 385.611328125 1355 c 128,-1,7
 357.611328125 1355 357.611328125 1355 329.9296875 1306.5 c 128,-1,8
 302.248046875 1258 302.248046875 1258 273.533203125 1143 c 128,-1,9
 244.819335938 1028 244.819335938 1028 213.458984375 830 c 0,10,11
 178.297851562 608 178.297851562 608 168.287109375 478.5 c 128,-1,12
 158.276367188 349 158.276367188 349 169.802734375 295.5 c 128,-1,13
 181.329101562 242 181.329101562 242 213.329101562 242 c 0,0,1
291.196289062 -245 m 1,14,15
 279.520507812 -246.005859375 279.520507812 -246.005859375 268.57421875 -246.005859375 c 0,16,17
 181.607421875 -246.005859375 181.607421875 -246.005859375 140.594726562 -182.5 c 0,18,19
 94.4189453125 -111 94.4189453125 -111 122.611328125 67 c 1,20,21
 68.046875 95 68.046875 95 39.083984375 171 c 128,-1,22
 10.12109375 247 10.12109375 247 13.220703125 396 c 128,-1,23
 16.3193359375 545 16.3193359375 545 55.916015625 795 c 0,24,25
 92.501953125 1026 92.501953125 1026 135.047851562 1171.5 c 128,-1,26
 177.592773438 1317 177.592773438 1317 224.18359375 1396.5 c 128,-1,27
 270.775390625 1476 270.775390625 1476 319.185546875 1507 c 128,-1,28
 367.595703125 1538 367.595703125 1538 414.595703125 1538 c 0,29,30
 463.595703125 1538 463.595703125 1538 501.685546875 1507 c 128,-1,31
 539.775390625 1476 539.775390625 1476 560.68359375 1396.5 c 128,-1,32
 581.592773438 1317 581.592773438 1317 577.206054688 1172.5 c 128,-1,33
 572.819335938 1028 572.819335938 1028 536.866210938 801 c 0,34,35
 497.111328125 550 497.111328125 550 455.061523438 395 c 128,-1,36
 413.012695312 240 413.012695312 240 363.474609375 164 c 128,-1,37
 313.9375 88 313.9375 88 253.611328125 67 c 1,38,39
 245.416015625 -10 245.416015625 -10 254.134765625 -46.5 c 128,-1,40
 262.854492188 -83 262.854492188 -83 299.854492188 -83 c 2,41,-1
 362.646484375 -78 l 1,42,-1
 334.196289062 -245 l 1,43,-1
 291.196289062 -245 l 1,14,15
EndSplineSet
EndChar

StartChar: R
Encoding: 82 82 158
Width: 512
VWidth: 2441
GlyphClass: 2
Flags: HW
AnchorPoint: "Anchor-2" 194 0 basechar 0
AnchorPoint: "Anchor-0" 434.902 1521 basechar 0
LayerCount: 2
Fore
SplineSet
259.458984375 830 m 1,0,-1
 314.458984375 830 l 2,1,2
 349.458984375 830 349.458984375 830 381.908203125 886.5 c 128,-1,3
 414.356445312 943 414.356445312 943 436.688476562 1084 c 0,4,5
 459.1796875 1226 459.1796875 1226 443.256835938 1277 c 128,-1,6
 427.334960938 1328 427.334960938 1328 393.334960938 1328 c 2,7,-1
 338.334960938 1328 l 1,8,-1
 259.458984375 830 l 1,0,-1
-34 0 m 1,9,-1
 206.90234375 1521 l 1,10,-1
 409.90234375 1521 l 2,11,12
 665.90234375 1521 665.90234375 1521 596.688476562 1084 c 0,13,14
 567.229492188 898 567.229492188 898 523.237304688 806.5 c 128,-1,15
 479.245117188 715 479.245117188 715 409.750976562 674 c 1,16,-1
 446 0 l 1,17,-1
 294 0 l 1,18,-1
 262.950195312 650 l 1,19,-1
 230.950195312 650 l 1,20,-1
 128 0 l 1,21,-1
 -34 0 l 1,9,-1
EndSplineSet
EndChar

StartChar: S
Encoding: 83 83 166
Width: 512
VWidth: 2441
GlyphClass: 2
Flags: HW
AnchorPoint: "Anchor-2" 185 0 basechar 0
AnchorPoint: "Anchor-0" 440.902 1521 basechar 0
LayerCount: 2
Fore
SplineSet
172.19921875 -24 m 0,0,1
 92.19921875 -24 92.19921875 -24 44.42578125 9 c 128,-1,2
 -3.34765625 42 -3.34765625 42 -34.052734375 107 c 1,3,-1
 55.7421875 333 l 1,4,-1
 64.384765625 356 l 1,5,-1
 78.7509765625 352 l 1,6,7
 84.69921875 335.969726562 84.69921875 335.969726562 79.5361328125 303.375 c 0,8,9
 74.892578125 274.053710938 74.892578125 274.053710938 87.0126953125 240 c 1,10,11
 123.450195312 167 123.450195312 167 187.291992188 166 c 0,12,13
 239.291992188 166 239.291992188 166 276.190429688 228.5 c 128,-1,14
 313.08984375 291 313.08984375 291 331.145507812 405 c 0,15,16
 344.766601562 491 344.766601562 491 341.37890625 558 c 128,-1,17
 337.990234375 625 337.990234375 625 268.819335938 706 c 1,18,19
 187.440429688 792 187.440429688 792 162.729492188 898 c 128,-1,20
 138.017578125 1004 138.017578125 1004 161.142578125 1150 c 0,21,22
 192.185546875 1346 192.185546875 1346 269.548828125 1443 c 128,-1,23
 346.912109375 1540 346.912109375 1540 445.912109375 1540 c 0,24,25
 588.912109375 1540 588.912109375 1540 636.372070312 1404 c 1,26,-1
 563.6953125 1204 l 1,27,-1
 554.735351562 1179 l 1,28,-1
 542.051757812 1181 l 1,29,30
 533.744140625 1198 533.744140625 1198 538.154296875 1229 c 128,-1,31
 542.564453125 1260 542.564453125 1260 527.791015625 1293 c 0,32,33
 510.859375 1325 510.859375 1325 488.1015625 1336 c 128,-1,34
 465.34375 1347 465.34375 1347 441.34375 1347 c 0,35,36
 353.34375 1347 353.34375 1347 323.04296875 1162 c 0,37,38
 307.99609375 1067 307.99609375 1067 320.592773438 995 c 128,-1,39
 333.188476562 923 333.188476562 923 406.834960938 845 c 0,40,41
 480.005859375 764 480.005859375 764 498.216796875 658 c 128,-1,42
 516.427734375 552 516.427734375 552 496.947265625 429 c 0,43,44
 462.260742188 210 462.260742188 210 368.229492188 93 c 128,-1,45
 274.19921875 -24 274.19921875 -24 172.19921875 -24 c 0,0,1
EndSplineSet
EndChar

StartChar: uni1E9E
Encoding: 7838 7838 177
Width: 512
VWidth: 2441
GlyphClass: 1
Flags: HW
LayerCount: 2
Fore
SplineSet
233.990234375 -19 m 0,0,1
 172.990234375 -19 172.990234375 -19 135.276367188 27 c 1,2,-1
 185.577148438 212 l 1,3,4
 203.400390625 173 203.400390625 173 232.400390625 173 c 0,5,6
 269.400390625 173 269.400390625 173 295.645507812 244 c 128,-1,7
 321.890625 315 321.890625 315 345.490234375 464 c 0,8,9
 368.772460938 611 368.772460938 611 362.389648438 687.5 c 128,-1,10
 356.005859375 764 356.005859375 764 297.005859375 764 c 2,11,-1
 275.005859375 764 l 1,12,-1
 307.158203125 967 l 1,13,-1
 444.704101562 1223 l 1,14,15
 459.43359375 1316 459.43359375 1316 453.595703125 1377 c 128,-1,16
 447.756835938 1438 447.756835938 1438 401.756835938 1438 c 0,17,18
 362.756835938 1438 362.756835938 1438 335.436523438 1376 c 128,-1,19
 308.1171875 1314 308.1171875 1314 283.725585938 1160 c 2,20,-1
 100 0 l 1,21,-1
 -50 0 l 1,22,-1
 128.657226562 1128 l 2,23,24
 161.91796875 1338 161.91796875 1338 210.182617188 1447 c 128,-1,25
 258.446289062 1556 258.446289062 1556 317.543945312 1594.5 c 128,-1,26
 376.641601562 1633 376.641601562 1633 434.641601562 1633 c 0,27,28
 534.641601562 1633 534.641601562 1633 576.01171875 1528 c 128,-1,29
 617.380859375 1423 617.380859375 1423 580.319335938 1189 c 1,30,-1
 423.614257812 932 l 1,31,32
 499.645507812 888 499.645507812 888 515.34765625 763 c 128,-1,33
 531.048828125 638 531.048828125 638 500.005859375 442 c 0,34,35
 460.884765625 195 460.884765625 195 394.4375 88 c 128,-1,36
 327.990234375 -19 327.990234375 -19 233.990234375 -19 c 0,0,1
EndSplineSet
EndChar

StartChar: T
Encoding: 84 84 179
Width: 512
VWidth: 2441
GlyphClass: 2
Flags: HW
AnchorPoint: "Anchor-4" 288.688 762 basechar 0
AnchorPoint: "Anchor-2" 174 0 basechar 0
AnchorPoint: "Anchor-0" 414.902 1521 basechar 0
LayerCount: 2
Fore
SplineSet
90 0 m 1,0,-1
 300.651367188 1330 l 1,1,-1
 142.651367188 1330 l 1,2,-1
 173.219726562 1523 l 1,3,-1
 653.219726562 1523 l 1,4,-1
 622.651367188 1330 l 1,5,-1
 458.651367188 1330 l 1,6,-1
 248 0 l 1,7,-1
 90 0 l 1,0,-1
EndSplineSet
EndChar

StartChar: Tbar
Encoding: 358 358 180
Width: 512
VWidth: 2441
GlyphClass: 2
Flags: HW
AnchorPoint: "Anchor-4" 288.688 762 basechar 0
AnchorPoint: "Anchor-2" 174 0 basechar 0
AnchorPoint: "Anchor-0" 414.902 1521 basechar 0
LayerCount: 2
Fore
SplineSet
90 0 m 1,0,-1
 197.384765625 678 l 1,1,-1
 99.384765625 678 l 1,2,-1
 129.953125 871 l 1,3,-1
 227.953125 871 l 1,4,-1
 300.651367188 1330 l 1,5,-1
 142.651367188 1330 l 1,6,-1
 173.219726562 1523 l 1,7,-1
 653.219726562 1523 l 1,8,-1
 622.651367188 1330 l 1,9,-1
 458.651367188 1330 l 1,10,-1
 385.953125 871 l 1,11,-1
 483.953125 871 l 1,12,-1
 453.384765625 678 l 1,13,-1
 355.384765625 678 l 1,14,-1
 248 0 l 1,15,-1
 90 0 l 1,0,-1
EndSplineSet
EndChar

StartChar: U
Encoding: 85 85 186
Width: 512
VWidth: 2441
GlyphClass: 2
Flags: HW
AnchorPoint: "Anchor-3" 254.801 24 basechar 0
AnchorPoint: "Anchor-2" 192 0 basechar 0
AnchorPoint: "Anchor-1" 665.902 1521 basechar 0
AnchorPoint: "Anchor-0" 432.902 1521 basechar 0
LayerCount: 2
Fore
SplineSet
189.723632812 -27 m 0,0,1
 43.7236328125 -27 43.7236328125 -27 16.205078125 96 c 128,-1,2
 -11.3134765625 219 -11.3134765625 219 29.390625 476 c 2,3,-1
 194.90234375 1521 l 1,4,-1
 379.90234375 1521 l 1,5,-1
 377.209960938 1504 l 1,6,7
 361.993164062 1490 361.993164062 1490 355.299804688 1473 c 128,-1,8
 348.607421875 1456 348.607421875 1456 341.956054688 1414 c 2,9,-1
 192.916015625 473 l 2,10,11
 166.624023438 307 166.624023438 307 171.220703125 235 c 128,-1,12
 175.81640625 163 175.81640625 163 219.81640625 163 c 0,13,14
 265.81640625 163 265.81640625 163 293.803710938 245 c 128,-1,15
 321.791992188 327 321.791992188 327 346.024414062 480 c 2,16,-1
 510.90234375 1521 l 1,17,-1
 674.90234375 1521 l 1,18,-1
 510.658203125 484 l 2,19,20
 466.15234375 203 466.15234375 203 395.4375 88 c 128,-1,21
 324.723632812 -27 324.723632812 -27 189.723632812 -27 c 0,0,1
EndSplineSet
EndChar

StartChar: V
Encoding: 86 86 209
Width: 512
VWidth: 2441
GlyphClass: 2
Flags: HW
AnchorPoint: "Anchor-2" 167 0 basechar 0
AnchorPoint: "Anchor-0" 407.902 1521 basechar 0
LayerCount: 2
Fore
SplineSet
110.416015625 -10 m 1,0,-1
 170.219726562 1523 l 1,1,-1
 317.219726562 1523 l 1,2,-1
 259.151367188 525 l 1,3,-1
 505.90234375 1521 l 1,4,-1
 649.90234375 1521 l 1,5,-1
 227.416015625 -10 l 1,6,-1
 110.416015625 -10 l 1,0,-1
EndSplineSet
EndChar

StartChar: W
Encoding: 87 87 210
Width: 512
VWidth: 2441
GlyphClass: 2
Flags: HW
AnchorPoint: "Anchor-2" 151 0 basechar 0
AnchorPoint: "Anchor-0" 397.902 1521 basechar 0
LayerCount: 2
Fore
SplineSet
-1 0 m 1,0,-1
 149.90234375 1521 l 1,1,-1
 267.90234375 1521 l 1,2,-1
 170.068359375 676 l 1,3,-1
 332.225585938 1321 l 1,4,-1
 398.225585938 1321 l 1,5,-1
 357.750976562 674 l 1,6,-1
 517.90234375 1521 l 1,7,-1
 629.90234375 1521 l 1,8,-1
 299 0 l 1,9,-1
 225 0 l 1,10,-1
 276.22265625 778 l 1,11,-1
 77 0 l 1,12,-1
 -1 0 l 1,0,-1
EndSplineSet
EndChar

StartChar: X
Encoding: 88 88 215
Width: 512
VWidth: 2441
GlyphClass: 2
Flags: HW
AnchorPoint: "Anchor-2" 184 0 basechar 0
AnchorPoint: "Anchor-0" 424.902 1521 basechar 0
LayerCount: 2
Fore
SplineSet
-52 0 m 1,0,-1
 217.90625 776 l 1,1,-1
 193.219726562 1523 l 1,2,-1
 336.219726562 1523 l 1,3,-1
 346.819335938 1028 l 1,4,-1
 515.219726562 1523 l 1,5,-1
 647.219726562 1523 l 1,6,-1
 395.22265625 778 l 1,7,-1
 428 0 l 1,8,-1
 287 0 l 1,9,-1
 266.360351562 520 l 1,10,-1
 85 0 l 1,11,-1
 -52 0 l 1,0,-1
EndSplineSet
EndChar

StartChar: Y
Encoding: 89 89 216
Width: 512
VWidth: 2441
GlyphClass: 2
Flags: HW
AnchorPoint: "Anchor-2" 179 0 basechar 0
AnchorPoint: "Anchor-0" 411.902 1521 basechar 0
LayerCount: 2
Fore
SplineSet
106 0 m 1,0,-1
 192.63671875 547 l 1,1,-1
 172.90234375 1521 l 1,2,-1
 320.90234375 1521 l 1,3,-1
 317.427734375 874 l 1,4,-1
 510.90234375 1521 l 1,5,-1
 652.90234375 1521 l 1,6,-1
 338.63671875 547 l 1,7,-1
 252 0 l 1,8,-1
 106 0 l 1,0,-1
EndSplineSet
EndChar

StartChar: Z
Encoding: 90 90 226
Width: 512
VWidth: 2441
GlyphClass: 2
Flags: HW
AnchorPoint: "Anchor-2" 207 0 basechar 0
AnchorPoint: "Anchor-0" 436.902 1521 basechar 0
LayerCount: 2
Fore
SplineSet
-29.578125 110 m 1,0,-1
 447.334960938 1328 l 1,1,-1
 176.334960938 1328 l 1,2,-1
 206.90234375 1521 l 1,3,-1
 660.90234375 1521 l 1,4,-1
 643.48046875 1411 l 1,5,-1
 166.568359375 193 l 1,6,-1
 365.568359375 193 l 2,7,8
 401.568359375 193 401.568359375 193 419.360351562 198 c 128,-1,9
 437.15234375 203 437.15234375 203 452.369140625 217 c 1,10,-1
 467.369140625 217 l 1,11,-1
 433 0 l 1,12,-1
 -47 0 l 1,13,-1
 -29.578125 110 l 1,0,-1
EndSplineSet
EndChar

StartChar: a
Encoding: 97 97 232
Width: 512
VWidth: 2441
GlyphClass: 2
Flags: HW
AnchorPoint: "Anchor-3" 377 0 basechar 0
AnchorPoint: "Anchor-2" 153 0 basechar 0
AnchorPoint: "Anchor-0" 371.748 1097 basechar 0
LayerCount: 2
Fore
SplineSet
151.375976562 337 m 0,0,1
 139.497070312 262 139.497070312 262 150.602539062 209 c 128,-1,2
 161.708007812 156 161.708007812 156 196.708007812 156 c 0,3,4
 246.708007812 156 246.708007812 156 283.25 241.5 c 128,-1,5
 319.791992188 327 319.791992188 327 353.151367188 525 c 1,6,7
 335.46875 527 335.46875 527 312.46875 527 c 0,8,9
 251.46875 527 251.46875 527 209.737304688 484.5 c 128,-1,10
 168.005859375 442 168.005859375 442 151.375976562 337 c 0,0,1
125.723632812 -27 m 0,11,12
 36.7236328125 -27 36.7236328125 -27 4.32421875 71.5 c 128,-1,13
 -28.07421875 170 -28.07421875 170 -5.583984375 312 c 0,14,15
 29.5771484375 534 29.5771484375 534 122.411132812 624.5 c 128,-1,16
 215.245117188 715 215.245117188 715 335.245117188 715 c 0,17,18
 355.245117188 715 355.245117188 715 380.453125 710 c 1,19,20
 396.508789062 824 396.508789062 824 395.932617188 883.5 c 128,-1,21
 395.356445312 943 395.356445312 943 378.024414062 963 c 128,-1,22
 360.692382812 983 360.692382812 983 327.692382812 983 c 0,23,24
 288.692382812 983 288.692382812 983 259.024414062 963 c 128,-1,25
 229.356445312 943 229.356445312 943 194.387695312 899 c 1,26,-1
 138.34375 1025 l 1,27,28
 179.213867188 1081 179.213867188 1081 237.127929688 1121.5 c 128,-1,29
 295.04296875 1162 295.04296875 1162 380.04296875 1162 c 128,-1,30
 465.04296875 1162 465.04296875 1162 507.07421875 1118 c 128,-1,31
 549.104492188 1074 549.104492188 1074 552.782226562 952 c 128,-1,32
 556.458984375 830 556.458984375 830 519.080078125 594 c 2,33,-1
 425 0 l 1,34,-1
 272 0 l 1,35,-1
 290.055664062 114 l 1,36,37
 254.91015625 31 254.91015625 31 213.31640625 2 c 128,-1,38
 171.723632812 -27 171.723632812 -27 125.723632812 -27 c 0,11,12
EndSplineSet
Substitution2: "Single Substitution lookup 29 subtable" ordfeminine
Substitution2: "'aalt' Access All Alternates in Latin lookup 0 subtable" ordfeminine
EndChar

StartChar: ae
Encoding: 230 230 257
Width: 512
VWidth: 2441
GlyphClass: 1
Flags: HW
LayerCount: 2
Fore
SplineSet
71.6982421875 137 m 0,0,1
 107.698242188 137 107.698242188 137 125.487304688 243 c 128,-1,2
 143.276367188 349 143.276367188 349 169.884765625 517 c 1,3,4
 129.092773438 512 129.092773438 512 107.015625 461 c 128,-1,5
 84.9375 410 84.9375 410 67.1982421875 298 c 0,6,7
 54.369140625 217 54.369140625 217 54.5341796875 177 c 128,-1,8
 54.6982421875 137 54.6982421875 137 71.6982421875 137 c 0,0,1
308.235351562 696 m 1,9,-1
 381.344726562 703 l 1,10,11
 404.151367188 847 404.151367188 847 407.208984375 910.5 c 128,-1,12
 410.266601562 974 410.266601562 974 392.266601562 974 c 0,13,14
 370.266601562 974 370.266601562 974 350.654296875 907 c 128,-1,15
 331.04296875 840 331.04296875 840 308.235351562 696 c 1,9,-1
31.7236328125 -27 m 0,16,17
 -38.2763671875 -27 -38.2763671875 -27 -53.7294921875 68 c 128,-1,18
 -69.18359375 163 -69.18359375 163 -47.484375 300 c 0,19,20
 -26.578125 432 -26.578125 432 0.85546875 510.5 c 128,-1,21
 28.2880859375 589 28.2880859375 589 74.1240234375 629 c 128,-1,22
 119.958984375 669 119.958984375 669 196.176757812 683 c 1,23,24
 221.359375 842 221.359375 842 220.813476562 908 c 128,-1,25
 220.266601562 974 220.266601562 974 188.266601562 974 c 0,26,27
 148.266601562 974 148.266601562 974 113.60546875 913 c 1,28,-1
 94.0361328125 1042 l 1,29,30
 149.55859375 1140 149.55859375 1140 220.55859375 1140 c 0,31,32
 258.55859375 1140 258.55859375 1140 281.27734375 1103.5 c 128,-1,33
 303.99609375 1067 303.99609375 1067 309.918945312 1016 c 1,34,35
 328.788085938 1072 328.788085938 1072 366.672851562 1106 c 128,-1,36
 404.55859375 1140 404.55859375 1140 434.55859375 1140 c 0,37,38
 502.55859375 1140 502.55859375 1140 512.97265625 1019.5 c 128,-1,39
 523.387695312 899 523.387695312 899 482.366210938 640 c 2,40,-1
 468.427734375 552 l 1,41,-1
 283.2109375 538 l 1,42,-1
 265.629882812 427 l 2,43,44
 243.139648438 285 243.139648438 285 251.260742188 210 c 128,-1,45
 259.381835938 135 259.381835938 135 299.381835938 135 c 0,46,47
 323.381835938 135 323.381835938 135 341.995117188 151.5 c 128,-1,48
 360.608398438 168 360.608398438 168 373.568359375 193 c 1,49,-1
 394.978515625 63 l 1,50,51
 341.15625 -27.0107421875 341.15625 -27.0107421875 269.3046875 -27.0107421875 c 0,52,53
 268.515625 -27.0107421875 268.515625 -27.0107421875 267.723632812 -27 c 0,54,55
 235.723632812 -27 235.723632812 -27 200.633789062 4 c 128,-1,56
 165.54296875 35 165.54296875 35 157.413085938 91 c 1,57,58
 103.723632812 -27 103.723632812 -27 31.7236328125 -27 c 0,16,17
EndSplineSet
EndChar

StartChar: b
Encoding: 98 98 259
Width: 512
VWidth: 2441
GlyphClass: 2
Flags: HW
AnchorPoint: "Anchor-2" 440 0 basechar 0
AnchorPoint: "Anchor-0" 616.757 1116 basechar 0
LayerCount: 2
Fore
SplineSet
215.5 161 m 0,0,1
 246.5 161 246.5 161 269.642578125 184 c 128,-1,2
 292.78515625 207 292.78515625 207 315.827148438 292.5 c 128,-1,3
 338.869140625 378 338.869140625 378 367.537109375 559 c 0,4,5
 394.461914062 729 394.461914062 729 399.375 820 c 128,-1,6
 404.288085938 911 404.288085938 911 390.33203125 946 c 128,-1,7
 376.375 981 376.375 981 345.375 981 c 0,8,9
 308.375 981 308.375 981 263.932617188 883.5 c 128,-1,10
 219.490234375 786 219.490234375 786 182.745117188 554 c 0,11,12
 147.266601562 330 147.266601562 330 157.383789062 245.5 c 128,-1,13
 167.5 161 167.5 161 215.5 161 c 0,0,1
214.723632812 -27 m 0,14,15
 168.723632812 -27 168.723632812 -27 138.7421875 11 c 128,-1,16
 108.760742188 49 108.760742188 49 108.907226562 132 c 1,17,-1
 78 0 l 1,18,-1
 -53 0 l 1,19,-1
 204.216796875 1624 l 1,20,-1
 370.216796875 1624 l 1,21,-1
 367.5234375 1607 l 1,22,23
 354.306640625 1593 354.306640625 1593 348.03515625 1575.5 c 128,-1,24
 341.762695312 1558 341.762695312 1558 335.110351562 1516 c 2,25,-1
 251.483398438 988 l 1,26,27
 285.530273438 1083 285.530273438 1083 336.786132812 1122.5 c 128,-1,28
 388.04296875 1162 388.04296875 1162 422.04296875 1162 c 0,29,30
 482.04296875 1162 482.04296875 1162 517.07421875 1118 c 128,-1,31
 552.104492188 1074 552.104492188 1074 554.33203125 946 c 128,-1,32
 556.55859375 818 556.55859375 818 517.12109375 569 c 0,33,34
 486.869140625 378 486.869140625 378 451.837890625 261 c 128,-1,35
 416.807617188 144 416.807617188 144 378.908203125 81.5 c 128,-1,36
 341.009765625 19 341.009765625 19 299.366210938 -4 c 128,-1,37
 257.723632812 -27 257.723632812 -27 214.723632812 -27 c 0,14,15
EndSplineSet
EndChar

StartChar: c
Encoding: 99 99 261
Width: 512
VWidth: 2441
GlyphClass: 2
Flags: HW
AnchorPoint: "Anchor-2" 237 0 basechar 0
AnchorPoint: "Anchor-0" 417.559 1140 basechar 0
LayerCount: 2
Fore
SplineSet
248.723632812 -27 m 0,0,1
 104.723632812 -27 104.723632812 -27 54.318359375 112.5 c 128,-1,2
 3.9130859375 252 3.9130859375 252 53.6455078125 566 c 0,3,4
 89.1240234375 790 89.1240234375 790 148.213867188 920 c 128,-1,5
 207.303710938 1050 207.303710938 1050 278.672851562 1106 c 128,-1,6
 350.04296875 1162 350.04296875 1162 423.04296875 1162 c 0,7,8
 572.04296875 1162 572.04296875 1162 603.809570312 1009 c 1,9,-1
 527.309570312 848 l 1,10,-1
 516.350585938 823 l 1,11,-1
 503.458984375 830 l 1,12,13
 499.151367188 847 499.151367188 847 501.374023438 870.5 c 128,-1,14
 503.595703125 894 503.595703125 894 488.188476562 923 c 1,15,16
 459.366210938 962 459.366210938 962 414.366210938 962 c 0,17,18
 381.366210938 962 381.366210938 962 345.03515625 931.5 c 128,-1,19
 308.704101562 901 308.704101562 901 275.321289062 816.5 c 128,-1,20
 241.9375 732 241.9375 732 215.645507812 566 c 0,21,22
 190.462890625 407 190.462890625 407 193.4453125 318.5 c 128,-1,23
 196.428710938 230 196.428710938 230 222.068359375 193 c 128,-1,24
 247.708007812 156 247.708007812 156 286.708007812 156 c 0,25,26
 358.708007812 156 358.708007812 156 421.229492188 254 c 1,27,-1
 442.829101562 81 l 1,28,29
 362.723632812 -27 362.723632812 -27 248.723632812 -27 c 0,0,1
EndSplineSet
EndChar

StartChar: d
Encoding: 100 100 268
Width: 512
VWidth: 2441
GlyphClass: 2
Flags: HW
AnchorPoint: "Anchor-4" 511.235 1340 basechar 0
AnchorPoint: "Anchor-2" 180 0 basechar 0
AnchorPoint: "Anchor-1" 593.757 1116 basechar 0
AnchorPoint: "Anchor-0" 356.757 1116 basechar 0
LayerCount: 2
Fore
SplineSet
186.81640625 163 m 0,0,1
 278.827148438 163 278.827148438 163 340.995117188 555.513671875 c 0,2,3
 341.6640625 559.734375 341.6640625 559.734375 342.329101562 564 c 0,4,5
 377.490234375 786 377.490234375 786 370.432617188 883.5 c 128,-1,6
 363.375 981 363.375 981 326.375 981 c 0,7,8
 300.375 981 300.375 981 275.885742188 949.5 c 128,-1,9
 251.396484375 918 251.396484375 918 228.750976562 835 c 128,-1,10
 206.10546875 752 206.10546875 752 181.397460938 596 c 0,11,12
 153.997070312 423 153.997070312 423 148.608398438 329 c 128,-1,13
 143.220703125 235 143.220703125 235 155.518554688 199 c 128,-1,14
 167.81640625 163 167.81640625 163 186.81640625 163 c 0,0,1
122.19921875 -24 m 0,15,16
 81.19921875 -24 81.19921875 -24 51.2626953125 -1.5 c 128,-1,17
 21.326171875 21 21.326171875 21 6.462890625 85 c 128,-1,18
 -8.400390625 149 -8.400390625 149 -3.291015625 266.5 c 128,-1,19
 1.8193359375 384 1.8193359375 384 31.12109375 569 c 0,20,21
 69.1328125 809 69.1328125 809 111.90625 937 c 128,-1,22
 154.6796875 1065 154.6796875 1065 204.361328125 1113.5 c 128,-1,23
 254.04296875 1162 254.04296875 1162 312.04296875 1162 c 0,24,25
 419.04296875 1162 419.04296875 1162 411.225585938 999 c 1,26,-1
 510.216796875 1624 l 1,27,-1
 678.216796875 1624 l 1,28,-1
 675.5234375 1607 l 1,29,30
 660.306640625 1593 660.306640625 1593 654.53515625 1575.5 c 128,-1,31
 648.762695312 1558 648.762695312 1558 642.110351562 1516 c 2,32,-1
 429.400390625 173 l 2,33,34
 422.431640625 129 422.431640625 129 416.700195312 86.5 c 128,-1,35
 410.96875 44 410.96875 44 412 0 c 1,36,-1
 268 0 l 1,37,38
 264.751953125 30 264.751953125 30 263.844726562 59 c 128,-1,39
 262.9375 88 262.9375 88 269.907226562 132 c 1,40,41
 241.8203125 62 241.8203125 62 199.509765625 19 c 128,-1,42
 157.19921875 -24 157.19921875 -24 122.19921875 -24 c 0,15,16
EndSplineSet
EndChar

StartChar: eth
Encoding: 240 240 269
Width: 512
VWidth: 2441
GlyphClass: 1
Flags: HW
LayerCount: 2
Fore
SplineSet
212.708007812 156 m 0,0,1
 239.708007812 156 239.708007812 156 264.934570312 189 c 128,-1,2
 290.161132812 222 290.161132812 222 313.599609375 310 c 128,-1,3
 337.037109375 398 337.037109375 398 363.645507812 566 c 0,4,5
 395.005859375 764 395.005859375 764 386.84375 864 c 128,-1,6
 378.682617188 964 378.682617188 964 338.682617188 964 c 0,7,8
 290.366210938 962 290.366210938 962 251.927734375 874 c 128,-1,9
 213.490234375 786 213.490234375 786 178.645507812 566 c 0,10,11
 143.166992188 342 143.166992188 342 153.9375 249 c 128,-1,12
 164.708007812 156 164.708007812 156 212.708007812 156 c 0,0,1
183.248046875 -30 m 0,13,14
 120.248046875 -30 120.248046875 -30 70.8505859375 18 c 128,-1,15
 21.453125 66 21.453125 66 6.671875 190.5 c 128,-1,16
 -8.109375 315 -8.109375 315 28.3193359375 545 c 0,17,18
 64.1142578125 771 64.1142578125 771 114.283203125 901.5 c 128,-1,19
 164.453125 1032 164.453125 1032 221.505859375 1086 c 128,-1,20
 278.55859375 1140 278.55859375 1140 335.55859375 1140 c 0,21,22
 368.55859375 1140 368.55859375 1140 393.603515625 1124.5 c 128,-1,23
 418.6484375 1109 418.6484375 1109 430.788085938 1072 c 1,24,25
 427.766601562 1135 427.766601562 1135 419.611328125 1194 c 128,-1,26
 411.456054688 1253 411.456054688 1253 395.008789062 1307 c 1,27,-1
 291.456054688 1253 l 1,28,-1
 253.99609375 1389 l 1,29,-1
 365.390625 1442 l 1,30,31
 347.67578125 1488 347.67578125 1488 333.169921875 1529 c 128,-1,32
 318.663085938 1570 318.663085938 1570 291.573242188 1601 c 1,33,-1
 437.225585938 1643 l 1,34,35
 454.157226562 1611 454.157226562 1611 467.826171875 1580.5 c 128,-1,36
 481.49609375 1550 481.49609375 1550 497.209960938 1504 c 1,37,-1
 601.080078125 1560 l 1,38,-1
 630.272460938 1416 l 1,39,-1
 532.194335938 1365 l 1,40,41
 555.782226562 1274 555.782226562 1274 562.547851562 1171.5 c 128,-1,42
 569.3125 1069 569.3125 1069 559.248046875 936 c 128,-1,43
 549.182617188 803 549.182617188 803 519.723632812 617 c 0,44,45
 477.592773438 351 477.592773438 351 426.577148438 212 c 128,-1,46
 375.5625 73 375.5625 73 315.905273438 21.5 c 128,-1,47
 256.248046875 -30 256.248046875 -30 183.248046875 -30 c 0,13,14
EndSplineSet
EndChar

StartChar: dcaron
Encoding: 271 271 270
Width: 512
VWidth: 2441
GlyphClass: 1
Flags: HW
LayerCount: 2
Fore
SplineSet
107.5 161 m 0,0,1
 173.5 161 173.5 161 236.853515625 561 c 0,2,3
 272.6484375 787 272.6484375 787 272.908203125 886.5 c 128,-1,4
 273.166992188 986 273.166992188 986 251.166992188 986 c 0,5,6
 237.166992188 986 237.166992188 986 220.232421875 958 c 128,-1,7
 203.297851562 930 203.297851562 930 184.151367188 847 c 128,-1,8
 165.005859375 764 165.005859375 764 139.189453125 601 c 0,9,10
 110.521484375 420 110.521484375 420 99.6337890625 326 c 128,-1,11
 88.7451171875 232 88.7451171875 232 92.1220703125 196.5 c 128,-1,12
 95.5 161 95.5 161 107.5 161 c 0,0,1
44.19921875 -24 m 0,13,14
 15.19921875 -24 15.19921875 -24 -4.5546875 -3.5 c 128,-1,15
 -24.3076171875 17 -24.3076171875 17 -32.146484375 78 c 128,-1,16
 -39.984375 139 -39.984375 139 -31.453125 256 c 128,-1,17
 -22.9228515625 373 -22.9228515625 373 7.6455078125 566 c 0,18,19
 47.0830078125 815 47.0830078125 815 81.435546875 943.5 c 128,-1,20
 115.788085938 1072 115.788085938 1072 152.653320312 1118.5 c 128,-1,21
 189.517578125 1165 189.517578125 1165 234.517578125 1165 c 0,22,23
 285.517578125 1165 285.517578125 1165 300.603515625 1124.5 c 128,-1,24
 315.688476562 1084 315.688476562 1084 305.434570312 994 c 1,25,-1
 404.741210938 1621 l 1,26,-1
 548.741210938 1621 l 1,27,-1
 546.20703125 1605 l 1,28,29
 531.989257812 1591 531.989257812 1591 525.98046875 1572 c 128,-1,30
 519.970703125 1553 519.970703125 1553 513.793945312 1514 c 2,31,-1
 461.52734375 1184 l 1,32,33
 486.080078125 1238 486.080078125 1238 504.26171875 1286.5 c 128,-1,34
 522.443359375 1335 522.443359375 1335 528.620117188 1374 c 0,35,36
 535.90625 1420 535.90625 1420 530.5234375 1446 c 128,-1,37
 526.078125 1467.47851562 526.078125 1467.47851562 533.262695312 1512.84082031 c 0,0,0
 534.775390625 1522.39160156 534.775390625 1522.39160156 536.803710938 1533 c 0,38,39
 545.772460938 1577 545.772460938 1577 564.048828125 1604 c 128,-1,40
 582.325195312 1631 582.325195312 1631 603.325195312 1631 c 0,41,42
 656.325195312 1631 656.325195312 1631 636.209960938 1504 c 0,43,44
 624.331054688 1429 624.331054688 1429 594.309570312 1331 c 128,-1,45
 564.288085938 1233 564.288085938 1233 505.96484375 1111 c 1,46,-1
 455.508789062 1146 l 1,47,-1
 302.350585938 179 l 2,48,49
 295.065429688 133 295.065429688 133 289.016601562 88.5 c 128,-1,50
 282.96875 44 282.96875 44 282 0 c 1,51,-1
 159 0 l 1,52,53
 157.276367188 27 157.276367188 27 156.607421875 57.5 c 128,-1,54
 155.9375 88 155.9375 88 162.907226562 132 c 1,55,56
 139.8203125 62 139.8203125 62 103.509765625 19 c 128,-1,57
 67.19921875 -24 67.19921875 -24 44.19921875 -24 c 0,13,14
EndSplineSet
EndChar

StartChar: e
Encoding: 101 101 274
Width: 512
VWidth: 2441
GlyphClass: 2
Flags: HW
AnchorPoint: "Anchor-3" 286.801 24 basechar 0
AnchorPoint: "Anchor-2" 242 0 basechar 0
AnchorPoint: "Anchor-0" 372.757 1116 basechar 0
LayerCount: 2
Fore
SplineSet
217.493164062 685 m 1,0,-1
 376.493164062 685 l 1,1,2
 400.884765625 839 400.884765625 839 399.575195312 906.5 c 128,-1,3
 398.266601562 974 398.266601562 974 348.266601562 974 c 0,4,5
 307.266601562 974 307.266601562 974 278.471679688 909 c 128,-1,6
 249.676757812 844 249.676757812 844 217.493164062 685 c 1,0,-1
210.19921875 -24 m 0,7,8
 79.19921875 -24 79.19921875 -24 30.8681640625 106.5 c 128,-1,9
 -17.462890625 237 -17.462890625 237 32.7451171875 554 c 0,10,11
 68.5400390625 780 68.5400390625 780 117.263671875 914 c 128,-1,12
 165.987304688 1048 165.987304688 1048 232.014648438 1105 c 128,-1,13
 298.04296875 1162 298.04296875 1162 382.04296875 1162 c 0,14,15
 462.04296875 1162 462.04296875 1162 503.911132812 1107.5 c 128,-1,16
 545.779296875 1053 545.779296875 1053 548.426757812 924.5 c 128,-1,17
 551.07421875 796 551.07421875 796 516.229492188 576 c 0,18,19
 512.427734375 552 512.427734375 552 509.89453125 536 c 128,-1,20
 507.360351562 520 507.360351562 520 502.350585938 501 c 1,21,-1
 184.350585938 501 l 1,22,23
 156.990234375 303 156.990234375 303 172.641601562 234.5 c 128,-1,24
 188.291992188 166 188.291992188 166 247.81640625 163 c 0,25,26
 288.81640625 163 288.81640625 163 318.250976562 191 c 128,-1,27
 347.686523438 219 347.686523438 219 372.337890625 261 c 1,28,-1
 431.956054688 126 l 1,29,30
 391.978515625 63 391.978515625 63 334.088867188 19.5 c 128,-1,31
 276.19921875 -24 276.19921875 -24 210.19921875 -24 c 0,7,8
EndSplineSet
EndChar

StartChar: uni029A
Encoding: 666 666 296
Width: 512
VWidth: 2441
GlyphClass: 1
Flags: HW
LayerCount: 2
Fore
SplineSet
203.291992188 166 m 0,0,1
 239.291992188 166 239.291992188 166 264.255859375 200.5 c 128,-1,2
 289.220703125 235 289.220703125 235 310.920898438 321.5 c 128,-1,3
 332.62109375 408 332.62109375 408 356.853515625 561 c 0,4,5
 393.598632812 793 393.598632812 793 388.932617188 883.5 c 128,-1,6
 384.266601562 974 384.266601562 974 341.266601562 974 c 0,7,8
 314.266601562 974 314.266601562 974 293.059570312 928.5 c 128,-1,9
 271.853515625 883 271.853515625 883 262.984375 827 c 0,10,11
 241.9140625 693.970703125 241.9140625 693.970703125 287.551757812 693.970703125 c 0,0,0
 288.228515625 693.970703125 288.228515625 693.970703125 288.918945312 694 c 0,12,13
 295.918945312 694 295.918945312 694 301.918945312 694 c 128,-1,14
 307.918945312 694 307.918945312 694 315.235351562 696 c 1,15,-1
 283.875 498 l 1,16,17
 273.192382812 500 273.192382812 500 265.087890625 502.5 c 128,-1,18
 256.984375 505 256.984375 505 245.984375 505 c 0,19,20
 223.984375 505 223.984375 505 196.965820312 467 c 128,-1,21
 169.947265625 429 169.947265625 429 155.05859375 335 c 0,22,23
 142.546875 256 142.546875 256 155.918945312 211 c 128,-1,24
 169.291992188 166 169.291992188 166 203.291992188 166 c 0,0,1
168.990234375 -19 m 0,25,26
 64.3076171875 -17 64.3076171875 -17 17.4580078125 75.5 c 128,-1,27
 -29.3916015625 168 -29.3916015625 168 -0.7236328125 349 c 0,28,29
 15.58984375 452 15.58984375 452 54.8349609375 523 c 128,-1,30
 94.080078125 594 94.080078125 594 142.40625 615 c 1,31,32
 86.552734375 698 86.552734375 698 108.04296875 840 c 0,33,34
 131.958984375 991 131.958984375 991 206.258789062 1065.5 c 128,-1,35
 280.55859375 1140 280.55859375 1140 361.55859375 1140 c 0,36,37
 486.55859375 1140 486.55859375 1140 524.09765625 1004.5 c 128,-1,38
 561.635742188 869 561.635742188 869 512.537109375 559 c 0,39,40
 462.012695312 240 462.012695312 240 377.842773438 109.5 c 128,-1,41
 294.944335938 -19.0302734375 294.944335938 -19.0302734375 172.745117188 -19.0302734375 c 0,0,0
 170.873046875 -19.0302734375 170.873046875 -19.0302734375 168.990234375 -19 c 0,25,26
EndSplineSet
EndChar

StartChar: f
Encoding: 102 102 300
Width: 512
VWidth: 2441
GlyphClass: 1
Flags: HW
LayerCount: 2
Fore
SplineSet
183.256835938 955 m 1,0,-1
 83.2568359375 955 l 1,1,-1
 111.766601562 1135 l 1,2,-1
 211.766601562 1135 l 1,3,-1
 223.486328125 1209 l 2,4,5
 258.96484375 1433 258.96484375 1433 340.69921875 1535.5 c 128,-1,6
 422.43359375 1638 422.43359375 1638 500.43359375 1638 c 0,7,8
 544.43359375 1638 544.43359375 1638 590.944335938 1606.5 c 128,-1,9
 637.455078125 1575 637.455078125 1575 650.685546875 1507 c 1,10,-1
 585.34375 1347 l 1,11,-1
 571.54296875 1323 l 1,12,-1
 558.651367188 1330 l 1,13,14
 555.34375 1347 555.34375 1347 555.224609375 1371.5 c 128,-1,15
 555.104492188 1396 555.104492188 1396 535.856445312 1426 c 0,16,17
 520.657226562 1450 520.657226562 1450 489.815429688 1451 c 0,18,19
 455.815429688 1451 455.815429688 1451 422.129882812 1393 c 128,-1,20
 388.443359375 1335 388.443359375 1335 368.486328125 1209 c 2,21,-1
 356.766601562 1135 l 1,22,-1
 491.766601562 1135 l 1,23,-1
 463.256835938 955 l 1,24,-1
 328.256835938 955 l 1,25,-1
 177 0 l 1,26,-1
 32 0 l 1,27,-1
 183.256835938 955 l 1,0,-1
EndSplineSet
EndChar

StartChar: g
Encoding: 103 103 301
Width: 512
VWidth: 2301
GlyphClass: 2
Flags: HW
AnchorPoint: "Anchor-2" 146.363 -225 basechar 0
AnchorPoint: "Anchor-0" 330.707 1122 basechar 0
LayerCount: 2
Fore
SplineSet
76.384765625 34 m 0,0,1
 56.1123046875 -94 56.1123046875 -94 150.112304688 -94 c 0,2,3
 196.112304688 -94 196.112304688 -94 226.684570312 -52.5 c 128,-1,4
 257.2578125 -11 257.2578125 -11 265.810546875 43 c 0,5,6
 277.213867188 115 277.213867188 115 259.33203125 141 c 128,-1,7
 241.450195312 167 241.450195312 167 208.450195312 167 c 0,8,9
 184.450195312 167 184.450195312 167 164.108398438 168 c 128,-1,10
 143.766601562 169 143.766601562 169 123.400390625 173 c 1,11,12
 89.84765625 119 89.84765625 119 76.384765625 34 c 0,0,1
252.08984375 613 m 0,13,14
 288.08984375 613 288.08984375 613 302.454101562 659.5 c 128,-1,15
 316.819335938 706 316.819335938 706 333.766601562 813 c 0,16,17
 350.555664062 919 350.555664062 919 350.999023438 966 c 128,-1,18
 351.443359375 1013 351.443359375 1013 315.443359375 1013 c 0,19,20
 283.443359375 1013 283.443359375 1013 266.999023438 966 c 128,-1,21
 250.555664062 919 250.555664062 919 233.766601562 813 c 128,-1,22
 216.977539062 707 216.977539062 707 218.534179688 660 c 128,-1,23
 220.08984375 613 220.08984375 613 252.08984375 613 c 0,13,14
228.490234375 464 m 0,24,25
 204.490234375 464 204.490234375 464 187.440429688 470 c 1,26,27
 176.748046875 453 176.748046875 453 167.713867188 437 c 128,-1,28
 158.6796875 421 158.6796875 421 155.987304688 404 c 0,29,30
 149.810546875 365 149.810546875 365 173.0390625 347.5 c 128,-1,31
 196.266601562 330 196.266601562 330 270.266601562 330 c 0,32,33
 364.266601562 330 364.266601562 330 393.971679688 265 c 128,-1,34
 423.676757812 200 423.676757812 200 401.661132812 61 c 0,35,36
 381.388671875 -67 381.388671875 -67 311.712890625 -156.5 c 128,-1,37
 242.037109375 -246 242.037109375 -246 126.037109375 -246 c 0,38,39
 8.037109375 -246 8.037109375 -246 -39.2216796875 -184.5 c 128,-1,40
 -86.4814453125 -123 -86.4814453125 -123 -64.3076171875 17 c 0,41,42
 -52.5869140625 91 -52.5869140625 91 -26.8505859375 143 c 128,-1,43
 -1.115234375 195 -1.115234375 195 33.4287109375 230 c 1,44,45
 6.9228515625 272.461914062 6.9228515625 272.461914062 19.720703125 353.266601562 c 0,46,47
 20.7880859375 360 20.7880859375 360 22.126953125 367 c 0,48,49
 30.62109375 408 30.62109375 408 52.693359375 449.5 c 128,-1,50
 74.7666015625 491 74.7666015625 491 104.626953125 528 c 1,51,52
 57.7724609375 611 57.7724609375 611 88.7666015625 813 c 0,53,54
 117.434570312 994 117.434570312 994 183.79296875 1081.5 c 128,-1,55
 250.151367188 1169 250.151367188 1169 340.151367188 1169 c 128,-1,56
 430.151367188 1169 430.151367188 1169 467.1640625 1087 c 1,57,58
 497.340820312 1126 497.340820312 1126 527.270507812 1144.5 c 128,-1,59
 557.201171875 1163 557.201171875 1163 589.567382812 1159 c 1,60,-1
 572.017578125 1004 l 1,61,62
 565.229492188 1005.33300781 565.229492188 1005.33300781 558.451171875 1005.33300781 c 0,63,64
 524.5625 1005.33300781 524.5625 1005.33300781 490.94921875 972 c 1,65,66
 492.337890625 905 492.337890625 905 478.766601562 813 c 0,67,68
 448.514648438 622 448.514648438 622 378.502929688 543 c 128,-1,69
 308.490234375 464 308.490234375 464 228.490234375 464 c 0,24,25
EndSplineSet
EndChar

StartChar: h
Encoding: 104 104 308
Width: 512
VWidth: 2441
GlyphClass: 2
Flags: HW
AnchorPoint: "Anchor-4" 272.235 1340 basechar 0
AnchorPoint: "Anchor-2" 203 0 basechar 0
AnchorPoint: "Anchor-0" 303.217 1624 basechar 0
LayerCount: 2
Fore
SplineSet
222.216796875 1624 m 1,0,-1
 408.216796875 1624 l 1,1,-1
 405.5234375 1607 l 1,2,3
 389.306640625 1593 389.306640625 1593 383.03515625 1575.5 c 128,-1,4
 376.762695312 1558 376.762695312 1558 370.110351562 1516 c 2,5,-1
 283.94921875 972 l 1,6,7
 322.788085938 1072 322.788085938 1072 372.915039062 1117 c 128,-1,8
 423.04296875 1162 423.04296875 1162 482.04296875 1162 c 0,9,10
 565.04296875 1162 565.04296875 1162 581.362304688 1063 c 128,-1,11
 597.682617188 964 597.682617188 964 556.819335938 706 c 2,12,-1
 445 0 l 1,13,-1
 282 0 l 1,14,-1
 393.02734375 701 l 2,15,16
 417.418945312 855 417.418945312 855 415.288085938 911 c 128,-1,17
 413.158203125 967 413.158203125 967 379.158203125 967 c 0,18,19
 338.158203125 967 338.158203125 967 297.908203125 886.5 c 128,-1,20
 257.658203125 806 257.658203125 806 231.840820312 643 c 2,21,-1
 130 0 l 1,22,-1
 -35 0 l 1,23,-1
 222.216796875 1624 l 1,0,-1
EndSplineSet
EndChar

StartChar: i
Encoding: 105 105 313
Width: 512
VWidth: 2441
GlyphClass: 2
Flags: HW
AnchorPoint: "Anchor-3" 330 0 basechar 0
AnchorPoint: "Anchor-2" 214 0 basechar 0
AnchorPoint: "Anchor-0" 450.943 1496 basechar 0
LayerCount: 2
Fore
SplineSet
-8 0 m 1,0,-1
 21.4599609375 186 l 1,1,-1
 165.459960938 186 l 1,2,-1
 286.782226562 952 l 1,3,-1
 149.782226562 952 l 1,4,-1
 178.766601562 1135 l 1,5,-1
 481.766601562 1135 l 1,6,-1
 331.459960938 186 l 1,7,-1
 460.459960938 186 l 1,8,-1
 431 0 l 1,9,-1
 -8 0 l 1,0,-1
428.303710938 1372 m 128,-1,11
 382.303710938 1372 382.303710938 1372 352.584960938 1408.5 c 128,-1,12
 322.865234375 1445 322.865234375 1445 330.625976562 1494 c 0,13,14
 338.704101562 1545 338.704101562 1545 378.326171875 1580.5 c 128,-1,15
 417.94921875 1616 417.94921875 1616 466.94921875 1616 c 0,16,17
 512.94921875 1616 512.94921875 1616 541.826171875 1580.5 c 128,-1,18
 570.704101562 1545 570.704101562 1545 562.625976562 1494 c 0,19,20
 554.865234375 1445 554.865234375 1445 514.584960938 1408.5 c 128,-1,10
 474.303710938 1372 474.303710938 1372 428.303710938 1372 c 128,-1,11
EndSplineSet
Substitution2: "'locl' Localized Forms in Latin lookup 18 subtable" i.loclTRK
Substitution2: "'locl' Localized Forms in Latin lookup 17 subtable" i.loclTRK
Substitution2: "'locl' Localized Forms in Latin lookup 16 subtable" i.loclTRK
Substitution2: "'locl' Localized Forms in Latin lookup 15 subtable" i.loclTRK
Substitution2: "'locl' Localized Forms in Latin lookup 14 subtable" i.loclTRK
Substitution2: "Single Substitution lookup 4 subtable" dotlessi
Substitution2: "Single Substitution lookup 3 subtable" dotlessi
AlternateSubs2: "'aalt' Access All Alternates in Latin lookup 1 subtable" dotlessi i.loclTRK
EndChar

StartChar: dotlessi
Encoding: 305 305 314
Width: 512
VWidth: 2441
GlyphClass: 2
Flags: HW
AnchorPoint: "Anchor-3" 330 0 basechar 0
AnchorPoint: "Anchor-2" 214 0 basechar 0
AnchorPoint: "Anchor-0" 393.767 1135 basechar 0
LayerCount: 2
Fore
SplineSet
-8 0 m 1,0,-1
 21.4599609375 186 l 1,1,-1
 165.459960938 186 l 1,2,-1
 286.782226562 952 l 1,3,-1
 149.782226562 952 l 1,4,-1
 178.766601562 1135 l 1,5,-1
 481.766601562 1135 l 1,6,-1
 331.459960938 186 l 1,7,-1
 460.459960938 186 l 1,8,-1
 431 0 l 1,9,-1
 -8 0 l 1,0,-1
EndSplineSet
EndChar

StartChar: j
Encoding: 106 106 329
Width: 512
VWidth: 2367
GlyphClass: 2
Flags: HW
AnchorPoint: "Anchor-2" 157.336 -282 basechar 0
AnchorPoint: "Anchor-0" 518.686 1507 basechar 0
LayerCount: 2
Fore
SplineSet
79.037109375 -246 m 0,0,1
 30.037109375 -246 30.037109375 -246 -16.13671875 -225 c 128,-1,2
 -62.310546875 -204 -62.310546875 -204 -90.974609375 -164 c 1,3,-1
 -9.158203125 -1 l 1,4,-1
 0.326171875 21 l 1,5,-1
 12.5341796875 16 l 1,6,7
 16.841796875 -1 16.841796875 -1 18.990234375 -19 c 128,-1,8
 21.1396484375 -37 21.1396484375 -37 39.6552734375 -59 c 1,9,10
 54.9130859375 -70 54.9130859375 -70 71.517578125 -72.5 c 128,-1,11
 88.12109375 -75 88.12109375 -75 104.12109375 -75 c 0,12,13
 149.12109375 -75 149.12109375 -75 175.861328125 -13.5 c 128,-1,14
 202.602539062 48 202.602539062 48 223.826171875 182 c 2,15,-1
 354.651367188 1008 l 1,16,-1
 165.651367188 1008 l 1,17,-1
 192.418945312 1177 l 1,18,-1
 536.418945312 1177 l 1,19,-1
 380.092773438 190 l 2,20,21
 353.16796875 20 353.16796875 20 307.700195312 -74.5 c 128,-1,22
 262.233398438 -169 262.233398438 -169 205.134765625 -207.5 c 128,-1,23
 148.037109375 -246 148.037109375 -246 79.037109375 -246 c 0,0,1
498.629882812 1393 m 128,-1,25
 456.629882812 1393 456.629882812 1393 429.435546875 1426.5 c 128,-1,26
 402.241210938 1460 402.241210938 1460 409.209960938 1504 c 0,27,28
 416.654296875 1551 416.654296875 1551 452.801757812 1583.5 c 128,-1,29
 488.94921875 1616 488.94921875 1616 533.94921875 1616 c 0,30,31
 575.94921875 1616 575.94921875 1616 601.801757812 1583.5 c 128,-1,32
 627.654296875 1551 627.654296875 1551 620.209960938 1504 c 0,33,34
 613.083007812 1459 613.083007812 1459 576.856445312 1426 c 128,-1,24
 540.629882812 1393 540.629882812 1393 498.629882812 1393 c 128,-1,25
EndSplineSet
Substitution2: "Single Substitution lookup 4 subtable" uni0237
Substitution2: "Single Substitution lookup 3 subtable" uni0237
Substitution2: "'aalt' Access All Alternates in Latin lookup 0 subtable" uni0237
EndChar

StartChar: uni0237
Encoding: 567 567 330
Width: 512
VWidth: 2290
GlyphClass: 2
Flags: HW
AnchorPoint: "Anchor-2" 148.494 -281 basechar 0
AnchorPoint: "Anchor-0" 448.767 1135 basechar 0
LayerCount: 2
Fore
SplineSet
73.037109375 -246 m 0,0,1
 25.037109375 -246 25.037109375 -246 -19.7158203125 -225.5 c 128,-1,2
 -64.46875 -205 -64.46875 -205 -91.4501953125 -167 c 1,3,-1
 -13.2666015625 -8 l 1,4,-1
 -2.94140625 13 l 1,5,-1
 8.2666015625 8 l 1,6,7
 11.57421875 -9 11.57421875 -9 13.8818359375 -26 c 128,-1,8
 16.189453125 -43 16.189453125 -43 33.86328125 -64 c 1,9,10
 49.12109375 -75 49.12109375 -75 65.2255859375 -77.5 c 128,-1,11
 81.3291015625 -80 81.3291015625 -80 97.3291015625 -80 c 0,12,13
 140.329101562 -80 140.329101562 -80 166.752929688 -20.5 c 128,-1,14
 193.176757812 39 193.176757812 39 213.766601562 169 c 2,15,-1
 340.791015625 971 l 1,16,-1
 156.791015625 971 l 1,17,-1
 182.766601562 1135 l 1,18,-1
 516.766601562 1135 l 1,19,-1
 365.034179688 177 l 2,20,21
 338.900390625 12 338.900390625 12 294.908203125 -79.5 c 128,-1,22
 250.916015625 -171 250.916015625 -171 195.4765625 -208.5 c 128,-1,23
 140.037109375 -246 140.037109375 -246 73.037109375 -246 c 0,0,1
EndSplineSet
EndChar

StartChar: k
Encoding: 107 107 332
Width: 512
VWidth: 2441
GlyphClass: 2
Flags: HW
AnchorPoint: "Anchor-2" 175 0 basechar 0
AnchorPoint: "Anchor-0" 275.217 1624 basechar 0
LayerCount: 2
Fore
SplineSet
199.015625 461 m 1,0,-1
 156.869140625 378 l 1,1,-1
 95 0 l 1,2,-1
 -53 0 l 1,3,-1
 204.216796875 1624 l 1,4,-1
 372.216796875 1624 l 1,5,-1
 369.5234375 1607 l 1,6,7
 354.306640625 1593 354.306640625 1593 348.03515625 1575.5 c 128,-1,8
 341.762695312 1558 341.762695312 1558 335.110351562 1516 c 2,9,-1
 196.366210938 640 l 1,10,-1
 457.508789062 1146 l 1,11,12
 473.399414062 1139 473.399414062 1139 497.528320312 1133.5 c 128,-1,13
 521.657226562 1128 521.657226562 1128 544.657226562 1128 c 2,14,-1
 585.657226562 1128 l 1,15,-1
 324.198242188 620 l 1,16,-1
 427 0 l 1,17,-1
 272.416015625 -10 l 1,18,-1
 199.015625 461 l 1,0,-1
EndSplineSet
EndChar

StartChar: kgreenlandic
Encoding: 312 312 334
Width: 512
VWidth: 2441
GlyphClass: 2
Flags: HW
AnchorPoint: "Anchor-2" 173 0 basechar 0
AnchorPoint: "Anchor-0" 191.757 1116 basechar 0
LayerCount: 2
Fore
SplineSet
199.015625 461 m 1,0,-1
 156.869140625 378 l 1,1,-1
 95 0 l 1,2,-1
 -53 0 l 1,3,-1
 126.766601562 1135 l 1,4,-1
 294.766601562 1135 l 1,5,-1
 292.07421875 1118 l 1,6,7
 276.856445312 1104 276.856445312 1104 270.584960938 1086.5 c 128,-1,8
 264.3125 1069 264.3125 1069 257.819335938 1028 c 2,9,-1
 196.366210938 640 l 1,10,-1
 457.508789062 1146 l 1,11,12
 473.399414062 1139 473.399414062 1139 497.528320312 1133.5 c 128,-1,13
 521.657226562 1128 521.657226562 1128 544.657226562 1128 c 2,14,-1
 585.657226562 1128 l 1,15,-1
 324.198242188 620 l 1,16,-1
 427 0 l 1,17,-1
 272.416015625 -10 l 1,18,-1
 199.015625 461 l 1,0,-1
EndSplineSet
EndChar

StartChar: l
Encoding: 108 108 335
Width: 512
VWidth: 2441
GlyphClass: 2
Flags: HW
AnchorPoint: "Anchor-4" 302.537 559 basechar 0
AnchorPoint: "Anchor-2" 214 0 basechar 0
AnchorPoint: "Anchor-1" 671.757 1116 basechar 0
AnchorPoint: "Anchor-0" 471.217 1624 basechar 0
LayerCount: 2
Fore
SplineSet
-26 0 m 1,0,-1
 3.7763671875 188 l 1,1,-1
 159.776367188 188 l 1,2,-1
 357.28125 1435 l 1,3,-1
 208.28125 1435 l 1,4,-1
 238.216796875 1624 l 1,5,-1
 556.216796875 1624 l 1,6,-1
 328.776367188 188 l 1,7,-1
 480.776367188 188 l 1,8,-1
 451 0 l 1,9,-1
 -26 0 l 1,0,-1
EndSplineSet
EndChar

StartChar: ldot
Encoding: 320 320 339
Width: 512
VWidth: 2441
GlyphClass: 1
Flags: HW
LayerCount: 2
Fore
SplineSet
441.443359375 691 m 128,-1,1
 397.443359375 691 397.443359375 691 371.224609375 727.5 c 128,-1,2
 345.005859375 764 345.005859375 764 353.083007812 815 c 0,3,4
 361.635742188 869 361.635742188 869 399.49609375 906 c 128,-1,5
 437.356445312 943 437.356445312 943 481.356445312 943 c 128,-1,6
 525.356445312 943 525.356445312 943 551.99609375 906 c 128,-1,7
 578.635742188 869 578.635742188 869 570.083007812 815 c 0,8,9
 562.005859375 764 562.005859375 764 523.724609375 727.5 c 128,-1,0
 485.443359375 691 485.443359375 691 441.443359375 691 c 128,-1,1
-39 0 m 1,10,-1
 -9.2236328125 188 l 1,11,-1
 99.7763671875 188 l 1,12,-1
 297.28125 1435 l 1,13,-1
 196.28125 1435 l 1,14,-1
 226.216796875 1624 l 1,15,-1
 479.216796875 1624 l 1,16,-1
 251.776367188 188 l 1,17,-1
 397.776367188 188 l 1,18,-1
 365 0 l 1,19,-1
 -39 0 l 1,10,-1
EndSplineSet
EndChar

StartChar: uni01C9
Encoding: 457 457 341
Width: 512
VWidth: 2368
GlyphClass: 1
Flags: HW
LayerCount: 2
Fore
SplineSet
132.037109375 -246 m 0,0,1
 87.037109375 -246 87.037109375 -246 50.234375 -219.5 c 128,-1,2
 13.431640625 -193 13.431640625 -193 -3.8662109375 -157 c 1,3,-1
 78.2265625 33 l 1,4,5
 86.80078125 24 86.80078125 24 85.296875 14.5 c 128,-1,6
 83.7919921875 5 83.7919921875 5 86.3369140625 -10.5 c 128,-1,7
 88.8818359375 -26 88.8818359375 -26 112.081054688 -50 c 0,8,9
 122.338867188 -61 122.338867188 -61 133.205078125 -65 c 128,-1,10
 144.071289062 -69 144.071289062 -69 158.071289062 -69 c 0,11,12
 203.071289062 -69 203.071289062 -69 229.965820312 -16 c 128,-1,13
 256.860351562 37 256.860351562 37 279.826171875 182 c 2,14,-1
 410.809570312 1009 l 1,15,-1
 310.809570312 1009 l 1,16,-1
 337.418945312 1177 l 1,17,-1
 567.418945312 1177 l 1,18,-1
 411.092773438 190 l 2,19,20
 384.16796875 20 384.16796875 20 343.700195312 -74.5 c 128,-1,21
 303.233398438 -169 303.233398438 -169 249.293945312 -206.5 c 128,-1,22
 195.354492188 -244 195.354492188 -244 132.037109375 -246 c 0,0,1
523.095703125 1377 m 128,-1,24
 484.095703125 1377 484.095703125 1377 459.322265625 1410 c 128,-1,25
 434.548828125 1443 434.548828125 1443 441.67578125 1488 c 0,26,27
 449.120117188 1535 449.120117188 1535 482.688476562 1567 c 128,-1,28
 516.256835938 1599 516.256835938 1599 558.256835938 1599 c 0,29,30
 597.256835938 1599 597.256835938 1599 621.109375 1566.5 c 128,-1,31
 644.961914062 1534 644.961914062 1534 637.67578125 1488 c 0,32,33
 630.548828125 1443 630.548828125 1443 596.322265625 1410 c 128,-1,23
 562.095703125 1377 562.095703125 1377 523.095703125 1377 c 128,-1,24
-55.66796875 141 m 1,34,-1
 -26.42578125 313 l 1,35,-1
 29.57421875 313 l 1,36,-1
 209.974609375 1452 l 1,37,-1
 160.974609375 1452 l 1,38,-1
 185.216796875 1624 l 1,39,-1
 365.216796875 1624 l 1,40,-1
 157.57421875 313 l 1,41,-1
 247.57421875 313 l 1,42,-1
 220.33203125 141 l 1,43,-1
 -55.66796875 141 l 1,34,-1
EndSplineSet
EndChar

StartChar: lslash
Encoding: 322 322 343
Width: 512
VWidth: 2441
GlyphClass: 1
Flags: HW
LayerCount: 2
Fore
SplineSet
-11 0 m 1,0,-1
 18.7763671875 188 l 1,1,-1
 157.776367188 188 l 1,2,-1
 225.723632812 617 l 1,3,-1
 143.219726562 557 l 1,4,-1
 183.450195312 811 l 1,5,-1
 265.953125 871 l 1,6,-1
 355.28125 1435 l 1,7,-1
 224.28125 1435 l 1,8,-1
 254.216796875 1624 l 1,9,-1
 554.216796875 1624 l 1,10,-1
 450.158203125 967 l 1,11,-1
 547.927734375 1035 l 1,12,-1
 507.22265625 778 l 1,13,-1
 409.135742188 708 l 1,14,-1
 326.776367188 188 l 1,15,-1
 467.776367188 188 l 1,16,-1
 435 0 l 1,17,-1
 -11 0 l 1,0,-1
EndSplineSet
EndChar

StartChar: m
Encoding: 109 109 344
Width: 512
VWidth: 2441
GlyphClass: 2
Flags: HW
AnchorPoint: "Anchor-2" 183 0 basechar 0
AnchorPoint: "Anchor-0" 612.757 1116 basechar 0
LayerCount: 2
Fore
SplineSet
-64 0 m 1,0,-1
 115.766601562 1135 l 1,1,-1
 228.766601562 1135 l 1,2,-1
 211.34375 1025 l 1,3,4
 234.005859375 1086 234.005859375 1086 258.024414062 1124 c 128,-1,5
 282.04296875 1162 282.04296875 1162 312.04296875 1162 c 0,6,7
 344.04296875 1162 344.04296875 1162 355.415039062 1117 c 128,-1,8
 366.788085938 1072 366.788085938 1072 361.225585938 999 c 1,9,10
 385.788085938 1072 385.788085938 1072 419.415039062 1117 c 128,-1,11
 453.04296875 1162 453.04296875 1162 489.04296875 1162 c 0,12,13
 538.04296875 1162 538.04296875 1162 558.030273438 1083 c 0,14,15
 576.329101562 1010.67578125 576.329101562 1010.67578125 555.846679688 881.359375 c 0,16,17
 553.956054688 869.422851562 553.956054688 869.422851562 551.735351562 857 c 2,18,-1
 416 0 l 1,19,-1
 291 0 l 1,20,-1
 420.875 820 l 2,21,22
 438.614257812 932 438.614257812 932 438.76171875 964.5 c 128,-1,23
 438.909179688 997 438.909179688 997 428.909179688 997 c 0,24,25
 404.909179688 997 404.909179688 997 387.430664062 934 c 128,-1,26
 369.953125 871 369.953125 871 353.48046875 767 c 2,27,-1
 232 0 l 1,28,-1
 120 0 l 1,29,-1
 247.658203125 806 l 2,30,31
 265.713867188 920 265.713867188 920 267.07421875 957 c 128,-1,32
 268.434570312 994 268.434570312 994 255.434570312 994 c 0,33,34
 240.434570312 994 240.434570312 994 221.540039062 941 c 128,-1,35
 202.645507812 888 202.645507812 888 184.58984375 774 c 2,36,-1
 62 0 l 1,37,-1
 -64 0 l 1,0,-1
EndSplineSet
EndChar

StartChar: n
Encoding: 110 110 346
Width: 512
VWidth: 2441
GlyphClass: 2
Flags: HW
AnchorPoint: "Anchor-2" 214 0 basechar 0
AnchorPoint: "Anchor-0" 397.757 1116 basechar 0
LayerCount: 2
Fore
SplineSet
-35 0 m 1,0,-1
 144.766601562 1135 l 1,1,-1
 309.766601562 1135 l 1,2,-1
 283.94921875 972 l 1,3,4
 320.887695312 1060 320.887695312 1060 368.46484375 1111 c 128,-1,5
 416.04296875 1162 416.04296875 1162 470.04296875 1162 c 0,6,7
 522.04296875 1162 522.04296875 1162 552.553710938 1130.5 c 128,-1,8
 583.064453125 1099 583.064453125 1099 586.334960938 1006 c 128,-1,9
 589.60546875 913 589.60546875 913 560.62109375 730 c 2,10,-1
 445 0 l 1,11,-1
 282 0 l 1,12,-1
 396.829101562 725 l 2,13,14
 419.635742188 869 419.635742188 869 414.896484375 918 c 128,-1,15
 410.158203125 967 410.158203125 967 382.158203125 967 c 0,16,17
 344.158203125 967 344.158203125 967 301.620117188 891 c 128,-1,18
 259.083007812 815 259.083007812 815 235.484375 666 c 2,19,-1
 130 0 l 1,20,-1
 -35 0 l 1,0,-1
EndSplineSet
EndChar

StartChar: eng
Encoding: 331 331 352
Width: 512
VWidth: 2292
GlyphClass: 1
Flags: HW
LayerCount: 2
Fore
SplineSet
150.037109375 -246 m 0,0,1
 122.037109375 -246 122.037109375 -246 85.17578125 -232.5 c 128,-1,2
 48.3134765625 -219 48.3134765625 -219 29.2236328125 -188 c 1,3,-1
 91.7236328125 -27 l 1,4,5
 102.407226562 -29 102.407226562 -29 104.768554688 -42.5 c 128,-1,6
 107.130859375 -56 107.130859375 -56 114.333984375 -70.5 c 128,-1,7
 121.537109375 -85 121.537109375 -85 152.537109375 -85 c 0,8,9
 206.537109375 -85 206.537109375 -85 232.336914062 -10.5 c 128,-1,10
 258.13671875 64 258.13671875 64 284.586914062 231 c 2,11,-1
 363.303710938 728 l 2,12,13
 388.645507812 888 388.645507812 888 385.643554688 938.5 c 128,-1,14
 382.642578125 989 382.642578125 989 356.642578125 989 c 0,15,16
 319.642578125 989 319.642578125 989 281.580078125 916 c 128,-1,17
 243.518554688 843 243.518554688 843 221.185546875 702 c 2,18,-1
 131.223632812 134 l 1,19,-1
 -18.7763671875 134 l 1,20,-1
 140.241210938 1138 l 1,21,-1
 290.241210938 1138 l 1,22,-1
 267.275390625 993 l 1,23,24
 305.688476562 1084 305.688476562 1084 340.366210938 1123 c 128,-1,25
 375.04296875 1162 375.04296875 1162 432.04296875 1162 c 0,26,27
 475.04296875 1162 475.04296875 1162 502.419921875 1126.5 c 128,-1,28
 529.797851562 1091 529.797851562 1091 534.909179688 997 c 128,-1,29
 540.021484375 903 540.021484375 903 512.9375 732 c 2,30,-1
 437.387695312 255 l 2,31,32
 407.611328125 67 407.611328125 67 366.34765625 -42 c 128,-1,33
 325.083984375 -151 325.083984375 -151 272.560546875 -198.5 c 128,-1,34
 220.037109375 -246 220.037109375 -246 150.037109375 -246 c 0,0,1
EndSplineSet
EndChar

StartChar: o
Encoding: 111 111 355
Width: 512
VWidth: 2441
GlyphClass: 2
Flags: HW
AnchorPoint: "Anchor-4" 266.537 559 basechar 0
AnchorPoint: "Anchor-3" 215.801 24 basechar 0
AnchorPoint: "Anchor-2" 178 0 basechar 0
AnchorPoint: "Anchor-1" 462.68 1065 basechar 0
AnchorPoint: "Anchor-0" 354.757 1116 basechar 0
LayerCount: 2
Fore
SplineSet
204.291992188 166 m 128,-1,1
 253.291992188 166 253.291992188 166 288.125976562 256.5 c 128,-1,2
 322.958984375 347 322.958984375 347 357.329101562 564 c 0,3,4
 392.806640625 788 392.806640625 788 387.037109375 881 c 128,-1,5
 381.266601562 974 381.266601562 974 332.266601562 974 c 0,6,7
 285.266601562 974 285.266601562 974 247.616210938 881.5 c 128,-1,8
 209.96484375 789 209.96484375 789 174.329101562 564 c 0,9,10
 139.958984375 347 139.958984375 347 147.625976562 256.5 c 128,-1,0
 155.291992188 166 155.291992188 166 204.291992188 166 c 128,-1,1
174.990234375 -19 m 128,-1,12
 100.990234375 -19 100.990234375 -19 55.568359375 32 c 128,-1,13
 10.1455078125 83 10.1455078125 83 0.1025390625 209 c 128,-1,14
 -9.94140625 335 -9.94140625 335 25.537109375 559 c 0,15,16
 63.07421875 796 63.07421875 796 113.743164062 926.5 c 128,-1,17
 164.412109375 1057 164.412109375 1057 226.227539062 1109.5 c 128,-1,18
 288.04296875 1162 288.04296875 1162 362.04296875 1162 c 128,-1,19
 436.04296875 1162 436.04296875 1162 481.227539062 1109.5 c 128,-1,20
 526.412109375 1057 526.412109375 1057 534.743164062 926.5 c 128,-1,21
 543.07421875 796 543.07421875 796 505.537109375 559 c 0,22,23
 470.05859375 335 470.05859375 335 421.102539062 209 c 128,-1,24
 372.145507812 83 372.145507812 83 310.568359375 32 c 128,-1,11
 248.990234375 -19 248.990234375 -19 174.990234375 -19 c 128,-1,12
EndSplineSet
Substitution2: "Single Substitution lookup 29 subtable" ordmasculine
Substitution2: "'aalt' Access All Alternates in Latin lookup 0 subtable" ordmasculine
EndChar

StartChar: oslash
Encoding: 248 248 383
Width: 512
VWidth: 2441
GlyphClass: 2
Flags: HW
AnchorPoint: "Anchor-4" 266.537 559 basechar 0
AnchorPoint: "Anchor-3" 215.801 24 basechar 0
AnchorPoint: "Anchor-2" 178 0 basechar 0
AnchorPoint: "Anchor-1" 462.68 1065 basechar 0
AnchorPoint: "Anchor-0" 354.757 1116 basechar 0
LayerCount: 2
Fore
SplineSet
204.291992188 166 m 0,0,1
 253.291992188 166 253.291992188 166 288.125976562 256.5 c 128,-1,2
 322.958984375 347 322.958984375 347 357.329101562 564 c 0,3,4
 370.158203125 645 370.158203125 645 377.344726562 703 c 1,5,-1
 168.142578125 184 l 1,6,7
 183.291992188 166 183.291992188 166 204.291992188 166 c 0,0,1
174.329101562 564 m 0,8,9
 162.766601562 491 162.766601562 491 156.213867188 437 c 1,10,-1
 365.57421875 957 l 1,11,12
 353.266601562 974 353.266601562 974 332.266601562 974 c 0,13,14
 285.266601562 974 285.266601562 974 247.537109375 881 c 128,-1,15
 209.806640625 788 209.806640625 788 174.329101562 564 c 0,8,9
47.15234375 -119 m 1,16,-1
 -49.87890625 -75 l 1,17,-1
 20.046875 95 l 1,18,19
 -2.5 161 -2.5 161 -1.9443359375 275 c 128,-1,20
 -1.388671875 389 -1.388671875 389 25.537109375 559 c 0,21,22
 63.07421875 796 63.07421875 796 113.743164062 926.5 c 128,-1,23
 164.412109375 1057 164.412109375 1057 226.227539062 1109.5 c 128,-1,24
 288.04296875 1162 288.04296875 1162 362.04296875 1162 c 0,25,26
 407.04296875 1162 407.04296875 1162 441.508789062 1146 c 1,27,-1
 486.564453125 1260 l 1,28,-1
 583.595703125 1216 l 1,29,-1
 513.51171875 1045 l 1,30,31
 537.741210938 977 537.741210938 977 536.2109375 860 c 128,-1,32
 534.6796875 743 534.6796875 743 505.537109375 559 c 0,33,34
 470.05859375 335 470.05859375 335 421.102539062 209 c 128,-1,35
 372.145507812 83 372.145507812 83 310.068359375 32 c 128,-1,36
 247.990234375 -19 247.990234375 -19 174.990234375 -19 c 0,37,38
 127.990234375 -19 127.990234375 -19 92.68359375 -2 c 1,39,-1
 47.15234375 -119 l 1,16,-1
EndSplineSet
EndChar

StartChar: oe
Encoding: 339 339 389
Width: 512
VWidth: 2441
GlyphClass: 1
Flags: HW
LayerCount: 2
Fore
SplineSet
76.015625 139 m 0,0,1
 87.015625 139 87.015625 139 100.708007812 156 c 128,-1,2
 114.400390625 173 114.400390625 173 121.369140625 217 c 0,3,4
 122.161132812 222 122.161132812 222 123.299804688 235.5 c 128,-1,5
 124.4375 249 124.4375 249 127.239257812 273 c 0,6,7
 143.639648438 446 143.639648438 446 163.021484375 581 c 0,8,9
 185.51171875 723 185.51171875 723 202.416015625 795 c 128,-1,10
 219.319335938 867 219.319335938 867 221.853515625 883 c 0,11,12
 229.138671875 929 229.138671875 929 227.756835938 955 c 128,-1,13
 226.375 981 226.375 981 207.375 981 c 0,14,15
 194.375 981 194.375 981 179.385742188 949.5 c 128,-1,16
 164.396484375 918 164.396484375 918 143.696289062 831.5 c 128,-1,17
 122.99609375 745 122.99609375 745 97.337890625 583 c 0,18,19
 68.6708984375 402 68.6708984375 402 59.4658203125 306 c 128,-1,20
 50.2607421875 210 50.2607421875 210 55.6376953125 174.5 c 128,-1,21
 61.015625 139 61.015625 139 76.015625 139 c 0,0,1
290.918945312 694 m 1,22,-1
 378.918945312 694 l 1,23,24
 406.319335938 867 406.319335938 867 409.876953125 930.5 c 128,-1,25
 413.434570312 994 413.434570312 994 383.434570312 994 c 128,-1,26
 353.434570312 994 353.434570312 994 334.767578125 923.5 c 128,-1,27
 316.1015625 853 316.1015625 853 290.918945312 694 c 1,22,-1
253.248046875 -30 m 0,28,29
 214.248046875 -30 214.248046875 -30 186.57421875 -9 c 128,-1,30
 158.900390625 12 158.900390625 12 149.286132812 46 c 1,31,32
 126.7421875 11 126.7421875 11 100.233398438 -8 c 128,-1,33
 73.7236328125 -27 73.7236328125 -27 39.7236328125 -27 c 0,34,35
 11.7236328125 -27 11.7236328125 -27 -9.6337890625 -4 c 128,-1,36
 -30.990234375 19 -30.990234375 19 -41.75 80.5 c 128,-1,37
 -52.509765625 142 -52.509765625 142 -47.3740234375 256.5 c 128,-1,38
 -42.2392578125 371 -42.2392578125 371 -12.7802734375 557 c 0,39,40
 23.0146484375 783 23.0146484375 783 60.7880859375 911 c 128,-1,41
 98.5615234375 1039 98.5615234375 1039 141.53515625 1092.5 c 128,-1,42
 184.508789062 1146 184.508789062 1146 233.508789062 1146 c 0,43,44
 263.508789062 1146 263.508789062 1146 282.840820312 1126 c 128,-1,45
 302.172851562 1106 302.172851562 1106 311.887695312 1060 c 1,46,47
 338.172851562 1106 338.172851562 1106 366.340820312 1126 c 128,-1,48
 394.508789062 1146 394.508789062 1146 423.508789062 1146 c 0,49,50
 486.508789062 1146 486.508789062 1146 504.987304688 1048 c 128,-1,51
 523.46484375 950 523.46484375 950 482.443359375 691 c 2,52,-1
 456.151367188 525 l 1,53,-1
 262.151367188 525 l 1,54,55
 237.860351562 359 237.860351562 359 231.818359375 273.5 c 128,-1,56
 225.776367188 188 225.776367188 188 238.341796875 160 c 128,-1,57
 250.907226562 132 250.907226562 132 278.907226562 132 c 0,58,59
 333.907226562 132 333.907226562 132 377.794921875 226 c 1,60,-1
 391.512695312 79 l 1,61,62
 324.248046875 -30 324.248046875 -30 253.248046875 -30 c 0,28,29
EndSplineSet
EndChar

StartChar: p
Encoding: 112 112 390
Width: 512
VWidth: 2307
GlyphClass: 2
Flags: HW
AnchorPoint: "Anchor-2" 214.006 120 basechar 0
AnchorPoint: "Anchor-0" 375.083 1137 basechar 0
LayerCount: 2
Fore
SplineSet
235.86328125 258 m 0,0,1
 262.86328125 258 262.86328125 258 285.1640625 282 c 128,-1,2
 307.465820312 306 307.465820312 306 329.240234375 383.5 c 128,-1,3
 351.015625 461 351.015625 461 376.356445312 621 c 0,4,5
 401.22265625 778 401.22265625 778 406.631835938 859.5 c 128,-1,6
 412.040039062 941 412.040039062 941 399.211914062 970.5 c 128,-1,7
 386.384765625 1000 386.384765625 1000 355.384765625 1000 c 0,8,9
 311.384765625 1000 311.384765625 1000 266.571289062 897 c 128,-1,10
 221.756835938 794 221.756835938 794 188.813476562 586 c 0,11,12
 169.90625 454 169.90625 454 173.161132812 383 c 128,-1,13
 176.416015625 312 176.416015625 312 193.639648438 285 c 128,-1,14
 210.86328125 258 210.86328125 258 235.86328125 258 c 0,0,1
-88.962890625 -246 m 1,15,-1
 130.083007812 1137 l 1,16,-1
 281.083007812 1137 l 1,17,-1
 260.334960938 1006 l 1,18,19
 288.580078125 1077 288.580078125 1077 328.153320312 1118.5 c 128,-1,20
 367.725585938 1160 367.725585938 1160 417.725585938 1160 c 0,21,22
 457.725585938 1160 457.725585938 1160 489.954101562 1142.5 c 128,-1,23
 522.182617188 1125 522.182617188 1125 541.05078125 1070.5 c 128,-1,24
 559.918945312 1016 559.918945312 1016 558.05078125 909.5 c 128,-1,25
 556.182617188 803 556.182617188 803 528.306640625 627 c 0,26,27
 494.887695312 416 494.887695312 416 455.094726562 300.5 c 128,-1,28
 415.30078125 185 415.30078125 185 364.015625 139 c 128,-1,29
 312.729492188 93 312.729492188 93 246.729492188 93 c 0,30,31
 150.729492188 93 150.729492188 93 138.6953125 238 c 1,32,-1
 62.037109375 -246 l 1,33,-1
 -88.962890625 -246 l 1,15,-1
EndSplineSet
EndChar

StartChar: thorn
Encoding: 254 254 391
Width: 512
VWidth: 2374
GlyphClass: 1
Flags: HW
LayerCount: 2
Fore
SplineSet
237.921875 271 m 0,0,1
 264.921875 271 264.921875 271 287.802734375 295.5 c 128,-1,2
 310.682617188 320 310.682617188 320 332.774414062 399.5 c 128,-1,3
 354.866210938 479 354.866210938 479 381 644 c 0,4,5
 406.499023438 805 406.499023438 805 412.224609375 888.5 c 128,-1,6
 417.94921875 972 417.94921875 972 404.701171875 1002 c 128,-1,7
 391.453125 1032 391.453125 1032 360.453125 1032 c 0,8,9
 316.453125 1032 316.453125 1032 271.822265625 927 c 128,-1,10
 227.192382812 822 227.192382812 822 193.297851562 608 c 0,11,12
 173.916015625 473 173.916015625 473 176.853515625 400 c 128,-1,13
 179.791992188 327 179.791992188 327 196.357421875 299 c 128,-1,14
 212.921875 271 212.921875 271 237.921875 271 c 0,0,1
207.216796875 1624 m 1,15,-1
 378.216796875 1624 l 1,16,-1
 375.682617188 1608 l 1,17,18
 360.623046875 1595 360.623046875 1595 354.588867188 1579 c 128,-1,19
 348.5546875 1563 348.5546875 1563 342.536132812 1525 c 2,20,-1
 265.561523438 1039 l 1,21,22
 293.96484375 1111 293.96484375 1111 334.275390625 1154 c 128,-1,23
 374.5859375 1197 374.5859375 1197 424.5859375 1197 c 0,24,25
 464.5859375 1197 464.5859375 1197 496.735351562 1179 c 128,-1,26
 528.884765625 1161 528.884765625 1161 547.514648438 1105 c 128,-1,27
 566.145507812 1049 566.145507812 1049 563.801757812 939.5 c 128,-1,28
 561.458984375 830 561.458984375 830 532.950195312 650 c 0,29,30
 498.739257812 434 498.739257812 434 458.390625 315 c 128,-1,31
 418.04296875 196 418.04296875 196 366.599609375 149 c 128,-1,32
 315.155273438 102 315.155273438 102 249.155273438 102 c 0,33,34
 153.155273438 102 153.155273438 102 140.754882812 251 c 1,35,-1
 62.037109375 -246 l 1,36,-1
 -88.962890625 -246 l 1,37,-1
 207.216796875 1624 l 1,15,-1
EndSplineSet
EndChar

StartChar: q
Encoding: 113 113 392
Width: 512
VWidth: 2308
GlyphClass: 1
Flags: HW
LayerCount: 2
Fore
SplineSet
214.813476562 264 m 0,0,1
 260.813476562 264 260.813476562 264 294.879882812 346.5 c 128,-1,2
 328.947265625 429 328.947265625 429 363.6328125 648 c 0,3,4
 396.260742188 854 396.260742188 854 385.138671875 929 c 128,-1,5
 374.017578125 1004 374.017578125 1004 332.017578125 1004 c 0,6,7
 303.017578125 1004 303.017578125 1004 279.370117188 971.5 c 128,-1,8
 255.72265625 939 255.72265625 939 234.314453125 857.5 c 128,-1,9
 212.90625 776 212.90625 776 189.782226562 630 c 0,10,11
 167.291992188 488 167.291992188 488 163.12109375 408 c 128,-1,12
 158.950195312 328 158.950195312 328 172.381835938 296 c 128,-1,13
 185.813476562 264 185.813476562 264 214.813476562 264 c 0,0,1
224.037109375 -246 m 1,14,-1
 300.6953125 238 l 1,15,16
 266.549804688 155 266.549804688 155 232.797851562 125 c 128,-1,17
 202.115234375 97.7275390625 202.115234375 97.7275390625 158.395507812 97.7275390625 c 0,0,0
 154.024414062 97.7275390625 154.024414062 97.7275390625 149.521484375 98 c 0,18,19
 43.1552734375 102 43.1552734375 102 18.2705078125 229 c 128,-1,20
 -6.615234375 356 -6.615234375 356 35.83203125 624 c 0,21,22
 71.3095703125 848 71.3095703125 848 115.603515625 963.5 c 128,-1,23
 159.896484375 1079 159.896484375 1079 212.70703125 1122 c 128,-1,24
 265.517578125 1165 265.517578125 1165 324.517578125 1165 c 0,25,26
 376.517578125 1165 376.517578125 1165 399.26171875 1125.5 c 128,-1,27
 422.005859375 1086 422.005859375 1086 424.334960938 1006 c 1,28,-1
 445.241210938 1138 l 1,29,-1
 594.241210938 1138 l 1,30,-1
 375.037109375 -246 l 1,31,-1
 224.037109375 -246 l 1,14,-1
EndSplineSet
EndChar

StartChar: r
Encoding: 114 114 393
Width: 512
VWidth: 2441
GlyphClass: 2
Flags: HW
AnchorPoint: "Anchor-2" 193 0 basechar 0
AnchorPoint: "Anchor-0" 398.757 1116 basechar 0
LayerCount: 2
Fore
SplineSet
138.766601562 1135 m 1,0,-1
 293.766601562 1135 l 1,1,-1
 269.05859375 979 l 1,2,3
 306.104492188 1074 306.104492188 1074 362.811523438 1119.5 c 0,4,5
 416.010742188 1162.18554688 416.010742188 1162.18554688 462.008789062 1162.18554688 c 0,6,7
 465.041015625 1162.18554688 465.041015625 1162.18554688 468.04296875 1162 c 0,8,9
 525.04296875 1162 525.04296875 1162 556.366210938 1123 c 128,-1,10
 587.688476562 1084 587.688476562 1084 600.551757812 1020 c 1,11,-1
 513.635742188 869 l 1,12,-1
 504.309570312 848 l 1,13,-1
 491.943359375 852 l 1,14,15
 485.953125 871 485.953125 871 485.174804688 894.5 c 128,-1,16
 484.396484375 918 484.396484375 918 465.1484375 948 c 1,17,18
 442.424804688 975 442.424804688 975 416.266601562 974 c 0,19,20
 383.266601562 974 383.266601562 974 344.83203125 946 c 128,-1,21
 306.396484375 918 306.396484375 918 269.04296875 840 c 128,-1,22
 231.688476562 762 231.688476562 762 206.981445312 606 c 2,23,-1
 110.68359375 -2 l 1,24,-1
 -41.31640625 -2 l 1,25,-1
 138.766601562 1135 l 1,0,-1
EndSplineSet
EndChar

StartChar: uni027B
Encoding: 635 635 399
Width: 512
VWidth: 2285
GlyphClass: 1
Flags: HW
LayerCount: 2
Fore
SplineSet
265.037109375 -246 m 0,0,1
 224.037109375 -246 224.037109375 -246 189.655273438 -220 c 128,-1,2
 155.2734375 -194 155.2734375 -194 142.751953125 -131 c 128,-1,3
 130.229492188 -68 130.229492188 -68 148.286132812 46 c 2,4,-1
 178.63671875 225 l 1,5,6
 155.133789062 165 155.133789062 165 119.778320312 137.5 c 128,-1,7
 84.421875 110 84.421875 110 54.421875 110 c 0,8,9
 21.421875 110 21.421875 110 -5.78125 124.5 c 128,-1,10
 -32.984375 139 -32.984375 139 -52.2236328125 188 c 1,11,-1
 6.0185546875 360 l 1,12,-1
 13.6611328125 383 l 1,13,-1
 21.02734375 379 l 1,14,15
 24.96875 366 24.96875 366 22.7763671875 349 c 128,-1,16
 20.583984375 332 20.583984375 332 27.890625 315 c 0,17,18
 51.763671875 270 51.763671875 270 82.763671875 270 c 0,19,20
 129.763671875 270 129.763671875 270 168.008789062 341 c 128,-1,21
 206.25390625 412 206.25390625 412 235.555664062 597 c 2,22,-1
 321.083007812 1137 l 1,23,-1
 463.083007812 1137 l 1,24,-1
 290.286132812 46 l 2,25,26
 278.248046875 -30 278.248046875 -30 280.705078125 -65 c 128,-1,27
 283.161132812 -100 283.161132812 -100 308.161132812 -100 c 0,28,29
 328.161132812 -100 328.161132812 -100 343.854492188 -83 c 0,30,31
 351.596679688 -72 351.596679688 -72 355.497070312 -60 c 128,-1,32
 359.397460938 -48 359.397460938 -48 370.03125 -44 c 1,33,-1
 367.2734375 -194 l 1,34,35
 342.521484375 -224 342.521484375 -224 317.279296875 -235 c 128,-1,36
 292.037109375 -246 292.037109375 -246 265.037109375 -246 c 0,0,1
EndSplineSet
EndChar

StartChar: uni024D
Encoding: 589 589 402
Width: 512
VWidth: 2441
GlyphClass: 2
Flags: HW
AnchorPoint: "Anchor-2" 181 0 basechar 0
AnchorPoint: "Anchor-0" 384.757 1116 basechar 0
LayerCount: 2
Fore
SplineSet
0.62109375 408 m 1,0,-1
 30.7138671875 598 l 1,1,-1
 51.7138671875 598 l 1,2,-1
 136.766601562 1135 l 1,3,-1
 284.766601562 1135 l 1,4,-1
 260.05859375 979 l 1,5,6
 296.104492188 1074 296.104492188 1074 350.811523438 1119.5 c 0,7,8
 402.133789062 1162.18554688 402.133789062 1162.18554688 445.375976562 1162.18554688 c 0,9,10
 448.2265625 1162.18554688 448.2265625 1162.18554688 451.04296875 1162 c 0,11,12
 506.04296875 1162 506.04296875 1162 535.866210938 1123 c 128,-1,13
 565.688476562 1084 565.688476562 1084 577.551757812 1020 c 1,14,-1
 493.635742188 869 l 1,15,-1
 484.309570312 848 l 1,16,-1
 471.943359375 852 l 1,17,18
 466.953125 871 466.953125 871 466.174804688 894.5 c 128,-1,19
 465.396484375 918 465.396484375 918 447.1484375 948 c 1,20,21
 425.424804688 975 425.424804688 975 401.266601562 974 c 0,22,23
 369.266601562 974 369.266601562 974 332.33203125 946 c 128,-1,24
 295.396484375 918 295.396484375 918 259.04296875 840 c 128,-1,25
 222.688476562 762 222.688476562 762 197.981445312 606 c 2,26,-1
 196.713867188 598 l 1,27,-1
 343.713867188 598 l 1,28,-1
 313.62109375 408 l 1,29,-1
 166.62109375 408 l 1,30,-1
 101.68359375 -2 l 1,31,-1
 -43.31640625 -2 l 1,32,-1
 21.62109375 408 l 1,33,-1
 0.62109375 408 l 1,0,-1
EndSplineSet
EndChar

StartChar: s
Encoding: 115 115 403
Width: 512
VWidth: 2441
GlyphClass: 1
Flags: HW
LayerCount: 2
Fore
SplineSet
173.19921875 -24 m 0,0,1
 91.19921875 -24 91.19921875 -24 40.4755859375 3 c 128,-1,2
 -10.248046875 30 -10.248046875 30 -39.021484375 63 c 1,3,-1
 45.4287109375 230 l 1,4,-1
 56.2294921875 254 l 1,5,-1
 68.12109375 247 l 1,6,7
 74.4287109375 230 74.4287109375 230 82.236328125 213 c 128,-1,8
 90.04296875 196 90.04296875 196 117.400390625 173 c 0,9,10
 148.07421875 152 148.07421875 152 189.916015625 151 c 0,11,12
 230.916015625 151 230.916015625 151 264.518554688 199 c 128,-1,13
 298.12109375 247 298.12109375 247 308.890625 315 c 0,14,15
 316.96875 366 316.96875 366 305.4921875 413.5 c 128,-1,16
 294.015625 461 294.015625 461 240.984375 505 c 0,17,18
 173.170898438 563 173.170898438 563 129.048828125 638 c 128,-1,19
 84.927734375 713 84.927734375 713 107.418945312 855 c 0,20,21
 127.05859375 979 127.05859375 979 199.55078125 1070.5 c 128,-1,22
 272.04296875 1162 272.04296875 1162 386.04296875 1162 c 0,23,24
 557.04296875 1162 557.04296875 1162 592.551757812 1020 c 1,25,-1
 503.853515625 883 l 1,26,-1
 491.52734375 862 l 1,27,-1
 478.635742188 869 l 1,28,29
 474.645507812 888 474.645507812 888 471.471679688 909 c 128,-1,30
 468.297851562 930 468.297851562 930 447.048828125 960 c 0,31,32
 425.13671875 986.036132812 425.13671875 986.036132812 380.50390625 986.036132812 c 0,33,34
 378.8515625 986.036132812 378.8515625 986.036132812 377.166992188 986 c 0,35,36
 332.166992188 986 332.166992188 986 304.885742188 949.5 c 128,-1,37
 277.60546875 913 277.60546875 913 269.051757812 859 c 0,38,39
 259.07421875 796 259.07421875 796 280.000976562 754.5 c 128,-1,40
 300.927734375 713 300.927734375 713 358.850585938 662 c 0,41,42
 410.564453125 616 410.564453125 616 440.174804688 572.5 c 128,-1,43
 469.78515625 529 469.78515625 529 477.2578125 472 c 128,-1,44
 484.729492188 415 484.729492188 415 470.31640625 324 c 0,45,46
 440.857421875 138 440.857421875 138 358.528320312 57 c 128,-1,47
 276.19921875 -24 276.19921875 -24 173.19921875 -24 c 0,0,1
EndSplineSet
EndChar

StartChar: germandbls
Encoding: 223 223 414
Width: 512
VWidth: 2441
GlyphClass: 1
Flags: HW
LayerCount: 2
Fore
SplineSet
223.19921875 -24 m 0,0,1
 193.19921875 -24 193.19921875 -24 170.94140625 -13 c 128,-1,2
 148.68359375 -2 148.68359375 -2 127.692382812 17 c 1,3,-1
 179.568359375 193 l 1,4,5
 194.708007812 156 194.708007812 156 228.708007812 156 c 0,6,7
 264.708007812 156 264.708007812 156 294.012695312 240 c 128,-1,8
 323.31640625 324 323.31640625 324 346.598632812 471 c 0,9,10
 367.981445312 606 367.981445312 606 364.993164062 685 c 128,-1,11
 362.005859375 764 362.005859375 764 291.005859375 764 c 2,12,-1
 267.005859375 764 l 1,13,-1
 296.782226562 952 l 1,14,-1
 322.782226562 952 l 2,15,16
 377.782226562 952 377.782226562 952 416.5859375 1197 c 0,17,18
 436.225585938 1321 436.225585938 1321 432.307617188 1381.5 c 128,-1,19
 428.390625 1442 428.390625 1442 390.390625 1442 c 0,20,21
 351.390625 1442 351.390625 1442 320.393554688 1341 c 128,-1,22
 289.396484375 1240 289.396484375 1240 257.245117188 1037 c 2,23,-1
 93 0 l 1,24,-1
 -58 0 l 1,25,-1
 105.453125 1032 l 2,26,27
 142.198242188 1264 142.198242188 1264 186.446289062 1395 c 128,-1,28
 230.694335938 1526 230.694335938 1526 286.16796875 1579.5 c 128,-1,29
 341.641601562 1633 341.641601562 1633 409.641601562 1633 c 0,30,31
 503.641601562 1633 503.641601562 1633 552.01171875 1528 c 128,-1,32
 600.380859375 1423 600.380859375 1423 565.6953125 1204 c 0,33,34
 549.064453125 1099 549.064453125 1099 518.443359375 1013 c 128,-1,35
 487.822265625 927 487.822265625 927 439.537109375 881 c 1,36,37
 486.676757812 844 486.676757812 844 505.416992188 744.5 c 128,-1,38
 524.158203125 645 524.158203125 645 492.005859375 442 c 0,39,40
 463.337890625 261 463.337890625 261 421.762695312 159.5 c 128,-1,41
 380.186523438 58 380.186523438 58 329.192382812 17 c 128,-1,42
 278.19921875 -24 278.19921875 -24 223.19921875 -24 c 0,0,1
EndSplineSet
EndChar

StartChar: t
Encoding: 116 116 415
Width: 512
VWidth: 2441
GlyphClass: 2
Flags: HW
AnchorPoint: "Anchor-4" 259.688 762 basechar 0
AnchorPoint: "Anchor-2" 229 0 basechar 0
AnchorPoint: "Anchor-1" 431.767 1135 basechar 0
AnchorPoint: "Anchor-0" 398.965 1433 basechar 0
LayerCount: 2
Fore
SplineSet
256.248046875 -30 m 0,0,1
 177.248046875 -30 177.248046875 -30 140.905273438 21.5 c 128,-1,2
 104.5625 73 104.5625 73 107.918945312 211 c 0,3,4
 110.6796875 324.466796875 110.6796875 324.466796875 141.392578125 518.3828125 c 0,5,6
 148.033203125 560.311523438 148.033203125 560.311523438 155.981445312 606 c 2,7,-1
 208.1796875 904 l 1,8,-1
 104.1796875 904 l 1,9,-1
 133.797851562 1091 l 1,10,-1
 241.797851562 1091 l 1,11,-1
 297.0546875 1402 l 1,12,-1
 472.380859375 1423 l 1,13,-1
 496.856445312 1426 l 1,14,-1
 496.1640625 1409 l 1,15,16
 482.470703125 1392 482.470703125 1392 472.278320312 1375 c 128,-1,17
 462.0859375 1358 462.0859375 1358 453.43359375 1316 c 2,18,-1
 410.797851562 1091 l 1,19,-1
 563.797851562 1091 l 1,20,-1
 534.1796875 904 l 1,21,-1
 381.1796875 904 l 1,22,-1
 323.080078125 594 l 2,23,24
 310.897460938 528.754882812 310.897460938 528.754882812 302.2265625 474.010742188 c 0,25,26
 278.073242188 321.509765625 278.073242188 321.509765625 281.17578125 250.5 c 0,27,28
 285.391601562 154 285.391601562 154 336.391601562 154 c 0,29,30
 371.391601562 154 371.391601562 154 401.216796875 175 c 128,-1,31
 431.04296875 196 431.04296875 196 450.686523438 219 c 1,32,-1
 449.869140625 56 l 1,33,34
 407.108398438 7 407.108398438 7 354.678710938 -11.5 c 128,-1,35
 302.248046875 -30 302.248046875 -30 256.248046875 -30 c 0,0,1
EndSplineSet
EndChar

StartChar: tbar
Encoding: 359 359 416
Width: 512
VWidth: 2441
GlyphClass: 2
Flags: HW
AnchorPoint: "Anchor-4" 259.688 762 basechar 0
AnchorPoint: "Anchor-2" 229 0 basechar 0
AnchorPoint: "Anchor-1" 431.767 1135 basechar 0
AnchorPoint: "Anchor-0" 398.965 1433 basechar 0
LayerCount: 2
Fore
SplineSet
256.248046875 -30 m 0,0,1
 182.248046875 -30 182.248046875 -30 145.955078125 15.5 c 128,-1,2
 109.661132812 61 109.661132812 61 107.271484375 178.5 c 0,3,4
 105.08984375 285.782226562 105.08984375 285.782226562 135.483398438 477.680664062 c 0,5,6
 138.377929688 495.956054688 138.377929688 495.956054688 141.568359375 515 c 1,7,-1
 42.568359375 515 l 1,8,-1
 75.037109375 720 l 1,9,-1
 177.037109375 720 l 1,10,-1
 208.1796875 904 l 1,11,-1
 104.1796875 904 l 1,12,-1
 133.797851562 1091 l 1,13,-1
 241.797851562 1091 l 1,14,-1
 297.0546875 1402 l 1,15,-1
 472.380859375 1423 l 1,16,-1
 496.856445312 1426 l 1,17,-1
 496.1640625 1409 l 1,18,19
 482.470703125 1392 482.470703125 1392 472.278320312 1375 c 128,-1,20
 462.0859375 1358 462.0859375 1358 453.43359375 1316 c 2,21,-1
 410.797851562 1091 l 1,22,-1
 563.797851562 1091 l 1,23,-1
 534.1796875 904 l 1,24,-1
 381.1796875 904 l 1,25,-1
 348.037109375 720 l 1,26,-1
 493.037109375 720 l 1,27,-1
 460.568359375 515 l 1,28,-1
 310.568359375 515 l 1,29,30
 307.360351562 495.952148438 307.360351562 495.952148438 304.515625 477.98828125 c 0,31,32
 277.486328125 307.333007812 277.486328125 307.333007812 283.141601562 234.5 c 0,33,34
 289.391601562 154 289.391601562 154 336.391601562 154 c 0,35,36
 371.391601562 154 371.391601562 154 401.216796875 175 c 128,-1,37
 431.04296875 196 431.04296875 196 450.686523438 219 c 1,38,-1
 449.869140625 56 l 1,39,40
 407.108398438 7 407.108398438 7 354.678710938 -11.5 c 128,-1,41
 302.248046875 -30 302.248046875 -30 256.248046875 -30 c 0,0,1
EndSplineSet
EndChar

StartChar: u
Encoding: 117 117 423
Width: 512
VWidth: 2441
GlyphClass: 2
Flags: HW
AnchorPoint: "Anchor-3" 323 0 basechar 0
AnchorPoint: "Anchor-2" 173 0 basechar 0
AnchorPoint: "Anchor-1" 590.757 1116 basechar 0
AnchorPoint: "Anchor-0" 373.757 1116 basechar 0
LayerCount: 2
Fore
SplineSet
147.723632812 -27 m 0,0,1
 85.7236328125 -27 85.7236328125 -27 49.900390625 12 c 128,-1,2
 14.0771484375 51 14.0771484375 51 13.81640625 163 c 128,-1,3
 13.5556640625 275 13.5556640625 275 48.2421875 494 c 2,4,-1
 151.766601562 1135 l 1,5,-1
 317.766601562 1135 l 1,6,-1
 211.490234375 464 l 2,7,8
 190.108398438 329 190.108398438 329 185.392578125 264.5 c 128,-1,9
 180.676757812 200 180.676757812 200 191.588867188 180.5 c 128,-1,10
 202.5 161 202.5 161 225.5 161 c 0,11,12
 261.5 161 261.5 161 293.303710938 245 c 128,-1,13
 325.108398438 329 325.108398438 329 349.974609375 486 c 2,14,-1
 452.766601562 1135 l 1,15,-1
 617.766601562 1135 l 1,16,-1
 465.400390625 173 l 2,17,18
 458.431640625 129 458.431640625 129 453.200195312 86.5 c 128,-1,19
 447.96875 44 447.96875 44 450 0 c 1,20,-1
 297 0 l 1,21,22
 296.276367188 27 296.276367188 27 294.577148438 51 c 128,-1,23
 292.87890625 75 292.87890625 75 299.53125 117 c 1,24,25
 275.869140625 56 275.869140625 56 236.796875 14.5 c 128,-1,26
 197.723632812 -27 197.723632812 -27 147.723632812 -27 c 0,0,1
EndSplineSet
EndChar

StartChar: v
Encoding: 118 118 446
Width: 512
VWidth: 2441
GlyphClass: 2
Flags: HW
AnchorPoint: "Anchor-2" 194 0 basechar 0
AnchorPoint: "Anchor-0" 373.767 1135 basechar 0
LayerCount: 2
Fore
SplineSet
116 0 m 1,0,-1
 130.766601562 1135 l 1,1,-1
 273.766601562 1135 l 1,2,-1
 256.068359375 354 l 1,3,-1
 351.583007812 654 l 2,4,5
 394.96484375 789 394.96484375 789 426.263671875 914 c 128,-1,6
 457.561523438 1039 457.561523438 1039 477.766601562 1135 c 1,7,-1
 610.766601562 1135 l 1,8,9
 587.453125 1032 587.453125 1032 553.125 900.5 c 128,-1,10
 518.797851562 769 518.797851562 769 474.306640625 627 c 2,11,-1
 271 0 l 1,12,-1
 116 0 l 1,0,-1
EndSplineSet
EndChar

StartChar: w
Encoding: 119 119 447
Width: 512
VWidth: 2441
GlyphClass: 2
Flags: HW
AnchorPoint: "Anchor-2" 156 0 basechar 0
AnchorPoint: "Anchor-0" 332.757 1116 basechar 0
LayerCount: 2
Fore
SplineSet
-8.31640625 -2 m 1,0,-1
 94.7666015625 1135 l 1,1,-1
 212.766601562 1135 l 1,2,-1
 132.552734375 376 l 1,3,-1
 259.60546875 913 l 1,4,-1
 350.60546875 913 l 1,5,-1
 318.552734375 376 l 1,6,7
 374.208007812 639 374.208007812 639 407.171875 834.5 c 128,-1,8
 440.135742188 1030 440.135742188 1030 451.064453125 1099 c 2,9,-1
 456.766601562 1135 l 1,10,-1
 574.766601562 1135 l 1,11,12
 517.78515625 851 517.78515625 851 457.170898438 563 c 128,-1,13
 396.555664062 275 396.555664062 275 329.68359375 -2 c 1,14,-1
 203.68359375 -2 l 1,15,-1
 240.776367188 510 l 1,16,-1
 114.68359375 -2 l 1,17,-1
 -8.31640625 -2 l 1,0,-1
EndSplineSet
EndChar

StartChar: x
Encoding: 120 120 452
Width: 512
VWidth: 2441
GlyphClass: 2
Flags: HW
AnchorPoint: "Anchor-2" 183 0 basechar 0
AnchorPoint: "Anchor-0" 362.767 1135 basechar 0
LayerCount: 2
Fore
SplineSet
-56 0 m 1,0,-1
 200.229492188 576 l 1,1,-1
 127.766601562 1135 l 1,2,-1
 267.766601562 1135 l 1,3,-1
 307.07421875 796 l 1,4,-1
 446.766601562 1135 l 1,5,-1
 581.766601562 1135 l 1,6,-1
 343.337890625 583 l 1,7,-1
 424 0 l 1,8,-1
 280 0 l 1,9,-1
 238.176757812 361 l 1,10,-1
 88 0 l 1,11,-1
 -56 0 l 1,0,-1
EndSplineSet
EndChar

StartChar: y
Encoding: 121 121 453
Width: 512
VWidth: 2290
GlyphClass: 2
Flags: HW
AnchorPoint: "Anchor-2" 347.59 130 basechar 0
AnchorPoint: "Anchor-0" 370.767 1135 basechar 0
LayerCount: 2
Fore
SplineSet
16.037109375 -246 m 0,0,1
 -59.962890625 -246 -59.962890625 -246 -91.0341796875 -177 c 1,2,-1
 -23.009765625 -19 l 1,3,-1
 -15.68359375 2 l 1,4,-1
 -3.31640625 -2 l 1,5,6
 2.3076171875 -17 2.3076171875 -17 4.876953125 -35.5 c 128,-1,7
 7.447265625 -54 7.447265625 -54 27.962890625 -76 c 0,8,9
 35.646484375 -78 35.646484375 -78 46.646484375 -78 c 0,10,11
 79.646484375 -78 79.646484375 -78 101.83203125 -20 c 0,12,13
 124.018554688 38 124.018554688 38 157.490234375 142 c 2,14,-1
 169.826171875 182 l 1,15,-1
 128.766601562 1135 l 1,16,-1
 271.766601562 1135 l 1,17,-1
 290.586914062 553 l 1,18,-1
 344.669921875 724 l 2,19,20
 375.350585938 823 375.350585938 823 407.376953125 930.5 c 128,-1,21
 439.403320312 1038 439.403320312 1038 461.766601562 1135 c 1,22,-1
 593.766601562 1135 l 1,23,24
 570.0859375 1036 570.0859375 1036 536.084960938 925.5 c 128,-1,25
 502.083007812 815 502.083007812 815 469.086914062 714 c 2,26,-1
 234.850585938 18 l 2,27,28
 189.310546875 -118 189.310546875 -118 128.673828125 -182 c 128,-1,29
 68.037109375 -246 68.037109375 -246 16.037109375 -246 c 0,0,1
EndSplineSet
EndChar

StartChar: z
Encoding: 122 122 463
Width: 512
VWidth: 2441
GlyphClass: 2
Flags: HW
AnchorPoint: "Anchor-2" 246 0 basechar 0
AnchorPoint: "Anchor-0" 425.767 1135 basechar 0
LayerCount: 2
Fore
SplineSet
-27.400390625 149 m 1,0,-1
 378.46484375 950 l 1,1,-1
 123.46484375 950 l 1,2,-1
 152.766601562 1135 l 1,3,-1
 582.766601562 1135 l 1,4,-1
 559.166992188 986 l 1,5,-1
 160.142578125 184 l 1,6,-1
 359.142578125 184 l 2,7,8
 398.142578125 184 398.142578125 184 413.85546875 188.5 c 128,-1,9
 429.568359375 193 429.568359375 193 446.78515625 207 c 1,10,-1
 461.78515625 207 l 1,11,-1
 429 0 l 1,12,-1
 -51 0 l 1,13,-1
 -27.400390625 149 l 1,0,-1
EndSplineSet
EndChar

StartChar: u.i
Encoding: 65539 -1 468
Width: 512
VWidth: 2441
GlyphClass: 2
Flags: HW
AnchorPoint: "Anchor-3" 330 0 basechar 0
AnchorPoint: "Anchor-2" 158 0 basechar 0
AnchorPoint: "Anchor-1" 551.767 1135 basechar 0
AnchorPoint: "Anchor-0" 344.767 1135 basechar 0
LayerCount: 2
Fore
SplineSet
113.723632812 -27 m 0,0,1
 52.7236328125 -27 52.7236328125 -27 19.900390625 12 c 128,-1,2
 -12.9228515625 51 -12.9228515625 51 -13.18359375 163 c 128,-1,3
 -13.4443359375 275 -13.4443359375 275 21.2421875 494 c 2,4,-1
 124.766601562 1135 l 1,5,-1
 283.766601562 1135 l 1,6,-1
 177.490234375 464 l 2,7,8
 156.108398438 329 156.108398438 329 152.892578125 264.5 c 128,-1,9
 149.676757812 200 149.676757812 200 160.588867188 180.5 c 128,-1,10
 171.5 161 171.5 161 190.5 161 c 0,11,12
 227.5 161 227.5 161 259.303710938 245 c 128,-1,13
 291.108398438 329 291.108398438 329 315.974609375 486 c 2,14,-1
 418.766601562 1135 l 1,15,-1
 576.766601562 1135 l 1,16,-1
 424.400390625 173 l 2,17,18
 417.431640625 129 417.431640625 129 413.200195312 86.5 c 128,-1,19
 408.96875 44 408.96875 44 409 0 c 1,20,-1
 260 0 l 1,21,22
 259.276367188 27 259.276367188 27 258.577148438 51 c 128,-1,23
 257.87890625 75 257.87890625 75 264.53125 117 c 1,24,25
 240.869140625 56 240.869140625 56 202.796875 14.5 c 128,-1,26
 164.723632812 -27 164.723632812 -27 113.723632812 -27 c 0,0,1
EndSplineSet
EndChar

StartChar: r.serif
Encoding: 65540 -1 469
Width: 512
VWidth: 2441
GlyphClass: 1
Flags: HW
LayerCount: 2
Fore
SplineSet
-17.31640625 -2 m 1,0,-1
 12.4599609375 186 l 1,1,-1
 60.4599609375 186 l 1,2,-1
 181.46484375 950 l 1,3,-1
 135.46484375 950 l 1,4,-1
 164.766601562 1135 l 1,5,-1
 375.766601562 1135 l 1,6,-1
 348.583007812 976 l 1,7,8
 379.095703125 1055 379.095703125 1055 427.911132812 1107.5 c 128,-1,9
 476.725585938 1160 476.725585938 1160 522.725585938 1160 c 0,10,11
 605.725585938 1160 605.725585938 1160 627.561523438 1039 c 1,12,-1
 547.943359375 852 l 1,13,14
 529.051757812 859 529.051757812 859 528.224609375 888.5 c 128,-1,15
 527.396484375 918 527.396484375 918 520.435546875 943.5 c 128,-1,16
 513.474609375 969 513.474609375 969 471.474609375 969 c 0,17,18
 421.474609375 969 421.474609375 969 369.190429688 872.5 c 128,-1,19
 316.90625 776 316.90625 776 290.614257812 610 c 2,20,-1
 223.459960938 186 l 1,21,-1
 291.459960938 186 l 1,22,-1
 261.68359375 -2 l 1,23,-1
 -17.31640625 -2 l 1,0,-1
EndSplineSet
EndChar

StartChar: ordfeminine
Encoding: 170 170 470
Width: 512
VWidth: 2441
GlyphClass: 1
Flags: HW
LayerCount: 2
Fore
SplineSet
65.2607421875 532 m 1,0,-1
 528.260742188 532 l 1,1,-1
 498.642578125 345 l 1,2,-1
 35.642578125 345 l 1,3,-1
 65.2607421875 532 l 1,0,-1
295.713867188 920 m 0,4,5
 287.635742188 869 287.635742188 869 292.666992188 825 c 128,-1,6
 297.698242188 781 297.698242188 781 325.698242188 781 c 0,7,8
 360.698242188 781 360.698242188 781 380.701171875 841 c 128,-1,9
 400.704101562 901 400.704101562 901 427.095703125 1055 c 1,10,11
 417.095703125 1055 417.095703125 1055 406.095703125 1055 c 0,12,13
 367.095703125 1055 367.095703125 1055 337.185546875 1024 c 128,-1,14
 307.275390625 993 307.275390625 993 295.713867188 920 c 0,4,5
260.098632812 632 m 0,15,16
 190.098632812 632 190.098632812 632 165.294921875 709 c 128,-1,17
 140.490234375 786 140.490234375 786 157.912109375 896 c 0,18,19
 184.837890625 1066 184.837890625 1066 259.8203125 1138.5 c 128,-1,20
 334.803710938 1211 334.803710938 1211 421.803710938 1211 c 0,21,22
 435.803710938 1211 435.803710938 1211 449.486328125 1209 c 1,23,24
 468.077148438 1339 468.077148438 1339 457.961914062 1373 c 128,-1,25
 447.846679688 1407 447.846679688 1407 414.846679688 1407 c 0,26,27
 384.846679688 1407 384.846679688 1407 362.970703125 1392 c 128,-1,28
 341.095703125 1377 341.095703125 1377 317.02734375 1345 c 1,29,-1
 266.390625 1442 l 1,30,31
 294.04296875 1484 294.04296875 1484 341.26953125 1517 c 128,-1,32
 388.49609375 1550 388.49609375 1550 463.49609375 1550 c 0,33,34
 531.49609375 1550 531.49609375 1550 565.76953125 1517 c 128,-1,35
 600.04296875 1484 600.04296875 1484 600.916992188 1388.5 c 128,-1,36
 601.791015625 1293 601.791015625 1293 572.172851562 1106 c 2,37,-1
 500.266601562 652 l 1,38,-1
 365.266601562 652 l 1,39,-1
 376.829101562 725 l 1,40,41
 351.276367188 671 351.276367188 671 323.1875 651.5 c 128,-1,42
 295.098632812 632 295.098632812 632 260.098632812 632 c 0,15,16
EndSplineSet
EndChar

StartChar: ordmasculine
Encoding: 186 186 471
Width: 512
VWidth: 2441
GlyphClass: 1
Flags: HW
LayerCount: 2
Fore
SplineSet
65.2607421875 532 m 1,0,-1
 528.260742188 532 l 1,1,-1
 498.642578125 345 l 1,2,-1
 35.642578125 345 l 1,3,-1
 65.2607421875 532 l 1,0,-1
339.440429688 792 m 128,-1,5
 378.440429688 792 378.440429688 792 400.97265625 858.5 c 128,-1,6
 423.505859375 925 423.505859375 925 449.005859375 1086 c 0,7,8
 475.614257812 1254 475.614257812 1254 474.701171875 1324 c 128,-1,9
 473.788085938 1394 473.788085938 1394 434.788085938 1394 c 0,10,11
 397.788085938 1394 397.788085938 1394 371.280273438 1324.5 c 128,-1,12
 344.772460938 1255 344.772460938 1255 318.005859375 1086 c 0,13,14
 292.505859375 925 292.505859375 925 296.47265625 858.5 c 128,-1,4
 300.440429688 792 300.440429688 792 339.440429688 792 c 128,-1,5
315.048828125 638 m 128,-1,16
 252.048828125 638 252.048828125 638 212.48828125 675.5 c 128,-1,17
 172.927734375 713 172.927734375 713 162.711914062 809.5 c 128,-1,18
 152.49609375 906 152.49609375 906 180.213867188 1081 c 0,19,20
 210.46484375 1272 210.46484375 1272 252.041015625 1373.5 c 128,-1,21
 293.6171875 1475 293.6171875 1475 344.556640625 1512.5 c 128,-1,22
 395.49609375 1550 395.49609375 1550 459.49609375 1550 c 0,23,24
 522.49609375 1550 522.49609375 1550 561.556640625 1512.5 c 128,-1,25
 600.6171875 1475 600.6171875 1475 608.041015625 1373.5 c 128,-1,26
 615.46484375 1272 615.46484375 1272 585.213867188 1081 c 0,27,28
 557.49609375 906 557.49609375 906 518.711914062 809.5 c 128,-1,29
 479.927734375 713 479.927734375 713 428.98828125 675.5 c 128,-1,15
 378.048828125 638 378.048828125 638 315.048828125 638 c 128,-1,16
EndSplineSet
EndChar

StartChar: uni2124
Encoding: 8484 8484 473
Width: 512
VWidth: 2441
GlyphClass: 1
Flags: HW
LayerCount: 2
Fore
SplineSet
568.303710938 1372 m 1,0,-1
 503.303710938 1372 l 1,1,-1
 82.2822265625 147 l 1,2,-1
 150.282226562 147 l 1,3,-1
 568.303710938 1372 l 1,0,-1
684.90234375 1521 m 1,4,-1
 659.0859375 1358 l 1,5,-1
 241.282226562 147 l 1,6,-1
 365.282226562 147 l 2,7,8
 405.282226562 147 405.282226562 147 421.995117188 151.5 c 128,-1,9
 438.708007812 156 438.708007812 156 454.92578125 170 c 1,10,-1
 470.92578125 170 l 1,11,-1
 444 0 l 1,12,-1
 -36 0 l 1,13,-1
 -10.18359375 163 l 1,14,-1
 413.303710938 1372 l 1,15,-1
 183.303710938 1372 l 1,16,-1
 206.90234375 1521 l 1,17,-1
 684.90234375 1521 l 1,4,-1
EndSplineSet
EndChar

StartChar: zero
Encoding: 48 48 474
Width: 512
VWidth: 2441
GlyphClass: 1
Flags: HW
LayerCount: 2
Fore
SplineSet
214.291992188 166 m 0,0,1
 257.291992188 166 257.291992188 166 297.594726562 300.5 c 128,-1,2
 337.897460938 435 337.897460938 435 388.10546875 752 c 0,3,4
 393.96484375 789 393.96484375 789 396.875 820 c 1,5,-1
 183.421875 432 l 1,6,7
 169.931640625 290 169.931640625 290 179.611328125 228 c 128,-1,8
 189.291992188 166 189.291992188 166 214.291992188 166 c 0,0,1
223.10546875 752 m 0,9,10
 215.344726562 703 215.344726562 703 210.850585938 662 c 1,11,-1
 429.788085938 1072 l 1,12,13
 456.91796875 1338 456.91796875 1338 399.91796875 1338 c 0,14,15
 363.91796875 1338 363.91796875 1338 317.506835938 1196.5 c 128,-1,16
 271.095703125 1055 271.095703125 1055 223.10546875 752 c 0,9,10
183.723632812 -27 m 128,-1,18
 114.723632812 -27 114.723632812 -27 71.5234375 47.5 c 128,-1,19
 28.3232421875 122 28.3232421875 122 24.40625 293 c 128,-1,20
 20.490234375 464 20.490234375 464 66.10546875 752 c 0,21,22
 111.0859375 1036 111.0859375 1036 169.090820312 1206.5 c 128,-1,23
 227.095703125 1377 227.095703125 1377 293.791015625 1454 c 128,-1,24
 360.486328125 1531 360.486328125 1531 430.486328125 1531 c 0,25,26
 499.486328125 1531 499.486328125 1531 541.791015625 1454 c 128,-1,27
 584.095703125 1377 584.095703125 1377 587.51171875 1206 c 128,-1,28
 590.927734375 1035 590.927734375 1035 546.10546875 752 c 0,29,30
 499.698242188 459 499.698242188 459 442.2734375 289 c 128,-1,31
 384.84765625 119 384.84765625 119 318.786132812 46 c 128,-1,17
 252.723632812 -27 252.723632812 -27 183.723632812 -27 c 128,-1,18
EndSplineSet
Substitution2: "'ss02' Style Set 2 in Latin lookup 36 subtable" zero.ss02
Substitution2: "'zero' Slashed Zero in Latin lookup 33 subtable" zero.zero
Substitution2: "'frac' Diagonal Fractions in Latin lookup 24 subtable" zero.numr
Substitution2: "'dnom' Denominators in Latin lookup 22 subtable" zero.dnom
Substitution2: "'numr' Numerators in Latin lookup 21 subtable" zero.numr
Substitution2: "'sups' Superscript in Latin lookup 20 subtable" uni2070
Substitution2: "'subs' Subscript in Latin lookup 19 subtable" uni2080
AlternateSubs2: "'aalt' Access All Alternates in Latin lookup 1 subtable" zero.zero zero.ss02 uni2080 zero.dnom zero.numr uni2070
EndChar

StartChar: one
Encoding: 49 49 475
Width: 512
VWidth: 2441
GlyphClass: 1
Flags: HW
LayerCount: 2
Fore
SplineSet
143 0 m 1,0,-1
 337.49609375 1228 l 1,1,-1
 198.083007812 1137 l 1,2,-1
 197.43359375 1316 l 1,3,-1
 440.219726562 1523 l 1,4,-1
 557.219726562 1523 l 1,5,-1
 316 0 l 1,6,-1
 143 0 l 1,0,-1
EndSplineSet
Substitution2: "'frac' Diagonal Fractions in Latin lookup 24 subtable" one.numr
Substitution2: "'dnom' Denominators in Latin lookup 22 subtable" one.dnom
Substitution2: "'numr' Numerators in Latin lookup 21 subtable" one.numr
Substitution2: "'sups' Superscript in Latin lookup 20 subtable" uni00B9
Substitution2: "'subs' Subscript in Latin lookup 19 subtable" uni2081
AlternateSubs2: "'aalt' Access All Alternates in Latin lookup 1 subtable" uni2081 one.dnom one.numr uni00B9
EndChar

StartChar: two
Encoding: 50 50 476
Width: 512
VWidth: 2441
GlyphClass: 1
Flags: HW
LayerCount: 2
Fore
SplineSet
1.2822265625 147 m 1,0,1
 136.02734375 379 136.02734375 379 223.185546875 541 c 128,-1,2
 310.344726562 703 310.344726562 703 361.013671875 833.5 c 128,-1,3
 411.682617188 964 411.682617188 964 435.380859375 1101 c 0,4,5
 437.342773438 1112.05273438 437.342773438 1112.05273438 439.024414062 1122.67285156 c 0,0,0
 453.322265625 1212.94726562 453.322265625 1212.94726562 447.46484375 1272 c 128,-1,6
 440.91796875 1338 440.91796875 1338 410.91796875 1338 c 0,7,8
 387.91796875 1338 387.91796875 1338 370.517578125 1326 c 128,-1,9
 353.1171875 1314 353.1171875 1314 329.256835938 1277 c 0,10,11
 309.713867188 1242 309.713867188 1242 303.862304688 1224 c 128,-1,12
 298.01171875 1206 298.01171875 1206 303.84375 1186 c 1,13,-1
 294.626953125 1172 l 1,14,-1
 275.735351562 1179 l 1,15,-1
 147.912109375 1218 l 1,16,17
 205.403320312 1360 205.403320312 1360 272.944335938 1445.5 c 128,-1,18
 340.486328125 1531 340.486328125 1531 450.486328125 1531 c 0,19,20
 673.486328125 1531 673.486328125 1531 604.748046875 1097 c 0,21,22
 580.040039062 941 580.040039062 941 527.76171875 803.5 c 128,-1,23
 475.484375 666 475.484375 666 398.018554688 521 c 128,-1,24
 320.552734375 376 320.552734375 376 217.568359375 193 c 1,25,-1
 362.568359375 193 l 2,26,27
 402.568359375 193 402.568359375 193 419.360351562 198 c 128,-1,28
 436.15234375 203 436.15234375 203 453.369140625 217 c 1,29,-1
 469.369140625 217 l 1,30,-1
 435 0 l 1,31,-1
 -22 0 l 1,32,-1
 1.2822265625 147 l 1,0,1
EndSplineSet
Substitution2: "'frac' Diagonal Fractions in Latin lookup 24 subtable" two.numr
Substitution2: "'dnom' Denominators in Latin lookup 22 subtable" two.dnom
Substitution2: "'numr' Numerators in Latin lookup 21 subtable" two.numr
Substitution2: "'sups' Superscript in Latin lookup 20 subtable" uni00B2
Substitution2: "'subs' Subscript in Latin lookup 19 subtable" uni2082
AlternateSubs2: "'aalt' Access All Alternates in Latin lookup 1 subtable" uni2082 two.dnom two.numr uni00B2
EndChar

StartChar: three
Encoding: 51 51 477
Width: 512
VWidth: 2441
GlyphClass: 1
Flags: HW
LayerCount: 2
Fore
SplineSet
185.723632812 -27 m 0,0,1
 102.723632812 -27 102.723632812 -27 55.3310546875 30.5 c 128,-1,2
 7.9375 88 7.9375 88 -19.599609375 173 c 1,3,-1
 111.229492188 254 l 1,4,-1
 130.129882812 266 l 1,5,-1
 135.546875 256 l 1,6,7
 130.537109375 237 130.537109375 237 130.661132812 222 c 128,-1,8
 130.78515625 207 130.78515625 207 144.350585938 179 c 1,9,10
 166.282226562 147 166.282226562 147 198.282226562 147 c 0,11,12
 241.282226562 147 241.282226562 147 276.760742188 210 c 128,-1,13
 312.239257812 273 312.239257812 273 336.155273438 424 c 0,14,15
 363.555664062 597 363.555664062 597 333.954101562 659.5 c 128,-1,16
 309.770507812 710.5625 309.770507812 710.5625 243.791992188 710.5625 c 0,0,0
 229.012695312 710.5625 229.012695312 710.5625 212.135742188 708 c 1,17,-1
 239.219726562 879 l 1,18,19
 309.219726562 879 309.219726562 879 346.500976562 915.5 c 128,-1,20
 383.782226562 952 383.782226562 952 400.498046875 1016.5 c 128,-1,21
 417.213867188 1081 417.213867188 1081 429.725585938 1160 c 0,22,23
 462.194335938 1365 462.194335938 1365 399.194335938 1365 c 0,24,25
 372.194335938 1365 372.194335938 1365 348.6015625 1336 c 128,-1,26
 325.008789062 1307 325.008789062 1307 300.772460938 1255 c 1,27,-1
 184.334960938 1328 l 1,28,29
 237.380859375 1423 237.380859375 1423 301.43359375 1477 c 128,-1,30
 365.486328125 1531 365.486328125 1531 436.486328125 1531 c 0,31,32
 526.486328125 1531 526.486328125 1531 575.048828125 1443 c 128,-1,33
 623.611328125 1355 623.611328125 1355 591.6171875 1153 c 0,34,35
 572.76953125 1034 572.76953125 1034 536.09375 944.5 c 128,-1,36
 499.418945312 855 499.418945312 855 436.450195312 811 c 1,37,38
 490.1640625 765 490.1640625 765 506.958984375 669 c 128,-1,39
 523.75390625 573 523.75390625 573 499.045898438 417 c 0,40,41
 464.360351562 198 464.360351562 198 378.041992188 85.5 c 128,-1,42
 291.723632812 -27 291.723632812 -27 185.723632812 -27 c 0,0,1
EndSplineSet
Substitution2: "'frac' Diagonal Fractions in Latin lookup 24 subtable" three.numr
Substitution2: "'dnom' Denominators in Latin lookup 22 subtable" three.dnom
Substitution2: "'numr' Numerators in Latin lookup 21 subtable" three.numr
Substitution2: "'sups' Superscript in Latin lookup 20 subtable" uni00B3
Substitution2: "'subs' Subscript in Latin lookup 19 subtable" uni2083
AlternateSubs2: "'aalt' Access All Alternates in Latin lookup 1 subtable" uni2083 three.dnom three.numr uni00B3
EndChar

StartChar: four
Encoding: 52 52 478
Width: 512
VWidth: 2441
GlyphClass: 1
Flags: HW
LayerCount: 2
Fore
SplineSet
188.319335938 545 m 1,0,-1
 318.319335938 545 l 1,1,-1
 388.958984375 991 l 1,2,-1
 188.319335938 545 l 1,0,-1
232 0 m 1,3,-1
 288.068359375 354 l 1,4,-1
 15.068359375 354 l 1,5,-1
 42.1513671875 525 l 1,6,-1
 512.219726562 1523 l 1,7,-1
 627.219726562 1523 l 1,8,-1
 471.844726562 542 l 1,9,-1
 524.844726562 542 l 1,10,-1
 494.750976562 352 l 1,11,-1
 441.750976562 352 l 1,12,-1
 386 0 l 1,13,-1
 232 0 l 1,3,-1
EndSplineSet
Substitution2: "'frac' Diagonal Fractions in Latin lookup 24 subtable" four.numr
Substitution2: "'dnom' Denominators in Latin lookup 22 subtable" four.dnom
Substitution2: "'numr' Numerators in Latin lookup 21 subtable" four.numr
Substitution2: "'sups' Superscript in Latin lookup 20 subtable" uni2074
Substitution2: "'subs' Subscript in Latin lookup 19 subtable" uni2084
AlternateSubs2: "'aalt' Access All Alternates in Latin lookup 1 subtable" uni2084 four.dnom four.numr uni2074
EndChar

StartChar: five
Encoding: 53 53 479
Width: 512
VWidth: 2441
GlyphClass: 1
Flags: HW
LayerCount: 2
Fore
SplineSet
189.723632812 -27 m 0,0,1
 112.723632812 -27 112.723632812 -27 59.6181640625 26 c 128,-1,2
 6.5126953125 79 6.5126953125 79 -14.3232421875 200 c 1,3,-1
 116.03125 278 l 1,4,-1
 134.614257812 288 l 1,5,-1
 142.03125 278 l 1,6,7
 134.337890625 261 134.337890625 261 132.883789062 245.5 c 128,-1,8
 131.428710938 230 131.428710938 230 140.676757812 200 c 1,9,10
 162.5 161 162.5 161 206.5 161 c 0,11,12
 254.5 161 254.5 161 288.279296875 248 c 128,-1,13
 322.05859375 335 322.05859375 335 345.658203125 484 c 0,14,15
 373.375 659 373.375 659 369.021484375 742 c 128,-1,16
 364.666992188 825 364.666992188 825 322.666992188 825 c 0,17,18
 287.666992188 825 287.666992188 825 265.127929688 799.5 c 128,-1,19
 242.58984375 774 242.58984375 774 214.353515625 722 c 1,20,-1
 110.313476562 747 l 1,21,-1
 254.90234375 1521 l 1,22,-1
 633.90234375 1521 l 1,23,-1
 603.651367188 1330 l 1,24,-1
 379.651367188 1330 l 1,25,-1
 305.40625 937 l 1,26,27
 351.592773438 995 351.592773438 995 416.909179688 997 c 0,28,29
 504.909179688 997 504.909179688 997 528.611328125 872 c 128,-1,30
 552.313476562 747 552.313476562 747 509.708007812 478 c 0,31,32
 469.478515625 224 469.478515625 224 387.100585938 98.5 c 128,-1,33
 304.723632812 -27 304.723632812 -27 189.723632812 -27 c 0,0,1
EndSplineSet
Substitution2: "'frac' Diagonal Fractions in Latin lookup 24 subtable" five.numr
Substitution2: "'dnom' Denominators in Latin lookup 22 subtable" five.dnom
Substitution2: "'numr' Numerators in Latin lookup 21 subtable" five.numr
Substitution2: "'sups' Superscript in Latin lookup 20 subtable" uni2075
Substitution2: "'subs' Subscript in Latin lookup 19 subtable" uni2085
AlternateSubs2: "'aalt' Access All Alternates in Latin lookup 1 subtable" uni2085 five.dnom five.numr uni2075
EndChar

StartChar: six
Encoding: 54 54 480
Width: 512
VWidth: 2441
GlyphClass: 1
Flags: HW
LayerCount: 2
Fore
SplineSet
250.608398438 168 m 0,0,1
 279.608398438 168 279.608398438 168 306.6953125 238 c 128,-1,2
 333.782226562 308 333.782226562 308 361.024414062 480 c 0,3,4
 386.524414062 641 386.524414062 641 385.745117188 715 c 128,-1,5
 384.96484375 789 384.96484375 789 350.96484375 789 c 0,6,7
 318.96484375 789 318.96484375 789 297.159179688 755.5 c 128,-1,8
 275.353515625 722 275.353515625 722 252.484375 666 c 1,9,10
 239.776367188 602 239.776367188 602 230.764648438 545.1015625 c 0,0,0
 208.235351562 402.857421875 208.235351562 402.857421875 208.807617188 305 c 128,-1,11
 209.608398438 168 209.608398438 168 250.608398438 168 c 0,0,1
217.19921875 -24 m 0,12,13
 95.19921875 -24 95.19921875 -24 59.044921875 145.5 c 128,-1,14
 22.890625 315 22.890625 315 82.9189453125 694 c 0,15,16
 153.716796875 1141 153.716796875 1141 258.65625 1339.5 c 128,-1,17
 363.595703125 1538 363.595703125 1538 510.595703125 1538 c 0,18,19
 572.595703125 1538 572.595703125 1538 614.364257812 1495.5 c 128,-1,20
 656.1328125 1453 656.1328125 1453 671.095703125 1377 c 1,21,-1
 564.713867188 1242 l 1,22,-1
 553.020507812 1225 l 1,23,-1
 541.8125 1230 l 1,24,25
 542.505859375 1247 542.505859375 1247 544.09375 1266.5 c 128,-1,26
 545.682617188 1286 545.682617188 1286 533.1171875 1314 c 0,27,28
 514.758789062 1345.03027344 514.758789062 1345.03027344 480.203125 1345.03027344 c 0,0,0
 479.123046875 1345.03027344 479.123046875 1345.03027344 478.02734375 1345 c 0,29,30
 454.02734375 1345 454.02734375 1345 421.30078125 1312 c 128,-1,31
 388.573242188 1279 388.573242188 1279 353.630859375 1181.5 c 128,-1,32
 318.688476562 1084 318.688476562 1084 286.912109375 896 c 1,33,34
 350.791015625 981.01171875 350.791015625 981.01171875 423.678710938 981.01171875 c 0,0,0
 424.526367188 981.01171875 424.526367188 981.01171875 425.375 981 c 0,35,36
 510.375 981 510.375 981 538.498046875 855.5 c 128,-1,37
 566.62109375 730 566.62109375 730 527.658203125 484 c 0,38,39
 490.12109375 247 490.12109375 247 412.66015625 111.5 c 128,-1,40
 335.19921875 -24 335.19921875 -24 217.19921875 -24 c 0,12,13
EndSplineSet
Substitution2: "'frac' Diagonal Fractions in Latin lookup 24 subtable" six.numr
Substitution2: "'dnom' Denominators in Latin lookup 22 subtable" six.dnom
Substitution2: "'numr' Numerators in Latin lookup 21 subtable" six.numr
Substitution2: "'sups' Superscript in Latin lookup 20 subtable" uni2076
Substitution2: "'subs' Subscript in Latin lookup 19 subtable" uni2086
AlternateSubs2: "'aalt' Access All Alternates in Latin lookup 1 subtable" uni2086 six.dnom six.numr uni2076
EndChar

StartChar: seven
Encoding: 55 55 481
Width: 512
VWidth: 2441
GlyphClass: 1
Flags: HW
LayerCount: 2
Fore
SplineSet
45 0 m 1,0,1
 154.276367188 349 154.276367188 349 247.85546875 671.5 c 128,-1,2
 341.434570312 994 341.434570312 994 458.651367188 1330 c 1,3,-1
 197.651367188 1330 l 1,4,-1
 227.90234375 1521 l 1,5,-1
 688.90234375 1521 l 1,6,-1
 667.520507812 1386 l 1,7,8
 543.76953125 1034 543.76953125 1034 442.869140625 700 c 128,-1,9
 341.96875 366 341.96875 366 235 0 c 1,10,-1
 45 0 l 1,0,1
EndSplineSet
Substitution2: "'frac' Diagonal Fractions in Latin lookup 24 subtable" seven.numr
Substitution2: "'dnom' Denominators in Latin lookup 22 subtable" seven.dnom
Substitution2: "'numr' Numerators in Latin lookup 21 subtable" seven.numr
Substitution2: "'sups' Superscript in Latin lookup 20 subtable" uni2077
Substitution2: "'subs' Subscript in Latin lookup 19 subtable" uni2087
AlternateSubs2: "'aalt' Access All Alternates in Latin lookup 1 subtable" uni2087 seven.dnom seven.numr uni2077
EndChar

StartChar: eight
Encoding: 56 56 482
Width: 512
VWidth: 2441
GlyphClass: 1
Flags: HW
LayerCount: 2
Fore
SplineSet
229.81640625 163 m 0,0,1
 267.81640625 163 267.81640625 163 295.973632812 214.5 c 128,-1,2
 324.129882812 266 324.129882812 266 344.245117188 393 c 0,3,4
 363.092773438 512 363.092773438 512 355.734375 585.5 c 128,-1,5
 348.375 659 348.375 659 314.7109375 699 c 1,6,7
 270.850585938 662 270.850585938 662 237.8671875 589.5 c 128,-1,8
 204.884765625 517 204.884765625 517 186.51171875 401 c 0,9,10
 166.555664062 275 166.555664062 275 182.686523438 219 c 128,-1,11
 198.81640625 163 198.81640625 163 229.81640625 163 c 0,0,1
360.080078125 916 m 1,12,13
 396.624023438 951 396.624023438 951 417.84375 1025 c 128,-1,14
 439.064453125 1099 439.064453125 1099 450.943359375 1174 c 0,15,16
 464.088867188 1257 464.088867188 1257 456.533203125 1304 c 128,-1,17
 448.977539062 1351 448.977539062 1351 419.977539062 1351 c 0,18,19
 388.977539062 1351 388.977539062 1351 368.770507812 1305.5 c 128,-1,20
 348.564453125 1260 348.564453125 1260 336.051757812 1181 c 0,21,22
 319.73828125 1078 319.73828125 1078 324.235351562 1018 c 128,-1,23
 328.732421875 958 328.732421875 958 360.080078125 916 c 1,12,13
197.19921875 -24 m 0,24,25
 84.19921875 -24 84.19921875 -24 39.12109375 86 c 128,-1,26
 -5.95703125 196 -5.95703125 196 23.8193359375 384 c 0,27,28
 72.126953125 689 72.126953125 689 230.350585938 823 c 1,29,30
 183.01171875 884 183.01171875 884 174.053710938 969.5 c 128,-1,31
 165.095703125 1055 165.095703125 1055 182.517578125 1165 c 0,32,33
 209.91796875 1338 209.91796875 1338 282.415039062 1439 c 128,-1,34
 354.912109375 1540 354.912109375 1540 451.912109375 1540 c 0,35,36
 553.912109375 1540 553.912109375 1540 591.469726562 1442.5 c 128,-1,37
 629.02734375 1345 629.02734375 1345 602.735351562 1179 c 0,38,39
 585.3125 1069 585.3125 1069 550.974609375 969 c 128,-1,40
 516.635742188 869 516.635742188 869 454.974609375 808 c 1,41,42
 506.887695312 738 506.887695312 738 518.103515625 641.5 c 128,-1,43
 529.319335938 545 529.319335938 545 505.245117188 393 c 0,44,45
 474.202148438 197 474.202148438 197 393.200195312 86.5 c 128,-1,46
 312.19921875 -24 312.19921875 -24 197.19921875 -24 c 0,24,25
EndSplineSet
Substitution2: "'frac' Diagonal Fractions in Latin lookup 24 subtable" eight.numr
Substitution2: "'dnom' Denominators in Latin lookup 22 subtable" eight.dnom
Substitution2: "'numr' Numerators in Latin lookup 21 subtable" eight.numr
Substitution2: "'sups' Superscript in Latin lookup 20 subtable" uni2078
Substitution2: "'subs' Subscript in Latin lookup 19 subtable" uni2088
AlternateSubs2: "'aalt' Access All Alternates in Latin lookup 1 subtable" uni2088 eight.dnom eight.numr uni2078
EndChar

StartChar: nine
Encoding: 57 57 483
Width: 512
VWidth: 2441
GlyphClass: 1
Flags: HW
LayerCount: 2
Fore
SplineSet
301.245117188 1037 m 0,0,1
 254.677734375 742.986328125 254.677734375 742.986328125 336.567382812 742.986328125 c 0,0,0
 337.120117188 742.986328125 337.120117188 742.986328125 337.6796875 743 c 0,2,3
 378.6796875 743 378.6796875 743 406.005859375 764 c 1,4,-1
 408.698242188 781 l 2,5,6
 444.493164062 1007 444.493164062 1007 456.237304688 1128.5 c 128,-1,7
 467.98046875 1250 467.98046875 1250 458.766601562 1296 c 128,-1,8
 449.551757812 1342 449.551757812 1342 418.551757812 1342 c 0,9,10
 386.551757812 1342 386.551757812 1342 357.756835938 1277 c 128,-1,11
 328.961914062 1212 328.961914062 1212 301.245117188 1037 c 0,0,1
175.19921875 -24 m 0,12,13
 101.19921875 -24 101.19921875 -24 54.8759765625 15 c 128,-1,14
 8.552734375 54 8.552734375 54 -12.3603515625 124 c 1,15,-1
 90.546875 256 l 1,16,-1
 107.555664062 275 l 1,17,-1
 118.921875 271 l 1,18,19
 117.595703125 250 117.595703125 250 118.428710938 230 c 128,-1,20
 119.260742188 210 119.260742188 210 136.142578125 184 c 1,21,22
 159.81640625 163 159.81640625 163 187.5 161 c 0,23,24
 230.5 161 230.5 161 263.869140625 217 c 128,-1,25
 297.239257812 273 297.239257812 273 324.0234375 369.5 c 128,-1,26
 350.807617188 466 350.807617188 466 375.971679688 587 c 1,27,28
 342.6953125 560 342.6953125 560 294.537109375 559 c 0,29,30
 200.537109375 559 200.537109375 559 149.805664062 677.5 c 128,-1,31
 99.07421875 796 99.07421875 796 136.927734375 1035 c 0,32,33
 178.266601562 1296 178.266601562 1296 263.875976562 1413.5 c 128,-1,34
 349.486328125 1531 349.486328125 1531 445.486328125 1531 c 0,35,36
 580.486328125 1531 580.486328125 1531 610.936523438 1376 c 128,-1,37
 641.387695312 1221 641.387695312 1221 588.329101562 886 c 0,38,39
 536.219726562 557 536.219726562 557 477.201171875 358 c 128,-1,40
 418.18359375 159 418.18359375 159 344.086914062 70 c 128,-1,41
 269.990234375 -19 269.990234375 -19 175.19921875 -24 c 0,12,13
EndSplineSet
Substitution2: "'frac' Diagonal Fractions in Latin lookup 24 subtable" nine.numr
Substitution2: "'dnom' Denominators in Latin lookup 22 subtable" nine.dnom
Substitution2: "'numr' Numerators in Latin lookup 21 subtable" nine.numr
Substitution2: "'sups' Superscript in Latin lookup 20 subtable" uni2079
Substitution2: "'subs' Subscript in Latin lookup 19 subtable" uni2089
AlternateSubs2: "'aalt' Access All Alternates in Latin lookup 1 subtable" uni2089 nine.dnom nine.numr uni2079
EndChar

StartChar: zero.zero
Encoding: 65541 -1 484
Width: 512
VWidth: 2441
GlyphClass: 1
Flags: HW
LayerCount: 2
Fore
SplineSet
297.126953125 689 m 0,0,1
 267.126953125 689 267.126953125 689 249.427734375 713 c 128,-1,2
 231.729492188 737 231.729492188 737 237.114257812 771 c 0,3,4
 242.658203125 806 242.658203125 806 268.038085938 830.5 c 128,-1,5
 293.418945312 855 293.418945312 855 323.418945312 855 c 0,6,7
 351.418945312 855 351.418945312 855 368.038085938 830.5 c 128,-1,8
 384.658203125 806 384.658203125 806 379.114257812 771 c 128,-1,9
 373.571289062 736 373.571289062 736 349.348632812 712.5 c 128,-1,10
 325.126953125 689 325.126953125 689 297.126953125 689 c 0,0,1
214.291992188 166 m 0,11,12
 257.291992188 166 257.291992188 166 297.594726562 300.5 c 128,-1,13
 337.897460938 435 337.897460938 435 388.10546875 752 c 0,14,15
 436.095703125 1055 436.095703125 1055 438.506835938 1196.5 c 128,-1,16
 440.91796875 1338 440.91796875 1338 399.91796875 1338 c 0,17,18
 363.91796875 1338 363.91796875 1338 317.506835938 1196.5 c 128,-1,19
 271.095703125 1055 271.095703125 1055 223.10546875 752 c 0,20,21
 172.897460938 435 172.897460938 435 175.594726562 300.5 c 128,-1,22
 178.291992188 166 178.291992188 166 214.291992188 166 c 0,11,12
183.723632812 -27 m 128,-1,24
 114.723632812 -27 114.723632812 -27 71.5234375 47.5 c 128,-1,25
 28.3232421875 122 28.3232421875 122 24.40625 293 c 128,-1,26
 20.490234375 464 20.490234375 464 66.10546875 752 c 0,27,28
 111.0859375 1036 111.0859375 1036 169.090820312 1206.5 c 128,-1,29
 227.095703125 1377 227.095703125 1377 293.791015625 1454 c 128,-1,30
 360.486328125 1531 360.486328125 1531 430.486328125 1531 c 0,31,32
 499.486328125 1531 499.486328125 1531 541.791015625 1454 c 128,-1,33
 584.095703125 1377 584.095703125 1377 587.51171875 1206 c 128,-1,34
 590.927734375 1035 590.927734375 1035 546.10546875 752 c 0,35,36
 499.698242188 459 499.698242188 459 442.2734375 289 c 128,-1,37
 384.84765625 119 384.84765625 119 318.786132812 46 c 128,-1,23
 252.723632812 -27 252.723632812 -27 183.723632812 -27 c 128,-1,24
EndSplineSet
EndChar

StartChar: zero.ss02
Encoding: 65542 -1 485
Width: 512
VWidth: 2441
GlyphClass: 1
Flags: HW
LayerCount: 2
Fore
SplineSet
214.291992188 166 m 0,0,1
 257.291992188 166 257.291992188 166 297.594726562 300.5 c 128,-1,2
 337.897460938 435 337.897460938 435 388.10546875 752 c 0,3,4
 436.095703125 1055 436.095703125 1055 438.506835938 1196.5 c 128,-1,5
 440.91796875 1338 440.91796875 1338 399.91796875 1338 c 0,6,7
 363.91796875 1338 363.91796875 1338 317.506835938 1196.5 c 128,-1,8
 271.095703125 1055 271.095703125 1055 223.10546875 752 c 0,9,10
 172.897460938 435 172.897460938 435 175.594726562 300.5 c 128,-1,11
 178.291992188 166 178.291992188 166 214.291992188 166 c 0,0,1
183.723632812 -27 m 128,-1,13
 114.723632812 -27 114.723632812 -27 71.5234375 47.5 c 128,-1,14
 28.3232421875 122 28.3232421875 122 24.40625 293 c 128,-1,15
 20.490234375 464 20.490234375 464 66.10546875 752 c 0,16,17
 111.0859375 1036 111.0859375 1036 169.090820312 1206.5 c 128,-1,18
 227.095703125 1377 227.095703125 1377 293.791015625 1454 c 128,-1,19
 360.486328125 1531 360.486328125 1531 430.486328125 1531 c 0,20,21
 499.486328125 1531 499.486328125 1531 541.791015625 1454 c 128,-1,22
 584.095703125 1377 584.095703125 1377 587.51171875 1206 c 128,-1,23
 590.927734375 1035 590.927734375 1035 546.10546875 752 c 0,24,25
 499.698242188 459 499.698242188 459 442.2734375 289 c 128,-1,26
 384.84765625 119 384.84765625 119 318.786132812 46 c 128,-1,12
 252.723632812 -27 252.723632812 -27 183.723632812 -27 c 128,-1,13
EndSplineSet
EndChar

StartChar: uni2070
Encoding: 8304 8304 516
Width: 512
VWidth: 2441
GlyphClass: 1
Flags: HW
LayerCount: 2
Fore
SplineSet
324.719726562 718 m 0,0,1
 356.719726562 718 356.719726562 718 382.732421875 797 c 128,-1,2
 408.745117188 876 408.745117188 876 438.99609375 1067 c 2,3,4
 438.837890625 1066 438.837890625 1066 439.471679688 1070 c 130,-1,5
 440.104492188 1074 440.104492188 1074 444.380859375 1101 c 1,6,-1
 298.745117188 876 l 1,7,8
 290.124023438 790 290.124023438 790 297.921875 754 c 128,-1,9
 305.719726562 718 305.719726562 718 324.719726562 718 c 0,0,1
321.99609375 1067 m 0,10,11
 318.669921875 1046 318.669921875 1046 315.819335938 1028 c 1,12,-1
 462.672851562 1267 l 1,13,14
 474.272460938 1416 474.272460938 1416 435.272460938 1416 c 0,15,16
 405.272460938 1416 405.272460938 1416 377.967773438 1332 c 128,-1,17
 350.6640625 1248 350.6640625 1248 321.99609375 1067 c 0,10,11
303.337890625 583 m 0,18,19
 224.337890625 583 224.337890625 583 190.206054688 689.5 c 128,-1,20
 156.07421875 796 156.07421875 796 198.99609375 1067 c 0,21,22
 241.125976562 1333 241.125976562 1333 309.311523438 1441.5 c 128,-1,23
 377.49609375 1550 377.49609375 1550 456.49609375 1550 c 128,-1,24
 535.49609375 1550 535.49609375 1550 569.311523438 1441.5 c 128,-1,25
 603.125976562 1333 603.125976562 1333 560.99609375 1067 c 0,26,27
 531.853515625 883 531.853515625 883 492.302734375 778.5 c 128,-1,28
 452.750976562 674 452.750976562 674 403.544921875 628.5 c 128,-1,29
 354.337890625 583 354.337890625 583 303.337890625 583 c 0,18,19
EndSplineSet
Substitution2: "'ss02' Style Set 2 in Latin lookup 36 subtable" uni2070.ss02
Substitution2: "'zero' Slashed Zero in Latin lookup 33 subtable" uni2070.zero
AlternateSubs2: "'aalt' Access All Alternates in Latin lookup 1 subtable" uni2070.ss02 uni2070.zero
EndChar

StartChar: uni00B9
Encoding: 185 185 517
Width: 512
VWidth: 2441
GlyphClass: 1
Flags: HW
LayerCount: 2
Fore
SplineSet
255.189453125 601 m 1,0,-1
 373.34375 1347 l 1,1,-1
 283.474609375 1291 l 1,2,-1
 281.272460938 1416 l 1,3,-1
 443.704101562 1545 l 1,4,-1
 530.704101562 1545 l 1,5,-1
 381.189453125 601 l 1,6,-1
 255.189453125 601 l 1,0,-1
EndSplineSet
EndChar

StartChar: uni00B2
Encoding: 178 178 518
Width: 512
VWidth: 2441
GlyphClass: 1
Flags: HW
LayerCount: 2
Fore
SplineSet
161.02734375 701 m 1,0,1
 254.309570312 848 254.309570312 848 314.172851562 945 c 128,-1,2
 374.036132812 1042 374.036132812 1042 407.469726562 1120.5 c 128,-1,3
 440.903320312 1199 440.903320312 1199 456.365234375 1284 c 0,4,5
 457.821289062 1291.44824219 457.821289062 1291.44824219 458.956054688 1298.61132812 c 0,6,7
 466.045898438 1343.37890625 466.045898438 1343.37890625 460.595703125 1377 c 0,8,9
 454.272460938 1416 454.272460938 1416 433.272460938 1416 c 0,10,11
 419.272460938 1416 419.272460938 1416 417.48046875 1411 c 0,12,13
 391.412109375 1379 391.412109375 1379 382.377929688 1363 c 128,-1,14
 373.34375 1347 373.34375 1347 372.017578125 1326 c 1,15,-1
 360.641601562 1311 l 1,16,-1
 342.017578125 1326 l 1,17,-1
 251.403320312 1360 l 1,18,19
 289.0234375 1446 289.0234375 1446 336.259765625 1498 c 128,-1,20
 383.49609375 1550 383.49609375 1550 461.49609375 1550 c 0,21,22
 540.49609375 1550 540.49609375 1550 571.883789062 1483 c 128,-1,23
 603.272460938 1416 603.272460938 1416 581.890625 1281 c 0,24,25
 566.369140625 1183 566.369140625 1183 533.198242188 1103 c 128,-1,26
 500.02734375 1023 500.02734375 1023 449.827148438 936.5 c 128,-1,27
 399.626953125 850 399.626953125 850 327.25390625 734 c 1,28,-1
 390.25390625 734 l 2,29,30
 432.25390625 734 432.25390625 734 450.625 739.5 c 128,-1,31
 468.99609375 745 468.99609375 745 485.213867188 759 c 1,32,-1
 502.213867188 759 l 1,33,-1
 477.189453125 601 l 1,34,-1
 145.189453125 601 l 1,35,-1
 161.02734375 701 l 1,0,1
EndSplineSet
EndChar

StartChar: uni00B3
Encoding: 179 179 519
Width: 512
VWidth: 2441
GlyphClass: 1
Flags: HW
LayerCount: 2
Fore
SplineSet
294.337890625 583 m 0,0,1
 238.337890625 583 238.337890625 583 200.802734375 617.5 c 128,-1,2
 163.266601562 652 163.266601562 652 144.135742188 708 c 1,3,-1
 234.48046875 767 l 1,4,-1
 255.22265625 778 l 1,5,-1
 262.797851562 769 l 1,6,7
 258.10546875 752 258.10546875 752 264.125 739.5 c 128,-1,8
 270.145507812 727 270.145507812 727 288.344726562 703 c 1,9,-1
 303.344726562 703 l 2,10,11
 330.344726562 703 330.344726562 703 353.966796875 738.5 c 128,-1,12
 377.58984375 774 377.58984375 774 391.84375 864 c 0,13,14
 408.791015625 971 408.791015625 971 386.4140625 1006.5 c 0,15,16
 368.955078125 1034.19824219 368.955078125 1034.19824219 327.01953125 1034.19824219 c 0,17,18
 315.20703125 1034.19824219 315.20703125 1034.19824219 301.453125 1032 c 1,19,-1
 320.6171875 1153 l 1,20,21
 390.6171875 1153 390.6171875 1153 414.403320312 1199 c 128,-1,22
 438.188476562 1245 438.188476562 1245 449.43359375 1316 c 0,23,24
 468.28125 1435 468.28125 1435 424.28125 1435 c 0,25,26
 392.28125 1435 392.28125 1435 355.303710938 1372 c 1,27,-1
 273.856445312 1426 l 1,28,29
 347.49609375 1550 347.49609375 1550 449.49609375 1550 c 0,30,31
 515.49609375 1550 515.49609375 1550 551.78515625 1495 c 128,-1,32
 588.073242188 1440 588.073242188 1440 568.43359375 1316 c 0,33,34
 556.5546875 1241 556.5546875 1241 531.764648438 1185.5 c 128,-1,35
 506.974609375 1130 506.974609375 1130 464.856445312 1104 c 1,36,37
 502.104492188 1074 502.104492188 1074 515.33984375 1015.5 c 128,-1,38
 528.57421875 957 528.57421875 957 513.051757812 859 c 0,39,40
 491.353515625 722 491.353515625 722 432.345703125 652.5 c 128,-1,41
 373.337890625 583 373.337890625 583 294.337890625 583 c 0,0,1
EndSplineSet
EndChar

StartChar: uni2074
Encoding: 8308 8308 520
Width: 512
VWidth: 2441
GlyphClass: 1
Flags: HW
LayerCount: 2
Fore
SplineSet
308.1484375 948 m 1,0,-1
 398.1484375 948 l 1,1,-1
 436.953125 1193 l 1,2,-1
 308.1484375 948 l 1,0,-1
343.189453125 601 m 1,3,-1
 376.766601562 813 l 1,4,-1
 171.766601562 813 l 1,5,-1
 190.614257812 932 l 1,6,-1
 523.704101562 1545 l 1,7,-1
 614.704101562 1545 l 1,8,-1
 520.1484375 948 l 1,9,-1
 561.1484375 948 l 1,10,-1
 539.766601562 813 l 1,11,-1
 498.766601562 813 l 1,12,-1
 465.189453125 601 l 1,13,-1
 343.189453125 601 l 1,3,-1
EndSplineSet
EndChar

StartChar: uni2075
Encoding: 8309 8309 521
Width: 512
VWidth: 2441
GlyphClass: 1
Flags: HW
LayerCount: 2
Fore
SplineSet
303.337890625 583 m 0,0,1
 247.337890625 583 247.337890625 583 207.643554688 616.5 c 128,-1,2
 167.950195312 650 167.950195312 650 151.62109375 730 c 1,3,-1
 249.490234375 786 l 1,4,-1
 269.07421875 796 l 1,5,-1
 273.698242188 781 l 1,6,7
 269.48046875 767 269.48046875 767 273.342773438 753.5 c 128,-1,8
 277.204101562 740 277.204101562 740 294.245117188 715 c 0,9,10
 296.245117188 715 296.245117188 715 301.586914062 714 c 128,-1,11
 306.927734375 713 306.927734375 713 311.927734375 713 c 0,12,13
 346.927734375 713 346.927734375 713 368.243164062 765.5 c 128,-1,14
 389.55859375 818 389.55859375 818 402.704101562 901 c 0,15,16
 434.856445312 1104 434.856445312 1104 383.856445312 1104 c 0,17,18
 346.856445312 1104 346.856445312 1104 313.51171875 1045 c 1,19,-1
 229.887695312 1060 l 1,20,-1
 323.38671875 1543 l 1,21,-1
 602.38671875 1543 l 1,22,-1
 581.956054688 1414 l 1,23,-1
 417.956054688 1414 l 1,24,-1
 374.84375 1186 l 1,25,26
 407.704101562 1223 407.704101562 1223 453.704101562 1223 c 0,27,28
 516.704101562 1223 516.704101562 1223 537.850585938 1145 c 128,-1,29
 558.99609375 1067 558.99609375 1067 532.704101562 901 c 0,30,31
 507.521484375 742 507.521484375 742 446.9296875 662.5 c 128,-1,32
 386.337890625 583 386.337890625 583 303.337890625 583 c 0,0,1
EndSplineSet
EndChar

StartChar: uni2076
Encoding: 8310 8310 522
Width: 512
VWidth: 2441
GlyphClass: 1
Flags: HW
LayerCount: 2
Fore
SplineSet
334.719726562 718 m 0,0,1
 355.719726562 718 355.719726562 718 371.897460938 757 c 128,-1,2
 388.07421875 796 388.07421875 796 404.704101562 901 c 0,3,4
 432.897460938 1079.00585938 432.897460938 1079.00585938 396.307617188 1079.00585938 c 0,5,6
 376.901367188 1079.00585938 376.901367188 1079.00585938 361.466796875 1060.5 c 128,-1,7
 346.036132812 1042 346.036132812 1042 332.443359375 1013 c 1,8,9
 325.5703125 977.5 325.5703125 977.5 320.596679688 946.09375 c 0,10,11
 305.673828125 851.875 305.673828125 851.875 307.836914062 794.5 c 0,12,13
 310.719726562 718 310.719726562 718 334.719726562 718 c 0,0,1
313.971679688 587 m 0,14,15
 225.971679688 587 225.971679688 587 198.522460938 691.5 c 128,-1,16
 171.07421875 796 171.07421875 796 208.135742188 1030 c 0,17,18
 251.69140625 1305 251.69140625 1305 325.569335938 1430.5 c 128,-1,19
 399.446289062 1556 399.446289062 1556 499.446289062 1556 c 0,20,21
 587.446289062 1556 587.446289062 1556 616.1328125 1453 c 1,22,-1
 538.877929688 1363 l 1,23,-1
 527.02734375 1345 l 1,24,-1
 516.611328125 1355 l 1,25,26
 516.828125 1369 516.828125 1369 512.283203125 1384.5 c 128,-1,27
 507.73828125 1400 507.73828125 1400 487.064453125 1421 c 1,28,-1
 478.064453125 1421 l 2,29,30
 464.064453125 1421 464.064453125 1421 440.73828125 1400 c 128,-1,31
 417.412109375 1379 417.412109375 1379 395.04296875 1323 c 128,-1,32
 372.672851562 1267 372.672851562 1267 352.409179688 1158 c 1,33,34
 392.224609375 1211.01855469 392.224609375 1211.01855469 444.849609375 1211.01855469 c 0,35,36
 445.82421875 1211.01855469 445.82421875 1211.01855469 446.803710938 1211 c 0,37,38
 504.803710938 1211 504.803710938 1211 527.345703125 1135.5 c 128,-1,39
 549.887695312 1060 549.887695312 1060 525.1796875 904 c 0,40,41
 501.263671875 753 501.263671875 753 448.1171875 670 c 128,-1,42
 394.971679688 587 394.971679688 587 313.971679688 587 c 0,14,15
EndSplineSet
EndChar

StartChar: uni2077
Encoding: 8311 8311 523
Width: 512
VWidth: 2441
GlyphClass: 1
Flags: HW
LayerCount: 2
Fore
SplineSet
187.189453125 601 m 1,0,1
 258.2421875 816 258.2421875 816 319.46875 1010 c 128,-1,2
 380.6953125 1204 380.6953125 1204 456.48046875 1411 c 1,3,-1
 278.48046875 1411 l 1,4,-1
 299.38671875 1543 l 1,5,-1
 621.38671875 1543 l 1,6,-1
 606.182617188 1447 l 1,7,8
 522.8125 1230 522.8125 1230 459.3984375 1028.5 c 128,-1,9
 395.984375 827 395.984375 827 325.189453125 601 c 1,10,-1
 187.189453125 601 l 1,0,1
EndSplineSet
EndChar

StartChar: uni2078
Encoding: 8312 8312 524
Width: 512
VWidth: 2441
GlyphClass: 1
Flags: HW
LayerCount: 2
Fore
SplineSet
327.245117188 715 m 0,0,1
 351.245117188 715 351.245117188 715 369.021484375 742 c 128,-1,2
 386.797851562 769 386.797851562 769 399.309570312 848 c 0,3,4
 420.216796875 980 420.216796875 980 373.34375 1025 c 1,5,6
 346.017578125 1004 346.017578125 1004 325.866210938 962 c 128,-1,7
 305.713867188 920 305.713867188 920 294.943359375 852 c 0,8,9
 282.431640625 773 282.431640625 773 294.337890625 744 c 128,-1,10
 306.245117188 715 306.245117188 715 327.245117188 715 c 0,0,1
408.151367188 1169 m 1,11,12
 428.161132812 1188 428.161132812 1188 442.025390625 1234.5 c 128,-1,13
 455.890625 1281 455.890625 1281 463.017578125 1326 c 0,14,15
 478.3828125 1423.00976562 478.3828125 1423.00976562 440.166992188 1423.00976562 c 0,16,17
 439.776367188 1423.00976562 439.776367188 1423.00976562 439.380859375 1423 c 0,18,19
 420.380859375 1423 420.380859375 1423 407.500976562 1398.5 c 128,-1,20
 394.620117188 1374 394.620117188 1374 387.651367188 1330 c 0,21,22
 369.120117188 1213 369.120117188 1213 408.151367188 1169 c 1,11,12
303.971679688 587 m 128,-1,24
 220.971679688 587 220.971679688 587 186.663085938 654.5 c 128,-1,25
 152.353515625 722 152.353515625 722 171.04296875 840 c 0,26,27
 200.185546875 1024 200.185546875 1024 311.96484375 1111 c 1,28,29
 279.142578125 1150 279.142578125 1150 271.45703125 1202.5 c 128,-1,30
 263.772460938 1255 263.772460938 1255 274.225585938 1321 c 0,31,32
 291.172851562 1428 291.172851562 1428 342.967773438 1493 c 128,-1,33
 394.762695312 1558 394.762695312 1558 462.762695312 1558 c 0,34,35
 532.762695312 1558 532.762695312 1558 563.364257812 1495.5 c 128,-1,36
 593.96484375 1433 593.96484375 1433 577.651367188 1330 c 0,37,38
 566.880859375 1262 566.880859375 1262 543.982421875 1199.5 c 128,-1,39
 521.083007812 1137 521.083007812 1137 478.380859375 1101 c 1,40,41
 517.412109375 1057 517.412109375 1057 524.909179688 997 c 128,-1,42
 532.40625 937 532.40625 937 517.834960938 845 c 0,43,44
 498.987304688 726 498.987304688 726 442.979492188 656.5 c 128,-1,23
 386.971679688 587 386.971679688 587 303.971679688 587 c 128,-1,24
EndSplineSet
EndChar

StartChar: uni2079
Encoding: 8313 8313 525
Width: 512
VWidth: 2441
GlyphClass: 1
Flags: HW
LayerCount: 2
Fore
SplineSet
358.396484375 1240 m 0,0,1
 331.471679688 1070 331.471679688 1070 390.3125 1069 c 0,2,3
 417.3125 1069 417.3125 1069 432.896484375 1079 c 1,4,-1
 433.213867188 1081 l 2,5,6
 455.229492188 1220 455.229492188 1220 462.370117188 1293.5 c 128,-1,7
 469.51171875 1367 469.51171875 1367 462.288085938 1394 c 128,-1,8
 455.064453125 1421 455.064453125 1421 436.064453125 1421 c 0,9,10
 415.064453125 1421 415.064453125 1421 395.045898438 1383 c 128,-1,11
 375.02734375 1345 375.02734375 1345 358.396484375 1240 c 0,0,1
284.971679688 587 m 0,12,13
 179.971679688 587 179.971679688 587 146.176757812 683 c 1,14,-1
 226.114257812 771 l 1,15,-1
 241.440429688 792 l 1,16,-1
 253.698242188 781 l 1,17,18
 253.005859375 764 253.005859375 764 259.629882812 749 c 128,-1,19
 266.25390625 734 266.25390625 734 289.927734375 713 c 1,20,21
 290.245117188 715 290.245117188 715 294.245117188 715 c 0,22,23
 331.245117188 715 331.245117188 715 360.59375 783.5 c 128,-1,24
 389.943359375 852 389.943359375 852 411.57421875 957 c 1,25,26
 389.881835938 940 389.881835938 940 357.72265625 939 c 0,27,28
 291.72265625 939 291.72265625 939 254.364257812 1012.5 c 128,-1,29
 217.005859375 1086 217.005859375 1086 241.396484375 1240 c 0,30,31
 267.212890625 1403 267.212890625 1403 326.854492188 1476.5 c 128,-1,32
 386.49609375 1550 386.49609375 1550 456.49609375 1550 c 0,33,34
 547.49609375 1550 547.49609375 1550 572.053710938 1452.5 c 128,-1,35
 596.611328125 1355 596.611328125 1355 563.825195312 1148 c 0,36,37
 515.518554688 843 515.518554688 843 447.903320312 716 c 128,-1,38
 380.288085938 589 380.288085938 589 284.971679688 587 c 0,12,13
EndSplineSet
EndChar

StartChar: fraction
Encoding: 8260 8260 526
Width: 512
VWidth: 2441
GlyphClass: 1
Flags: HW
LayerCount: 2
Fore
SplineSet
36.3701171875 -105 m 1,0,-1
 -51.978515625 -63 l 1,1,-1
 602.43359375 1638 l 1,2,-1
 689.989257812 1591 l 1,3,-1
 36.3701171875 -105 l 1,0,-1
EndSplineSet
EndChar

StartChar: onehalf
Encoding: 189 189 527
Width: 512
VWidth: 2441
GlyphClass: 1
Flags: HW
LayerCount: 2
Fore
SplineSet
143.07421875 -170 m 1,0,-1
 156.0625 -88 l 1,1,2
 218.118164062 26 218.118164062 26 257.892578125 103.5 c 128,-1,3
 297.66796875 181 297.66796875 181 320.829101562 242 c 128,-1,4
 343.990234375 303 343.990234375 303 356.28515625 368 c 0,5,6
 361.829101562 403 361.829101562 403 360.159179688 433.5 c 128,-1,7
 358.490234375 464 358.490234375 464 346.490234375 464 c 0,8,9
 332.490234375 464 332.490234375 464 321.985351562 454.5 c 128,-1,10
 311.481445312 445 311.481445312 445 291.51171875 401 c 1,11,-1
 227.947265625 429 l 1,12,13
 254.716796875 497 254.716796875 497 286.369140625 539 c 128,-1,14
 318.021484375 581 318.021484375 581 371.021484375 581 c 0,15,16
 421.021484375 581 421.021484375 581 441.46875 527 c 128,-1,17
 461.916015625 473 461.916015625 473 444.96875 366 c 0,18,19
 433.08984375 291 433.08984375 291 411.349609375 229.5 c 128,-1,20
 389.608398438 168 389.608398438 168 356.234375 102.5 c 128,-1,21
 322.860351562 37 322.860351562 37 274.130859375 -56 c 1,22,-1
 378.130859375 -56 l 1,23,-1
 360.07421875 -170 l 1,24,-1
 143.07421875 -170 l 1,0,-1
4.3701171875 -105 m 1,25,-1
 -68.978515625 -63 l 1,26,-1
 525.43359375 1638 l 1,27,-1
 596.989257812 1591 l 1,28,-1
 4.3701171875 -105 l 1,25,-1
117.822265625 927 m 1,29,-1
 210.001953125 1509 l 1,30,-1
 153.716796875 1463 l 1,31,-1
 155.98046875 1572 l 1,32,-1
 261.293945312 1675 l 1,33,-1
 324.293945312 1675 l 1,34,-1
 205.822265625 927 l 1,35,-1
 117.822265625 927 l 1,29,-1
EndSplineSet
EndChar

StartChar: onequarter
Encoding: 188 188 528
Width: 512
VWidth: 2441
GlyphClass: 1
Flags: HW
LayerCount: 2
Fore
SplineSet
238.947265625 107 m 1,0,-1
 290.947265625 107 l 1,1,-1
 318.505859375 281 l 1,2,-1
 238.947265625 107 l 1,0,-1
246.07421875 -170 m 1,3,-1
 272.208007812 -5 l 1,4,-1
 144.208007812 -5 l 1,5,-1
 160.521484375 98 l 1,6,-1
 389.229492188 576 l 1,7,-1
 448.229492188 576 l 1,8,-1
 373.947265625 107 l 1,9,-1
 397.947265625 107 l 1,10,-1
 379.891601562 -7 l 1,11,-1
 355.891601562 -7 l 1,12,-1
 330.07421875 -170 l 1,13,-1
 246.07421875 -170 l 1,3,-1
-3.6298828125 -105 m 1,14,-1
 -74.978515625 -63 l 1,15,-1
 514.43359375 1638 l 1,16,-1
 585.989257812 1591 l 1,17,-1
 -3.6298828125 -105 l 1,14,-1
110.822265625 927 m 1,18,-1
 203.001953125 1509 l 1,19,-1
 146.716796875 1463 l 1,20,-1
 149.98046875 1572 l 1,21,-1
 254.293945312 1675 l 1,22,-1
 316.293945312 1675 l 1,23,-1
 197.822265625 927 l 1,24,-1
 110.822265625 927 l 1,18,-1
EndSplineSet
EndChar

StartChar: threequarters
Encoding: 190 190 529
Width: 512
VWidth: 2441
GlyphClass: 1
Flags: HW
LayerCount: 2
Fore
SplineSet
277.947265625 107 m 1,0,-1
 305.505859375 281 l 1,1,-1
 226.947265625 107 l 1,2,-1
 277.947265625 107 l 1,0,-1
258.208007812 -5 m 1,3,-1
 135.208007812 -5 l 1,4,-1
 151.521484375 98 l 1,5,-1
 375.229492188 576 l 1,6,-1
 432.229492188 576 l 1,7,-1
 357.947265625 107 l 1,8,-1
 380.947265625 107 l 1,9,-1
 362.891601562 -7 l 1,10,-1
 339.891601562 -7 l 1,11,-1
 314.07421875 -170 l 1,12,-1
 232.07421875 -170 l 1,13,-1
 258.208007812 -5 l 1,3,-1
-7.6298828125 -105 m 1,14,-1
 -76.978515625 -63 l 1,15,-1
 502.43359375 1638 l 1,16,-1
 570.989257812 1591 l 1,17,-1
 -7.6298828125 -105 l 1,14,-1
135.080078125 916 m 0,18,19
 101.080078125 916 101.080078125 916 77.77734375 942.5 c 128,-1,20
 54.474609375 969 54.474609375 969 44.443359375 1013 c 1,21,-1
 103.204101562 1062 l 1,22,-1
 120.104492188 1074 l 1,23,-1
 122.99609375 1067 l 1,24,25
 114.779296875 1053 114.779296875 1053 116.51171875 1045 c 128,-1,26
 118.245117188 1037 118.245117188 1037 128.02734375 1023 c 0,27,28
 132.443359375 1013 132.443359375 1013 142.443359375 1013 c 0,29,30
 157.443359375 1013 157.443359375 1013 172.061523438 1039 c 128,-1,31
 186.6796875 1065 186.6796875 1065 198.083007812 1137 c 0,32,33
 211.229492188 1220 211.229492188 1220 199.346679688 1246 c 128,-1,34
 187.46484375 1272 187.46484375 1272 148.356445312 1265 c 1,35,-1
 164.51171875 1367 l 1,36,37
 208.51171875 1367 208.51171875 1367 222.633789062 1402.5 c 128,-1,38
 236.756835938 1438 236.756835938 1438 245.151367188 1491 c 0,39,40
 259.564453125 1582 259.564453125 1582 236.564453125 1582 c 0,41,42
 217.564453125 1582 217.564453125 1582 195.803710938 1533 c 1,43,-1
 143.247070312 1580 l 1,44,45
 191.0859375 1680 191.0859375 1680 256.0859375 1680 c 0,46,47
 298.0859375 1680 298.0859375 1680 320.538085938 1635.5 c 128,-1,48
 342.989257812 1591 342.989257812 1591 327.151367188 1491 c 0,49,50
 317.96484375 1433 317.96484375 1433 300.654296875 1390 c 128,-1,51
 283.34375 1347 283.34375 1347 257.017578125 1326 c 1,52,53
 278.216796875 1302 278.216796875 1302 285.009765625 1256.5 c 128,-1,54
 291.803710938 1211 291.803710938 1211 279.291015625 1132 c 0,55,56
 261.869140625 1022 261.869140625 1022 221.974609375 969 c 128,-1,57
 182.080078125 916 182.080078125 916 135.080078125 916 c 0,18,19
EndSplineSet
EndChar

StartChar: uni2070.ss02
Encoding: 65566 -1 533
Width: 512
VWidth: 2441
GlyphClass: 1
Flags: HW
LayerCount: 2
Fore
SplineSet
324.719726562 718 m 0,0,1
 356.719726562 718 356.719726562 718 382.732421875 797 c 128,-1,2
 408.745117188 876 408.745117188 876 438.99609375 1067 c 0,3,4
 467.6640625 1248 467.6640625 1248 466.467773438 1332 c 128,-1,5
 465.272460938 1416 465.272460938 1416 435.272460938 1416 c 128,-1,6
 405.272460938 1416 405.272460938 1416 377.967773438 1332 c 128,-1,7
 350.6640625 1248 350.6640625 1248 321.99609375 1067 c 0,8,9
 291.745117188 876 291.745117188 876 294.732421875 797 c 128,-1,10
 297.719726562 718 297.719726562 718 324.719726562 718 c 0,0,1
303.337890625 583 m 0,11,12
 224.337890625 583 224.337890625 583 190.206054688 689.5 c 128,-1,13
 156.07421875 796 156.07421875 796 198.99609375 1067 c 0,14,15
 241.125976562 1333 241.125976562 1333 309.311523438 1441.5 c 128,-1,16
 377.49609375 1550 377.49609375 1550 456.49609375 1550 c 128,-1,17
 535.49609375 1550 535.49609375 1550 569.311523438 1441.5 c 128,-1,18
 603.125976562 1333 603.125976562 1333 560.99609375 1067 c 0,19,20
 531.853515625 883 531.853515625 883 492.302734375 778.5 c 128,-1,21
 452.750976562 674 452.750976562 674 403.544921875 628.5 c 128,-1,22
 354.337890625 583 354.337890625 583 303.337890625 583 c 0,11,12
EndSplineSet
EndChar

StartChar: uni2070.zero
Encoding: 65570 -1 537
Width: 512
VWidth: 2441
GlyphClass: 1
Flags: HW
LayerCount: 2
Fore
SplineSet
379.987304688 1048 m 0,0,1
 360.987304688 1048 360.987304688 1048 346.94140625 1063.5 c 128,-1,2
 332.896484375 1079 332.896484375 1079 336.380859375 1101 c 0,3,4
 340.182617188 1125 340.182617188 1125 358.795898438 1141.5 c 128,-1,5
 377.409179688 1158 377.409179688 1158 397.409179688 1158 c 0,6,7
 418.409179688 1158 418.409179688 1158 430.795898438 1141.5 c 128,-1,8
 443.182617188 1125 443.182617188 1125 439.380859375 1101 c 0,9,10
 436.055664062 1080 436.055664062 1080 418.521484375 1064 c 128,-1,11
 400.987304688 1048 400.987304688 1048 379.987304688 1048 c 0,0,1
324.719726562 718 m 0,12,13
 356.719726562 718 356.719726562 718 382.732421875 797 c 128,-1,14
 408.745117188 876 408.745117188 876 438.99609375 1067 c 0,15,16
 467.6640625 1248 467.6640625 1248 466.467773438 1332 c 128,-1,17
 465.272460938 1416 465.272460938 1416 435.272460938 1416 c 128,-1,18
 405.272460938 1416 405.272460938 1416 377.967773438 1332 c 128,-1,19
 350.6640625 1248 350.6640625 1248 321.99609375 1067 c 0,20,21
 291.745117188 876 291.745117188 876 294.732421875 797 c 128,-1,22
 297.719726562 718 297.719726562 718 324.719726562 718 c 0,12,13
303.337890625 583 m 0,23,24
 224.337890625 583 224.337890625 583 190.206054688 689.5 c 128,-1,25
 156.07421875 796 156.07421875 796 198.99609375 1067 c 0,26,27
 241.125976562 1333 241.125976562 1333 309.311523438 1441.5 c 128,-1,28
 377.49609375 1550 377.49609375 1550 456.49609375 1550 c 128,-1,29
 535.49609375 1550 535.49609375 1550 569.311523438 1441.5 c 128,-1,30
 603.125976562 1333 603.125976562 1333 560.99609375 1067 c 0,31,32
 531.853515625 883 531.853515625 883 492.302734375 778.5 c 128,-1,33
 452.750976562 674 452.750976562 674 403.544921875 628.5 c 128,-1,34
 354.337890625 583 354.337890625 583 303.337890625 583 c 0,23,24
EndSplineSet
EndChar

StartChar: period
Encoding: 46 46 538
Width: 512
VWidth: 2607
GlyphClass: 1
Flags: HW
LayerCount: 2
Fore
SplineSet
226.015625 139 m 128,-1,1
 177.015625 139 177.015625 139 147.796875 175.5 c 128,-1,2
 118.577148438 212 118.577148438 212 126.813476562 264 c 0,3,4
 135.366210938 318 135.366210938 318 176.068359375 354 c 128,-1,5
 216.76953125 390 216.76953125 390 265.76953125 390 c 128,-1,6
 314.76953125 390 314.76953125 390 343.989257812 353.5 c 128,-1,7
 373.208007812 317 373.208007812 317 364.813476562 264 c 0,8,9
 356.736328125 213 356.736328125 213 315.875976562 176 c 128,-1,0
 275.015625 139 275.015625 139 226.015625 139 c 128,-1,1
EndSplineSet
EndChar

StartChar: comma
Encoding: 44 44 539
Width: 512
VWidth: 2607
GlyphClass: 1
Flags: HW
LayerCount: 2
Fore
SplineSet
153.354492188 -244 m 1,0,-1
 58.5498046875 -167 l 1,1,2
 112.528320312 -104 112.528320312 -104 150.165039062 -40 c 128,-1,3
 187.80078125 24 187.80078125 24 196.353515625 78 c 0,4,5
 201.421875 110 201.421875 110 191.198242188 137 c 128,-1,6
 180.974609375 164 180.974609375 164 169.568359375 193 c 128,-1,7
 158.161132812 222 158.161132812 222 165.129882812 266 c 0,8,9
 175.108398438 329 175.108398438 329 218.206054688 367.5 c 128,-1,10
 261.303710938 406 261.303710938 406 305.303710938 406 c 0,11,12
 354.303710938 406 354.303710938 406 384.547851562 366.5 c 128,-1,13
 414.791992188 327 414.791992188 327 400.853515625 239 c 0,14,15
 382.323242188 122 382.323242188 122 318.762695312 -1.5 c 128,-1,16
 255.202148438 -125 255.202148438 -125 153.354492188 -244 c 1,0,-1
EndSplineSet
EndChar

StartChar: colon
Encoding: 58 58 540
Width: 512
VWidth: 2716
GlyphClass: 1
Flags: HW
LayerCount: 2
Fore
SplineSet
238.279296875 248 m 128,-1,1
 187.279296875 248 187.279296875 248 157.060546875 284.5 c 128,-1,2
 126.841796875 321 126.841796875 321 135.077148438 373 c 0,3,4
 143.629882812 427 143.629882812 427 186.490234375 464 c 128,-1,5
 229.350585938 501 229.350585938 501 278.350585938 501 c 128,-1,6
 327.350585938 501 327.350585938 501 358.911132812 463.5 c 128,-1,7
 390.471679688 426 390.471679688 426 382.077148438 373 c 0,8,9
 374 322 374 322 331.639648438 285 c 128,-1,0
 289.279296875 248 289.279296875 248 238.279296875 248 c 128,-1,1
363.561523438 1039 m 0,10,11
 314.561523438 1039 314.561523438 1039 283.580078125 1077 c 128,-1,12
 252.598632812 1115 252.598632812 1115 260.834960938 1167 c 0,13,14
 269.387695312 1221 269.387695312 1221 312.088867188 1257 c 128,-1,15
 354.791015625 1293 354.791015625 1293 403.791015625 1293 c 128,-1,16
 452.791015625 1293 452.791015625 1293 484.509765625 1256.5 c 128,-1,17
 516.229492188 1220 516.229492188 1220 507.834960938 1167 c 0,18,19
 499.756835938 1116 499.756835938 1116 457.159179688 1077.5 c 128,-1,20
 414.561523438 1039 414.561523438 1039 363.561523438 1039 c 0,10,11
EndSplineSet
EndChar

StartChar: semicolon
Encoding: 59 59 541
Width: 512
VWidth: 2716
GlyphClass: 1
Flags: HW
LayerCount: 2
Fore
SplineSet
140.618164062 -135 m 1,0,-1
 45.8134765625 -58 l 1,1,2
 101.791992188 5 101.791992188 5 140.428710938 69 c 128,-1,3
 179.065429688 133 179.065429688 133 187.618164062 187 c 0,4,5
 192.686523438 219 192.686523438 219 180.462890625 246 c 128,-1,6
 168.239257812 273 168.239257812 273 158.83203125 302 c 128,-1,7
 149.424804688 331 149.424804688 331 156.39453125 375 c 0,8,9
 166.372070312 438 166.372070312 438 207.469726562 476.5 c 128,-1,10
 248.568359375 515 248.568359375 515 292.568359375 515 c 0,11,12
 341.568359375 515 341.568359375 515 371.811523438 475.5 c 128,-1,13
 402.055664062 436 402.055664062 436 388.118164062 348 c 0,14,15
 369.586914062 231 369.586914062 231 306.026367188 107.5 c 128,-1,16
 242.465820312 -16 242.465820312 -16 140.618164062 -135 c 1,0,-1
363.561523438 1039 m 0,17,18
 314.561523438 1039 314.561523438 1039 283.580078125 1077 c 128,-1,19
 252.598632812 1115 252.598632812 1115 260.834960938 1167 c 0,20,21
 269.387695312 1221 269.387695312 1221 312.088867188 1257 c 128,-1,22
 354.791015625 1293 354.791015625 1293 403.791015625 1293 c 128,-1,23
 452.791015625 1293 452.791015625 1293 484.509765625 1256.5 c 128,-1,24
 516.229492188 1220 516.229492188 1220 507.834960938 1167 c 0,25,26
 499.756835938 1116 499.756835938 1116 457.159179688 1077.5 c 128,-1,27
 414.561523438 1039 414.561523438 1039 363.561523438 1039 c 0,17,18
EndSplineSet
EndChar

StartChar: ellipsis
Encoding: 8230 8230 542
Width: 512
VWidth: 2441
GlyphClass: 1
Flags: HW
LayerCount: 2
Fore
SplineSet
-23.80078125 -24 m 128,-1,1
 -55.80078125 -24 -55.80078125 -24 -72.07421875 9 c 128,-1,2
 -88.34765625 42 -88.34765625 42 -81.37890625 86 c 128,-1,3
 -74.41015625 130 -74.41015625 130 -47.18359375 163 c 128,-1,4
 -19.95703125 196 -19.95703125 196 11.04296875 196 c 0,5,6
 43.04296875 196 43.04296875 196 60.81640625 163 c 128,-1,7
 78.58984375 130 78.58984375 130 71.62109375 86 c 128,-1,8
 64.65234375 42 64.65234375 42 36.42578125 9 c 128,-1,0
 8.19921875 -24 8.19921875 -24 -23.80078125 -24 c 128,-1,1
139.19921875 -24 m 128,-1,10
 107.19921875 -24 107.19921875 -24 90.92578125 9 c 128,-1,11
 74.65234375 42 74.65234375 42 81.62109375 86 c 128,-1,12
 88.58984375 130 88.58984375 130 115.31640625 163 c 128,-1,13
 142.04296875 196 142.04296875 196 174.04296875 196 c 128,-1,14
 206.04296875 196 206.04296875 196 223.31640625 163 c 128,-1,15
 240.58984375 130 240.58984375 130 233.62109375 86 c 128,-1,16
 226.65234375 42 226.65234375 42 198.92578125 9 c 128,-1,9
 171.19921875 -24 171.19921875 -24 139.19921875 -24 c 128,-1,10
304.19921875 -24 m 128,-1,18
 272.19921875 -24 272.19921875 -24 255.42578125 9 c 128,-1,19
 238.65234375 42 238.65234375 42 245.62109375 86 c 128,-1,20
 252.58984375 130 252.58984375 130 279.81640625 163 c 128,-1,21
 307.04296875 196 307.04296875 196 339.04296875 196 c 128,-1,22
 371.04296875 196 371.04296875 196 388.31640625 163 c 128,-1,23
 405.58984375 130 405.58984375 130 398.62109375 86 c 128,-1,24
 391.65234375 42 391.65234375 42 363.92578125 9 c 128,-1,17
 336.19921875 -24 336.19921875 -24 304.19921875 -24 c 128,-1,18
EndSplineSet
EndChar

StartChar: exclam
Encoding: 33 33 543
Width: 512
VWidth: 2441
GlyphClass: 1
Flags: HW
LayerCount: 2
Fore
SplineSet
199.723632812 -27 m 128,-1,1
 150.723632812 -27 150.723632812 -27 121.504882812 9.5 c 128,-1,2
 92.2861328125 46 92.2861328125 46 100.521484375 98 c 0,3,4
 109.07421875 152 109.07421875 152 149.776367188 188 c 128,-1,5
 190.478515625 224 190.478515625 224 239.478515625 224 c 128,-1,6
 288.478515625 224 288.478515625 224 317.697265625 187.5 c 128,-1,7
 346.916015625 151 346.916015625 151 338.521484375 98 c 0,8,9
 330.444335938 47 330.444335938 47 289.583984375 10 c 128,-1,0
 248.723632812 -27 248.723632812 -27 199.723632812 -27 c 128,-1,1
215.916015625 473 m 1,10,-1
 322.825195312 1470 l 2,11,12
 323.462890625 1474.83886719 323.462890625 1474.83886719 324.208007812 1479.54394531 c 0,13,14
 335.014648438 1547.77441406 335.014648438 1547.77441406 368.514648438 1588 c 0,15,16
 404.325195312 1631 404.325195312 1631 452.325195312 1631 c 0,17,18
 501.325195312 1631 501.325195312 1631 524.014648438 1588 c 0,19,20
 544.609375 1548.96875 544.609375 1548.96875 530.989257812 1462.97558594 c 0,21,22
 529.604492188 1454.23046875 529.604492188 1454.23046875 527.865234375 1445 c 2,23,-1
 317.916015625 473 l 1,24,-1
 215.916015625 473 l 1,10,-1
EndSplineSet
EndChar

StartChar: question
Encoding: 63 63 545
Width: 512
VWidth: 2441
GlyphClass: 1
Flags: HW
LayerCount: 2
Fore
SplineSet
238.723632812 -27 m 0,0,1
 187.723632812 -27 187.723632812 -27 159.004882812 9.5 c 128,-1,2
 130.286132812 46 130.286132812 46 138.521484375 98 c 0,3,4
 147.07421875 152 147.07421875 152 187.276367188 188 c 128,-1,5
 227.478515625 224 227.478515625 224 278.478515625 224 c 0,6,7
 327.478515625 224 327.478515625 224 355.697265625 187.5 c 128,-1,8
 383.916015625 151 383.916015625 151 375.521484375 98 c 0,9,10
 367.444335938 47 367.444335938 47 327.583984375 10 c 128,-1,11
 287.723632812 -27 287.723632812 -27 238.723632812 -27 c 0,0,1
245.46875 527 m 2,12,13
 262.890625 637 262.890625 637 288.690429688 711.5 c 128,-1,14
 314.490234375 786 314.490234375 786 343.201171875 841 c 128,-1,15
 371.912109375 896 371.912109375 896 401.227539062 948.5 c 128,-1,16
 430.54296875 1001 430.54296875 1001 456.3125 1069 c 128,-1,17
 482.083007812 1137 482.083007812 1137 497.921875 1237 c 0,18,19
 511.859375 1325 511.859375 1325 498.807617188 1381.5 c 128,-1,20
 485.756835938 1438 485.756835938 1438 441.756835938 1438 c 0,21,22
 395.756835938 1438 395.756835938 1438 349.620117188 1374 c 0,23,24
 326.759765625 1337 326.759765625 1337 321.98828125 1319.5 c 128,-1,25
 317.216796875 1302 317.216796875 1302 320.890625 1281 c 1,26,-1
 311.672851562 1267 l 1,27,-1
 292.256835938 1277 l 1,28,-1
 199.095703125 1377 l 1,29,30
 256.943359375 1496 256.943359375 1496 332.080078125 1560 c 128,-1,31
 407.216796875 1624 407.216796875 1624 500.216796875 1624 c 0,32,33
 598.216796875 1624 598.216796875 1624 641.590820312 1528.5 c 128,-1,34
 684.96484375 1433 684.96484375 1433 652.020507812 1225 c 0,35,36
 633.96484375 1111 633.96484375 1111 607.165039062 1036.5 c 128,-1,37
 580.366210938 962 580.366210938 962 552.654296875 907 c 128,-1,38
 524.943359375 852 524.943359375 852 496.024414062 802 c 128,-1,39
 467.10546875 752 467.10546875 752 443.310546875 687 c 128,-1,40
 419.514648438 622 419.514648438 622 404.46875 527 c 2,41,-1
 388.629882812 427 l 1,42,-1
 229.629882812 427 l 1,43,-1
 245.46875 527 l 2,12,13
EndSplineSet
EndChar

StartChar: periodcentered
Encoding: 183 183 547
Width: 512
VWidth: 2441
GlyphClass: 1
Flags: HW
LayerCount: 2
Fore
SplineSet
313.443359375 691 m 128,-1,1
 264.443359375 691 264.443359375 691 235.224609375 727.5 c 128,-1,2
 206.005859375 764 206.005859375 764 214.083007812 815 c 0,3,4
 222.635742188 869 222.635742188 869 263.49609375 906 c 128,-1,5
 304.356445312 943 304.356445312 943 353.356445312 943 c 128,-1,6
 402.356445312 943 402.356445312 943 431.49609375 906 c 128,-1,7
 460.635742188 869 460.635742188 869 452.083007812 815 c 0,8,9
 444.005859375 764 444.005859375 764 403.224609375 727.5 c 128,-1,0
 362.443359375 691 362.443359375 691 313.443359375 691 c 128,-1,1
EndSplineSet
Substitution2: "Single Substitution lookup 11 subtable" periodcentered.loclCAT
Substitution2: "Single Substitution lookup 10 subtable" periodcentered.loclCAT
Substitution2: "'aalt' Access All Alternates in Latin lookup 0 subtable" periodcentered.loclCAT
EndChar

StartChar: bullet
Encoding: 8226 8226 548
Width: 512
VWidth: 2441
GlyphClass: 1
Flags: HW
LayerCount: 2
Fore
SplineSet
303.844726562 542 m 128,-1,1
 233.844726562 542 233.844726562 542 192.159179688 594.5 c 128,-1,2
 150.474609375 647 150.474609375 647 162.037109375 720 c 0,3,4
 173.916015625 795 173.916015625 795 234.809570312 848 c 128,-1,5
 295.704101562 901 295.704101562 901 360.704101562 901 c 0,6,7
 428.704101562 901 428.704101562 901 472.23046875 847.5 c 128,-1,8
 515.756835938 794 515.756835938 794 504.037109375 720 c 0,9,10
 492.474609375 647 492.474609375 647 433.159179688 594.5 c 128,-1,0
 373.844726562 542 373.844726562 542 303.844726562 542 c 128,-1,1
EndSplineSet
EndChar

StartChar: asterisk
Encoding: 42 42 549
Width: 512
VWidth: 2441
GlyphClass: 1
Flags: HW
LayerCount: 2
Fore
SplineSet
119.921875 271 m 1,0,-1
 17.9375 410 l 1,1,-1
 212.005859375 764 l 1,2,-1
 73.3095703125 848 l 1,3,-1
 158.896484375 1079 l 1,4,-1
 268.40625 937 l 1,5,-1
 307.54296875 1323 l 1,6,-1
 469.54296875 1323 l 1,7,-1
 383.40625 937 l 1,8,-1
 544.3125 1069 l 1,9,-1
 553.309570312 848 l 1,10,-1
 372.005859375 764 l 1,11,-1
 456.729492188 415 l 1,12,-1
 312.921875 271 l 1,13,-1
 272.08984375 613 l 1,14,-1
 119.921875 271 l 1,0,-1
EndSplineSet
Substitution2: "'ss01' Style Set 1 in Latin lookup 35 subtable" asterisk.ss01
Substitution2: "'salt' Stylistic Alternatives in Latin lookup 34 subtable" asterisk.ss01
Substitution2: "'aalt' Access All Alternates in Latin lookup 0 subtable" asterisk.ss01
EndChar

StartChar: uni2E12
Encoding: 11794 11794 550
Width: 512
VWidth: 2212
GlyphClass: 1
Flags: HW
LayerCount: 2
Fore
SplineSet
85.037109375 -246 m 1,0,-1
 106.102539062 -113 l 1,1,2
 143.102539062 -113 143.102539062 -113 165.30859375 -67.5 c 128,-1,3
 187.515625 -22 187.515625 -22 198.444335938 47 c 0,4,5
 209.53125 117 209.53125 117 201.974609375 164 c 128,-1,6
 194.418945312 211 194.418945312 211 157.418945312 211 c 1,7,-1
 177.850585938 340 l 1,8,9
 251.850585938 340 251.850585938 340 287.9765625 274.5 c 128,-1,10
 324.102539062 209 324.102539062 209 298.126953125 45 c 0,11,12
 272.944335938 -114 272.944335938 -114 215.991210938 -180 c 128,-1,13
 159.037109375 -246 159.037109375 -246 85.037109375 -246 c 1,0,-1
EndSplineSet
EndChar

StartChar: numbersign
Encoding: 35 35 551
Width: 512
VWidth: 2441
GlyphClass: 1
Flags: HW
LayerCount: 2
Fore
SplineSet
221.981445312 606 m 1,0,-1
 303.981445312 606 l 1,1,-1
 379.94921875 972 l 1,2,-1
 300.94921875 972 l 1,3,-1
 221.981445312 606 l 1,0,-1
178.80078125 24 m 1,4,-1
 271.797851562 447 l 1,5,-1
 190.797851562 447 l 1,6,-1
 101.54296875 35 l 1,7,-1
 -13.931640625 32 l 1,8,-1
 74.005859375 442 l 1,9,-1
 4.005859375 442 l 1,10,-1
 33.189453125 601 l 1,11,-1
 105.189453125 601 l 1,12,-1
 183.474609375 969 l 1,13,-1
 102.474609375 969 l 1,14,-1
 129.974609375 1130 l 1,15,-1
 212.974609375 1130 l 1,16,-1
 298.219726562 1523 l 1,17,-1
 417.01171875 1528 l 1,18,-1
 331.766601562 1135 l 1,19,-1
 412.766601562 1135 l 1,20,-1
 495.5859375 1519 l 1,21,-1
 615.90234375 1521 l 1,22,-1
 531.55859375 1140 l 1,23,-1
 594.55859375 1140 l 1,24,-1
 562.583007812 976 l 1,25,-1
 500.583007812 976 l 1,26,-1
 421.08984375 613 l 1,27,-1
 501.08984375 613 l 1,28,-1
 468.90625 454 l 1,29,-1
 391.90625 454 l 1,30,-1
 300.54296875 35 l 1,31,-1
 178.80078125 24 l 1,4,-1
EndSplineSet
EndChar

StartChar: slash
Encoding: 47 47 552
Width: 512
VWidth: 2441
GlyphClass: 1
Flags: HW
LayerCount: 2
Fore
SplineSet
97.6865234375 -103 m 1,0,-1
 -51.869140625 -56 l 1,1,-1
 537.216796875 1624 l 1,2,-1
 685.98046875 1572 l 1,3,-1
 97.6865234375 -103 l 1,0,-1
EndSplineSet
Substitution2: "'frac' Diagonal Fractions in Latin lookup 23 subtable" fraction
Substitution2: "'aalt' Access All Alternates in Latin lookup 0 subtable" fraction
EndChar

StartChar: backslash
Encoding: 92 92 553
Width: 512
VWidth: 2441
GlyphClass: 1
Flags: HW
LayerCount: 2
Fore
SplineSet
263.686523438 -103 m 1,0,-1
 205.98046875 1572 l 1,1,-1
 371.216796875 1624 l 1,2,-1
 428.130859375 -56 l 1,3,-1
 263.686523438 -103 l 1,0,-1
EndSplineSet
EndChar

StartChar: asterisk.ss01
Encoding: 65572 -1 555
Width: 512
VWidth: 2441
GlyphClass: 1
Flags: HW
LayerCount: 2
Fore
SplineSet
143.045898438 417 m 1,0,-1
 41.2197265625 557 l 1,1,-1
 235.288085938 911 l 1,2,-1
 96.4345703125 994 l 1,3,-1
 182.020507812 1225 l 1,4,-1
 291.688476562 1084 l 1,5,-1
 330.825195312 1470 l 1,6,-1
 492.825195312 1470 l 1,7,-1
 406.688476562 1084 l 1,8,-1
 567.595703125 1216 l 1,9,-1
 576.434570312 994 l 1,10,-1
 395.288085938 911 l 1,11,-1
 479.853515625 561 l 1,12,-1
 336.045898438 417 l 1,13,-1
 295.213867188 759 l 1,14,-1
 143.045898438 417 l 1,0,-1
EndSplineSet
EndChar

StartChar: parenleft
Encoding: 40 40 556
Width: 512
VWidth: 2449
GlyphClass: 1
Flags: HW
LayerCount: 2
Fore
SplineSet
299.037109375 -246 m 1,0,1
 214.083984375 -151 214.083984375 -151 158.42578125 9 c 128,-1,2
 102.766601562 169 102.766601562 169 89.181640625 370.5 c 128,-1,3
 75.595703125 572 75.595703125 572 109.96484375 789 c 128,-1,4
 144.334960938 1006 144.334960938 1006 220.95703125 1202.5 c 128,-1,5
 297.580078125 1399 297.580078125 1399 400.629882812 1554 c 128,-1,6
 503.678710938 1709 503.678710938 1709 615.409179688 1802 c 1,7,-1
 700.1171875 1636 l 1,8,9
 562.52734375 1506 562.52734375 1506 447.786132812 1283.5 c 128,-1,10
 333.045898438 1061 333.045898438 1061 289.490234375 786 c 0,11,12
 260.34765625 602 260.34765625 602 267.818359375 434.5 c 128,-1,13
 275.2890625 267 275.2890625 267 314.431640625 129 c 128,-1,14
 353.57421875 -9 353.57421875 -9 422.63671875 -97 c 1,15,-1
 299.037109375 -246 l 1,0,1
EndSplineSet
EndChar

StartChar: parenright
Encoding: 41 41 557
Width: 512
VWidth: 2449
GlyphClass: 1
Flags: HW
LayerCount: 2
Fore
SplineSet
58.037109375 -246 m 1,0,1
 173.083984375 -151 173.083984375 -151 278.42578125 9 c 0,2,3
 384.766601562 169 384.766601562 169 462.602539062 370 c 0,4,5
 540.4375 571 540.4375 571 575.96484375 789 c 0,6,7
 610.334960938 1006 610.334960938 1006 594.377929688 1202 c 0,8,9
 579.580078125 1399 579.580078125 1399 525.129882812 1554 c 0,10,11
 470.678710938 1709 470.678710938 1709 389.409179688 1802 c 1,12,-1
 253.1171875 1636 l 1,13,14
 349.52734375 1506 349.52734375 1506 394.365234375 1284 c 0,15,16
 438.494140625 1063.75292969 438.494140625 1063.75292969 395.577148438 792.782226562 c 0,0,0
 395.040039062 789.395507812 395.040039062 789.395507812 394.490234375 786 c 0,1,2
 365.34765625 602 365.34765625 602 303.897460938 435 c 0,3,4
 242.2890625 267 242.2890625 267 161.2734375 128 c 0,5,6
 78.416015625 -10 78.416015625 -10 -18.36328125 -97 c 1,7,-1
 58.037109375 -246 l 1,0,1
EndSplineSet
EndChar

StartChar: braceleft
Encoding: 123 123 558
Width: 512
VWidth: 2486
GlyphClass: 1
Flags: HW
LayerCount: 2
Fore
SplineSet
362.381835938 -187 m 2,0,1
 274.381835938 -187 274.381835938 -187 210.504882812 -151.5 c 128,-1,2
 146.626953125 -116 146.626953125 -116 122.278320312 -23.5 c 128,-1,3
 99.66796875 62.392578125 99.66796875 62.392578125 124.12890625 216.833984375 c 0,0,0
 126.010742188 228.713867188 126.010742188 228.713867188 128.170898438 241 c 2,4,-1
 170.81640625 485 l 2,5,6
 187.763671875 592 187.763671875 592 183.579101562 644.5 c 128,-1,7
 179.393554688 697 179.393554688 697 157.348632812 712.5 c 128,-1,8
 135.303710938 728 135.303710938 728 100.303710938 728 c 2,9,-1
 75.3037109375 728 l 1,10,-1
 106.34765625 924 l 1,11,-1
 131.34765625 924 l 2,12,13
 187.34765625 924 187.34765625 924 222.711914062 970.5 c 128,-1,14
 258.077148438 1017 258.077148438 1017 280.092773438 1156 c 2,15,-1
 304.809570312 1331 l 2,16,17
 338.38671875 1543 338.38671875 1543 433.833984375 1650 c 128,-1,18
 529.28125 1757 529.28125 1757 638.28125 1757 c 2,19,-1
 716.28125 1757 l 1,20,-1
 688.247070312 1580 l 1,21,-1
 620.247070312 1580 l 2,22,23
 578.247070312 1580 578.247070312 1580 539.2734375 1526.5 c 128,-1,24
 503.790039062 1477.79101562 503.790039062 1477.79101562 488.1328125 1378.93261719 c 0,0,0
 486.592773438 1369.20898438 486.592773438 1369.20898438 485.244140625 1359 c 2,25,-1
 460.001953125 1187 l 2,26,27
 438.620117188 1052 438.620117188 1052 391.366210938 962 c 128,-1,28
 344.111328125 872 344.111328125 872 283.825195312 826 c 1,29,30
 328.6484375 787 328.6484375 787 347.15625 695.5 c 128,-1,31
 365.6640625 604 365.6640625 604 340.956054688 448 c 2,32,-1
 305.487304688 243 l 2,33,34
 282.6796875 99 282.6796875 99 301.810546875 43 c 128,-1,35
 320.94140625 -13 320.94140625 -13 376.94140625 -13 c 2,36,-1
 432.94140625 -13 l 1,37,-1
 405.381835938 -187 l 1,38,-1
 362.381835938 -187 l 2,0,1
EndSplineSet
EndChar

StartChar: braceright
Encoding: 125 125 559
Width: 512
VWidth: 2486
GlyphClass: 1
Flags: HW
LayerCount: 2
Fore
SplineSet
0.3818359375 -187 m 2,0,1
 88.3818359375 -187 88.3818359375 -187 164.92578125 -152 c 0,2,3
 239.626953125 -116 239.626953125 -116 293.357421875 -23 c 0,4,5
 343.249023438 63.357421875 343.249023438 63.357421875 367.579101562 216.969726562 c 0,0,0
 369.450195312 228.786132812 369.450195312 228.786132812 371.170898438 241 c 2,1,-1
 404.81640625 485 l 2,2,3
 421.763671875 592 421.763671875 592 443.158203125 645 c 0,4,5
 463.393554688 697 463.393554688 697 489.927734375 713 c 0,6,7
 516.303710938 728 516.303710938 728 553.303710938 728 c 2,8,-1
 578.303710938 728 l 1,9,-1
 609.34765625 924 l 1,10,-1
 584.34765625 924 l 2,11,12
 528.34765625 924 528.34765625 924 507.6328125 970 c 0,13,14
 486.642578125 1014.46679688 486.642578125 1014.46679688 507.59765625 1146.77148438 c 0,0,0
 508.3203125 1151.33300781 508.3203125 1151.33300781 509.092773438 1156 c 2,1,-1
 538.809570312 1331 l 2,2,3
 572.38671875 1543 572.38671875 1543 512.493164062 1651 c 0,4,5
 450.28125 1757 450.28125 1757 340.28125 1757 c 2,6,-1
 263.28125 1757 l 1,7,-1
 235.247070312 1580 l 1,8,-1
 303.247070312 1580 l 2,9,10
 345.247070312 1580 345.247070312 1580 365.853515625 1527 c 0,11,12
 386.939453125 1476.27246094 386.939453125 1476.27246094 370.51953125 1372.59765625 c 0,0,0
 369.459960938 1365.90917969 369.459960938 1365.90917969 368.244140625 1359 c 2,1,-1
 338.001953125 1187 l 2,2,3
 316.620117188 1052 316.620117188 1052 335.524414062 963 c 0,4,5
 354.111328125 872 354.111328125 872 400.825195312 826 c 1,6,7
 343.6484375 787 343.6484375 787 295.235351562 696 c 0,8,9
 249.063476562 606.706054688 249.063476562 606.706054688 225.37109375 457.12109375 c 0,0,0
 224.653320312 452.587890625 224.653320312 452.587890625 223.956054688 448 c 2,1,-1
 193.487304688 243 l 2,2,3
 170.6796875 99 170.6796875 99 133.810546875 43 c 0,4,5
 95.94140625 -13 95.94140625 -13 40.94140625 -13 c 2,6,-1
 -15.05859375 -13 l 1,7,-1
 -42.6181640625 -187 l 1,8,-1
 0.3818359375 -187 l 2,0,1
EndSplineSet
EndChar

StartChar: bracketleft
Encoding: 91 91 560
Width: 512
VWidth: 2516
GlyphClass: 1
Flags: HW
LayerCount: 2
Fore
SplineSet
-4.490234375 -142 m 1,0,-1
 288.99609375 1711 l 1,1,-1
 686.99609375 1711 l 1,2,-1
 655.635742188 1513 l 1,3,-1
 433.635742188 1513 l 1,4,-1
 201.602539062 48 l 1,5,-1
 426.602539062 48 l 1,6,-1
 396.509765625 -142 l 1,7,-1
 -4.490234375 -142 l 1,0,-1
EndSplineSet
EndChar

StartChar: bracketright
Encoding: 93 93 561
Width: 512
VWidth: 2516
GlyphClass: 1
Flags: HW
LayerCount: 2
Fore
SplineSet
381.509765625 -142 m 1,0,-1
 674.99609375 1711 l 1,1,-1
 276.99609375 1711 l 1,2,-1
 245.635742188 1513 l 1,3,-1
 467.635742188 1513 l 1,4,-1
 235.602539062 48 l 1,5,-1
 11.6025390625 48 l 1,6,-1
 -18.490234375 -142 l 1,7,-1
 381.509765625 -142 l 1,0,-1
EndSplineSet
EndChar

StartChar: hyphen
Encoding: 45 45 562
Width: 512
VWidth: 2441
GlyphClass: 1
Flags: HW
LayerCount: 2
Fore
SplineSet
139.859375 681 m 1,0,-1
 170.745117188 876 l 1,1,-1
 533.745117188 876 l 1,2,-1
 502.859375 681 l 1,3,-1
 139.859375 681 l 1,0,-1
EndSplineSet
EndChar

StartChar: endash
Encoding: 8211 8211 564
Width: 512
VWidth: 2441
GlyphClass: 1
Flags: HW
LayerCount: 2
Fore
SplineSet
92.859375 681 m 1,0,-1
 123.745117188 876 l 1,1,-1
 582.745117188 876 l 1,2,-1
 551.859375 681 l 1,3,-1
 92.859375 681 l 1,0,-1
EndSplineSet
EndChar

StartChar: emdash
Encoding: 8212 8212 565
Width: 512
VWidth: 2441
GlyphClass: 1
Flags: HW
LayerCount: 2
Fore
SplineSet
16.859375 681 m 1,0,-1
 47.7451171875 876 l 1,1,-1
 527.745117188 876 l 1,2,-1
 496.859375 681 l 1,3,-1
 16.859375 681 l 1,0,-1
EndSplineSet
EndChar

StartChar: underscore
Encoding: 95 95 569
Width: 512
VWidth: 2441
GlyphClass: 1
Flags: HW
LayerCount: 2
Fore
SplineSet
-99.0126953125 -240 m 1,0,-1
 -68.7607421875 -49 l 1,1,-1
 411.239257812 -49 l 1,2,-1
 380.987304688 -240 l 1,3,-1
 -99.0126953125 -240 l 1,0,-1
EndSplineSet
EndChar

StartChar: quotedblleft
Encoding: 8220 8220 572
Width: 512
VWidth: 2441
GlyphClass: 1
Flags: HW
LayerCount: 2
Fore
SplineSet
335.762695312 1558 m 1,0,-1
 413.250976562 1479 l 1,1,2
 364.796875 1413 364.796875 1413 329.185546875 1346 c 128,-1,3
 293.573242188 1279 293.573242188 1279 284.387695312 1221 c 0,4,5
 278.84375 1186 278.84375 1186 288.701171875 1163 c 128,-1,6
 298.55859375 1140 298.55859375 1140 307.282226562 1113 c 128,-1,7
 316.005859375 1086 316.005859375 1086 309.51171875 1045 c 0,8,9
 299.850585938 984 299.850585938 984 265.33203125 946 c 128,-1,10
 230.813476562 908 230.813476562 908 192.813476562 908 c 0,11,12
 152.813476562 908 152.813476562 908 126.490234375 947 c 128,-1,13
 100.166992188 986 100.166992188 986 112.6796875 1065 c 0,14,15
 130.1015625 1175 130.1015625 1175 182.6328125 1292 c 128,-1,16
 235.1640625 1409 235.1640625 1409 335.762695312 1558 c 1,0,-1
581.762695312 1558 m 1,17,-1
 658.250976562 1479 l 1,18,19
 609.796875 1413 609.796875 1413 575.185546875 1346 c 128,-1,20
 540.573242188 1279 540.573242188 1279 531.387695312 1221 c 0,21,22
 525.84375 1186 525.84375 1186 535.201171875 1163 c 128,-1,23
 544.55859375 1140 544.55859375 1140 553.782226562 1113 c 128,-1,24
 563.005859375 1086 563.005859375 1086 556.51171875 1045 c 0,25,26
 546.850585938 984 546.850585938 984 511.83203125 946 c 128,-1,27
 476.813476562 908 476.813476562 908 439.813476562 908 c 0,28,29
 399.813476562 908 399.813476562 908 372.990234375 947 c 128,-1,30
 346.166992188 986 346.166992188 986 358.6796875 1065 c 0,31,32
 376.1015625 1175 376.1015625 1175 428.6328125 1292 c 128,-1,33
 481.1640625 1409 481.1640625 1409 581.762695312 1558 c 1,17,-1
EndSplineSet
EndChar

StartChar: quoteleft
Encoding: 8216 8216 574
Width: 512
VWidth: 2441
GlyphClass: 1
Flags: HW
LayerCount: 2
Fore
SplineSet
479.762695312 1558 m 1,0,-1
 575.250976562 1479 l 1,1,2
 520.796875 1413 520.796875 1413 481.185546875 1346 c 128,-1,3
 441.573242188 1279 441.573242188 1279 432.387695312 1221 c 0,4,5
 426.84375 1186 426.84375 1186 438.701171875 1163 c 128,-1,6
 450.55859375 1140 450.55859375 1140 460.782226562 1113 c 128,-1,7
 471.005859375 1086 471.005859375 1086 464.51171875 1045 c 0,8,9
 454.850585938 984 454.850585938 984 414.33203125 946 c 128,-1,10
 373.813476562 908 373.813476562 908 330.813476562 908 c 0,11,12
 284.813476562 908 284.813476562 908 251.490234375 947 c 128,-1,13
 218.166992188 986 218.166992188 986 230.6796875 1065 c 0,14,15
 248.1015625 1175 248.1015625 1175 306.6328125 1292 c 128,-1,16
 365.1640625 1409 365.1640625 1409 479.762695312 1558 c 1,0,-1
EndSplineSet
EndChar

StartChar: quoteright
Encoding: 8217 8217 575
Width: 512
VWidth: 2441
GlyphClass: 1
Flags: HW
LayerCount: 2
Fore
SplineSet
293.813476562 908 m 1,0,-1
 199.166992188 986 l 1,1,2
 253.145507812 1049 253.145507812 1049 293.494140625 1117.5 c 128,-1,3
 333.84375 1186 333.84375 1186 343.188476562 1245 c 0,4,5
 348.732421875 1280 348.732421875 1280 335.875 1303 c 128,-1,6
 323.017578125 1326 323.017578125 1326 313.21484375 1352.5 c 128,-1,7
 303.412109375 1379 303.412109375 1379 310.064453125 1421 c 0,8,9
 319.725585938 1482 319.725585938 1482 359.744140625 1520 c 128,-1,10
 399.762695312 1558 399.762695312 1558 443.762695312 1558 c 0,11,12
 489.762695312 1558 489.762695312 1558 522.506835938 1518.5 c 128,-1,13
 555.250976562 1479 555.250976562 1479 543.0546875 1402 c 0,14,15
 525.6328125 1292 525.6328125 1292 466.864257812 1173.5 c 128,-1,16
 408.095703125 1055 408.095703125 1055 293.813476562 908 c 1,0,-1
EndSplineSet
EndChar

StartChar: guillemotleft
Encoding: 171 171 576
Width: 512
VWidth: 2441
GlyphClass: 1
Flags: HW
LayerCount: 2
Fore
SplineSet
361.055664062 114 m 1,0,-1
 247.745117188 554 l 1,1,-1
 260.416015625 634 l 1,2,-1
 499.551757812 1020 l 1,3,-1
 561.537109375 881 l 1,4,-1
 378.60546875 591 l 1,5,-1
 466.645507812 244 l 1,6,-1
 361.055664062 114 l 1,0,-1
151.055664062 114 m 1,7,-1
 35.7451171875 554 l 1,8,-1
 48.416015625 634 l 1,9,-1
 290.551757812 1020 l 1,10,-1
 346.645507812 888 l 1,11,-1
 169.60546875 591 l 1,12,-1
 253.329101562 242 l 1,13,-1
 151.055664062 114 l 1,7,-1
EndSplineSet
EndChar

StartChar: guilsinglleft
Encoding: 8249 8249 578
Width: 512
VWidth: 2441
GlyphClass: 1
Flags: HW
LayerCount: 2
Fore
SplineSet
276.629882812 105 m 1,0,-1
 141.319335938 545 l 1,1,-1
 154.306640625 627 l 1,2,-1
 415.918945312 1016 l 1,3,-1
 497.319335938 867 l 1,4,-1
 313.337890625 583 l 1,5,-1
 407.229492188 254 l 1,6,-1
 276.629882812 105 l 1,0,-1
EndSplineSet
EndChar

StartChar: guilsinglright
Encoding: 8250 8250 579
Width: 512
VWidth: 2441
GlyphClass: 1
Flags: HW
LayerCount: 2
Fore
SplineSet
157.629882812 105 m 1,0,-1
 76.2294921875 254 l 1,1,-1
 273.337890625 583 l 1,2,-1
 178.319335938 867 l 1,3,-1
 306.918945312 1016 l 1,4,-1
 445.306640625 627 l 1,5,-1
 432.319335938 545 l 1,6,-1
 157.629882812 105 l 1,0,-1
EndSplineSet
EndChar

